<svg class="enliven" version="1.1" xmlns="http://www.w3.org/2000/svg" xmlns:xlink="http://www.w3.org/1999/xlink" x="0px" y="0px" viewBox="0 0 295 178" enable-background="0 0 295 178" xml:space="preserve" data-global-elvn="enableViewport, disableClick, none, startInvisible, notResponsive, 500, notLoop, 500">
    <g id="Page-1" stroke="none" stroke-width="1" fill="none" fill-rule="evenodd">
        <g id="m_12" transform="translate(1.000000, 1.000000)">
            <g id="Open_Mail_1_" transform="translate(234.000000, 2.000000)" stroke-width="2" fill-rule="nonzero" data-elvn="scaleTL, in, 2700, 300, backout" class="elvn-layer">
                <rect id="Rectangle-path" stroke="#0E3C54" fill="#FFFFFF" stroke-linecap="round" stroke-linejoin="round" x="0.254" y="27.315" width="58.297" height="31.879"></rect>
                <polygon id="Shape" stroke="#0E3C54" fill="#FFFFFF" stroke-linecap="round" stroke-linejoin="round" points="58.583 27.397 29.419 0.961 0.254 27.397"></polygon>
                <rect id="Rectangle-path" stroke="#45566B" fill="#FF1294" x="6.877" y="16.003" width="44.031" height="33.873"></rect>
                <polygon id="Shape" stroke="#0E3C54" fill="#FFFFFF" stroke-linecap="round" stroke-linejoin="round" points="58.551 59.292 29.419 48.856 58.551 27.397"></polygon>
                <polygon id="Shape" stroke="#0E3C54" fill="#FFFFFF" stroke-linecap="round" stroke-linejoin="round" points="0.254 59.292 29.383 48.856 0.254 27.397"></polygon>
                <polygon id="Shape" stroke="#0E3C54" fill="#FFFFFF" stroke-linecap="round" stroke-linejoin="round" points="0.254 59.292 29.383 48.856 58.551 59.292"></polygon>
            </g>
            <g id="world" transform="translate(1.000000, 55.000000)" fill-rule="nonzero" data-elvn="scaleB, in, 1500, 300, backout" class="elvn-layer">
                <rect id="Rectangle-path" stroke="#0E3C54" stroke-width="2" fill="#FFFFFF" x="0.282" y="0.946" width="58.322" height="87.835"></rect>
                <rect id="Rectangle-path" stroke="#45566B" stroke-width="2" fill="#FF1294" x="0.282" y="58.521" width="58.322" height="30.26"></rect>
                <g id="Group" transform="translate(6.000000, 8.000000)" fill="#0E3C54">
                    <path d="M30.459,2.512 C34.003,3.749 37.113,5.889 39.525,8.661 C39.72,8.631 39.919,8.612 40.112,8.581 C40.279,8.554 40.446,8.565 40.601,8.61 C41.009,8.728 41.332,9.071 41.402,9.516 C41.466,9.922 41.293,10.298 40.999,10.545 C43.198,13.729 44.538,17.537 44.732,21.649 L44.811,21.649 C44.919,21.651 45.021,21.667 45.12,21.695 C45.533,21.814 45.832,22.169 45.903,22.599 C45.875,12.669 39.238,3.829 29.697,1.064 C27.71,0.488 25.642,0.191 23.553,0.179 C24.591,0.184 25.627,0.335 26.633,0.627 C27.986,1.02 29.269,1.662 30.459,2.512 Z" id="Shape"></path>
                    <path d="M44.8,23.906 L44.72,23.906 C44.479,28.064 43.063,31.897 40.78,35.079 C41.129,35.32 41.33,35.744 41.255,36.189 C41.241,36.274 41.198,36.342 41.167,36.419 C44.073,32.682 45.84,28.018 45.902,22.937 C45.82,23.484 45.369,23.91 44.8,23.906 Z" id="Shape"></path>
                    <path d="M39.216,37.002 C36.764,39.699 33.641,41.764 30.101,42.93 C28.038,44.344 25.738,45.153 23.307,45.139 C30.333,45.178 36.63,41.969 40.783,36.926 C40.55,37.087 40.256,37.163 39.954,37.112 C39.71,37.07 39.461,37.041 39.216,37.002 Z" id="Shape"></path>
                    <path d="M5.944,34.885 C3.698,31.679 2.325,27.829 2.131,23.67 L2.098,23.67 C1.473,23.668 0.972,23.161 0.973,22.537 C0.977,21.914 1.485,21.41 2.109,21.414 L2.144,21.414 C2.382,17.306 3.763,13.513 5.997,10.354 C5.706,10.104 5.536,9.724 5.606,9.319 C5.711,8.704 6.291,8.293 6.906,8.397 C7.1,8.43 7.298,8.453 7.493,8.484 C9.968,5.704 13.148,3.577 16.763,2.387 C18.825,0.975 21.124,0.165 23.554,0.179 C11.16,0.11 1.022,10.141 0.952,22.537 C0.924,27.603 2.626,32.391 5.556,36.248 C5.519,36.164 5.474,36.085 5.459,35.99 C5.388,35.545 5.594,35.125 5.944,34.885 Z" id="Shape"></path>
                    <path d="M16.399,42.805 C12.929,41.592 9.878,39.516 7.487,36.826 C7.242,36.862 6.993,36.888 6.749,36.928 C6.46,36.973 6.185,36.897 5.959,36.749 C8.783,40.258 12.641,42.944 17.163,44.254 C19.15,44.828 21.218,45.127 23.306,45.139 C22.268,45.133 21.231,44.983 20.225,44.692 C18.873,44.299 17.59,43.656 16.399,42.805 Z" id="Shape"></path>
                    <path d="M13.782,40.416 C11.939,39.41 10.283,38.131 8.856,36.637 C8.4,36.7 7.941,36.757 7.488,36.825 C9.878,39.515 12.93,41.591 16.4,42.804 C15.465,42.137 14.594,41.328 13.782,40.416 Z" id="Shape"></path>
                    <path d="M7.149,10.713 C6.943,10.679 6.734,10.655 6.528,10.62 C6.319,10.588 6.147,10.483 5.997,10.354 C3.763,13.512 2.382,17.305 2.144,21.414 L3.272,21.42 C3.517,17.426 4.916,13.751 7.149,10.713 Z" id="Shape"></path>
                    <path d="M39.846,10.895 C42.062,13.99 43.413,17.701 43.614,21.643 L44.733,21.65 C44.539,17.539 43.199,13.73 41,10.546 C40.849,10.673 40.676,10.776 40.466,10.811 C40.261,10.843 40.052,10.865 39.846,10.895 Z" id="Shape"></path>
                    <path d="M33.079,4.902 C34.99,5.945 36.701,7.282 38.164,8.849 C38.618,8.786 39.075,8.73 39.525,8.661 C37.113,5.889 34.003,3.749 30.459,2.512 C31.395,3.181 32.267,3.991 33.079,4.902 Z" id="Shape"></path>
                    <path d="M14.043,4.759 C14.888,3.843 15.798,3.049 16.763,2.388 C13.149,3.577 9.968,5.704 7.493,8.485 C7.942,8.558 8.397,8.62 8.85,8.687 C10.356,7.117 12.102,5.781 14.043,4.759 Z" id="Shape"></path>
                    <path d="M7.135,34.597 C4.845,31.47 3.453,27.691 3.249,23.676 L2.131,23.67 C2.325,27.829 3.698,31.679 5.944,34.885 C6.077,34.794 6.226,34.726 6.395,34.698 C6.639,34.66 6.889,34.634 7.135,34.597 Z" id="Shape"></path>
                    <path d="M43.591,23.899 C43.342,27.968 41.893,31.707 39.586,34.776 C39.834,34.816 40.085,34.845 40.331,34.887 C40.374,34.894 40.417,34.906 40.458,34.917 C40.577,34.95 40.682,35.011 40.779,35.078 C43.062,31.896 44.478,28.063 44.719,23.905 L43.591,23.899 Z" id="Shape"></path>
                    <path d="M32.817,40.564 C31.973,41.478 31.064,42.271 30.101,42.929 C33.641,41.763 36.764,39.699 39.216,37.001 C38.766,36.927 38.312,36.866 37.86,36.799 C36.389,38.301 34.692,39.576 32.817,40.564 Z" id="Shape"></path>
                    <path d="M34.538,36.362 C33.209,38.68 31.545,40.559 29.666,41.885 C30.759,41.53 31.813,41.09 32.817,40.565 C33.901,39.387 34.876,38.02 35.717,36.488 C35.327,36.439 34.931,36.408 34.538,36.362 Z" id="Shape"></path>
                    <path d="M35.814,11.429 C37.067,14.414 37.826,17.886 37.939,21.613 L39.07,21.618 C38.96,17.892 38.217,14.367 36.968,11.291 C36.584,11.337 36.2,11.386 35.814,11.429 Z" id="Shape"></path>
                    <path d="M35.613,34.21 C35.994,34.256 36.373,34.304 36.752,34.355 C38.08,31.271 38.898,27.702 39.053,23.874 L37.927,23.869 C37.771,27.667 36.947,31.197 35.613,34.21 Z" id="Shape"></path>
                    <path d="M34.786,9.259 C35.181,9.219 35.579,9.192 35.972,9.147 C35.144,7.556 34.173,6.127 33.078,4.902 C32.065,4.348 30.996,3.881 29.878,3.504 C31.79,4.884 33.466,6.847 34.786,9.259 Z" id="Shape"></path>
                    <path d="M12.223,9.136 C13.568,6.74 15.265,4.796 17.19,3.437 C16.099,3.791 15.045,4.231 14.043,4.759 C12.917,5.98 11.912,7.408 11.049,9.01 C11.438,9.06 11.833,9.091 12.223,9.136 Z" id="Shape"></path>
                    <path d="M12.171,36.239 C11.775,36.279 11.376,36.306 10.982,36.352 C11.789,37.869 12.729,39.236 13.782,40.416 C14.794,40.969 15.861,41.436 16.977,41.812 C15.116,40.467 13.475,38.57 12.171,36.239 Z" id="Shape"></path>
                    <path d="M8.923,23.708 L7.789,23.701 C7.901,27.502 8.675,31.089 9.97,34.208 C10.353,34.161 10.736,34.115 11.12,34.073 C9.822,31.046 9.037,27.508 8.923,23.708 Z" id="Shape"></path>
                    <path d="M11.171,11.292 C10.79,11.245 10.412,11.193 10.032,11.143 C8.75,14.188 7.959,17.692 7.807,21.446 L8.935,21.453 C9.088,17.726 9.885,14.263 11.171,11.292 Z" id="Shape"></path>
                    <path d="M20.954,43.861 C19.374,43.677 17.853,43.312 16.399,42.804 C17.59,43.656 18.873,44.298 20.226,44.691 C21.232,44.982 22.269,45.132 23.307,45.138 C23.069,45.138 22.831,45.103 22.598,45.036 C21.999,44.863 21.455,44.443 20.954,43.861 Z" id="Shape"></path>
                    <path d="M25.907,1.457 C27.486,1.641 29.005,2.006 30.459,2.513 C29.269,1.662 27.986,1.021 26.634,0.629 C25.628,0.337 24.592,0.186 23.554,0.181 C23.793,0.182 24.032,0.215 24.263,0.283 C24.862,0.457 25.405,0.875 25.907,1.457 Z" id="Shape"></path>
                    <path d="M25.708,43.881 C24.999,44.69 24.201,45.143 23.308,45.139 C25.739,45.153 28.039,44.344 30.102,42.93 C28.693,43.393 27.227,43.721 25.708,43.881 Z" id="Shape"></path>
                    <path d="M21.155,1.436 C21.863,0.629 22.661,0.174 23.553,0.18 C21.123,0.166 18.824,0.976 16.762,2.388 C18.169,1.925 19.637,1.597 21.155,1.436 Z" id="Shape"></path>
                    <path d="M16.978,41.812 C15.862,41.435 14.795,40.968 13.783,40.416 C14.595,41.328 15.466,42.137 16.4,42.805 C17.854,43.313 19.375,43.678 20.955,43.862 C20.896,43.794 20.839,43.725 20.783,43.653 C19.438,43.297 18.164,42.67 16.978,41.812 Z" id="Shape"></path>
                    <path d="M14.043,4.759 C15.045,4.231 16.099,3.791 17.19,3.437 C18.375,2.599 19.643,1.989 20.978,1.646 C21.038,1.574 21.097,1.505 21.156,1.436 C19.637,1.597 18.17,1.925 16.763,2.388 C15.798,3.049 14.888,3.843 14.043,4.759 Z" id="Shape"></path>
                    <path d="M32.817,40.564 C31.814,41.089 30.759,41.529 29.666,41.884 C28.483,42.72 27.217,43.329 25.886,43.671 C25.827,43.743 25.767,43.812 25.708,43.88 C27.227,43.72 28.694,43.392 30.102,42.929 C31.064,42.271 31.973,41.479 32.817,40.564 Z" id="Shape"></path>
                    <path d="M29.879,3.503 C30.997,3.88 32.066,4.348 33.079,4.901 C32.267,3.99 31.395,3.18 30.459,2.511 C29.005,2.004 27.485,1.639 25.907,1.455 C25.964,1.522 26.023,1.591 26.079,1.664 C27.421,2.021 28.694,2.647 29.879,3.503 Z" id="Shape"></path>
                    <path d="M8.923,23.708 C9.037,27.509 9.822,31.047 11.121,34.073 C11.507,34.03 11.897,34 12.285,33.961 C10.961,30.988 10.163,27.469 10.044,23.714 L8.923,23.708 Z" id="Shape"></path>
                    <path d="M34.538,36.362 C34.129,36.316 33.717,36.273 33.305,36.231 C31.589,39.064 29.356,41.158 26.83,42.178 C26.754,42.326 26.676,42.471 26.596,42.612 C27.647,42.446 28.675,42.208 29.666,41.885 C31.545,40.559 33.209,38.68 34.538,36.362 Z" id="Shape"></path>
                    <path d="M33.565,9.376 C33.972,9.339 34.38,9.303 34.786,9.259 C33.466,6.847 31.789,4.884 29.879,3.503 C29.609,3.412 29.345,3.311 29.069,3.232 C28.319,3.014 27.552,2.85 26.779,2.722 C26.855,2.859 26.928,3.004 27.003,3.153 C29.613,4.224 31.87,6.435 33.565,9.376 Z" id="Shape"></path>
                    <path d="M13.403,36.12 C12.992,36.158 12.582,36.196 12.172,36.239 C13.475,38.571 15.117,40.467 16.978,41.813 C17.249,41.905 17.516,42.006 17.792,42.086 C18.543,42.305 19.309,42.467 20.082,42.596 C20.006,42.457 19.933,42.313 19.858,42.166 C17.302,41.115 15.085,38.973 13.403,36.12 Z" id="Shape"></path>
                    <path d="M12.326,11.416 C11.941,11.373 11.554,11.34 11.171,11.292 C9.885,14.264 9.088,17.727 8.935,21.452 L10.061,21.459 C10.218,17.757 11.023,14.318 12.326,11.416 Z" id="Shape"></path>
                    <path d="M12.223,9.136 C12.631,9.182 13.039,9.225 13.447,9.267 C15.177,6.343 17.453,4.181 20.032,3.141 C20.109,2.992 20.187,2.847 20.266,2.707 C19.212,2.874 18.183,3.112 17.189,3.436 C15.266,4.796 13.568,6.74 12.223,9.136 Z" id="Shape"></path>
                    <path d="M36.816,21.606 L37.939,21.613 C37.826,17.886 37.067,14.415 35.814,11.429 C35.428,11.472 35.04,11.501 34.652,11.539 C35.93,14.475 36.701,17.926 36.816,21.606 Z" id="Shape"></path>
                    <path d="M34.455,34.085 C34.842,34.128 35.229,34.161 35.614,34.21 C36.947,31.196 37.772,27.667 37.928,23.868 L36.8,23.861 C36.639,27.639 35.805,31.144 34.455,34.085 Z" id="Shape"></path>
                    <path d="M25.886,43.672 C27.218,43.33 28.484,42.721 29.666,41.885 C28.675,42.207 27.647,42.446 26.596,42.612 C26.37,43.006 26.134,43.361 25.886,43.672 Z" id="Shape"></path>
                    <path d="M16.978,41.812 C18.165,42.669 19.439,43.296 20.783,43.652 C20.539,43.34 20.303,42.994 20.082,42.595 C19.31,42.466 18.543,42.304 17.792,42.085 C17.515,42.006 17.249,41.904 16.978,41.812 Z" id="Shape"></path>
                    <path d="M29.879,3.503 C28.694,2.647 27.421,2.021 26.079,1.665 C26.324,1.977 26.559,2.323 26.78,2.722 C27.553,2.85 28.32,3.014 29.07,3.232 C29.345,3.311 29.609,3.413 29.879,3.503 Z" id="Shape"></path>
                    <path d="M20.978,1.646 C19.644,1.989 18.375,2.599 17.19,3.437 C18.184,3.113 19.212,2.875 20.267,2.708 C20.492,2.311 20.729,1.957 20.978,1.646 Z" id="Shape"></path>
                    <path d="M27.663,35.794 C27.028,38.884 26.186,41.281 25.221,42.668 C25.768,42.551 26.306,42.389 26.83,42.178 C27.658,40.561 28.318,38.375 28.819,35.871 C28.433,35.849 28.049,35.814 27.663,35.794 Z" id="Shape"></path>
                    <path d="M28.871,23.818 C28.804,27.369 28.518,30.68 28.064,33.562 C28.448,33.58 28.83,33.614 29.213,33.636 C29.682,30.574 29.943,27.182 30.006,23.824 L28.871,23.818 Z" id="Shape"></path>
                    <path d="M19.162,9.712 C19.801,6.532 20.656,4.066 21.641,2.651 C21.094,2.766 20.556,2.929 20.032,3.14 C19.184,4.797 18.511,7.051 18.006,9.635 C18.392,9.659 18.775,9.694 19.162,9.712 Z" id="Shape"></path>
                    <path d="M27.003,3.153 C26.675,3.018 26.344,2.892 26.006,2.795 C25.819,2.74 25.629,2.714 25.441,2.672 C26.41,4.096 27.238,6.572 27.842,9.759 C28.222,9.746 28.6,9.715 28.98,9.697 C28.499,7.096 27.841,4.828 27.003,3.153 Z" id="Shape"></path>
                    <path d="M16.848,23.751 C16.875,27.067 17.101,30.474 17.546,33.57 C17.924,33.551 18.299,33.523 18.677,33.508 C18.256,30.621 18.007,27.306 17.979,23.757 L16.848,23.751 Z" id="Shape"></path>
                    <path d="M19.858,42.166 C20.186,42.301 20.516,42.426 20.854,42.523 C21.042,42.578 21.232,42.605 21.422,42.648 C20.472,41.25 19.655,38.845 19.055,35.747 C18.675,35.76 18.298,35.791 17.918,35.808 C18.397,38.33 19.041,40.531 19.858,42.166 Z" id="Shape"></path>
                    <path d="M17.991,21.502 C18.056,18.029 18.33,14.782 18.768,11.945 C18.385,11.926 18.004,11.892 17.622,11.87 C17.17,14.884 16.917,18.206 16.855,21.495 L17.991,21.502 Z" id="Shape"></path>
                    <path d="M30.015,21.569 C29.987,18.317 29.768,14.984 29.34,11.937 C28.964,11.955 28.589,11.984 28.212,11.998 C28.618,14.84 28.856,18.09 28.883,21.562 L30.015,21.569 Z" id="Shape"></path>
                    <path d="M25.708,43.881 C24.92,43.965 24.124,44.016 23.313,44.012 C22.515,44.006 21.73,43.951 20.955,43.862 C21.456,44.444 21.999,44.864 22.599,45.038 C22.832,45.104 23.07,45.14 23.308,45.14 C24.201,45.143 24.999,44.689 25.708,43.881 Z" id="Shape"></path>
                    <path d="M21.155,1.436 C21.943,1.353 22.739,1.301 23.549,1.306 C24.346,1.31 25.132,1.367 25.906,1.456 C25.405,0.874 24.862,0.456 24.262,0.281 C24.03,0.214 23.792,0.18 23.553,0.179 C22.661,0.174 21.864,0.629 21.155,1.436 Z" id="Shape"></path>
                    <path d="M20.954,43.861 C21.73,43.951 22.515,44.006 23.312,44.011 C22.447,44.005 21.605,43.87 20.782,43.652 C20.838,43.725 20.896,43.793 20.954,43.861 Z" id="Shape"></path>
                    <path d="M25.907,1.457 C25.132,1.367 24.347,1.311 23.55,1.307 C24.415,1.311 25.258,1.448 26.079,1.666 C26.022,1.592 25.964,1.524 25.907,1.457 Z" id="Shape"></path>
                    <path d="M23.312,44.012 C24.123,44.016 24.919,43.965 25.707,43.881 C25.766,43.813 25.827,43.744 25.885,43.672 C25.048,43.887 24.191,44.016 23.312,44.012 Z" id="Shape"></path>
                    <path d="M23.549,1.306 C22.739,1.301 21.943,1.353 21.155,1.436 C21.096,1.505 21.037,1.574 20.977,1.646 C21.814,1.431 22.671,1.301 23.549,1.306 Z" id="Shape"></path>
                    <path d="M20.854,42.523 C20.516,42.425 20.186,42.3 19.858,42.166 C19.932,42.312 20.006,42.457 20.082,42.596 C20.557,42.676 21.035,42.739 21.515,42.784 C21.484,42.741 21.453,42.694 21.422,42.649 C21.232,42.605 21.041,42.578 20.854,42.523 Z" id="Shape"></path>
                    <path d="M21.642,2.652 C21.673,2.607 21.704,2.56 21.737,2.517 C21.241,2.559 20.754,2.63 20.267,2.707 C20.188,2.847 20.11,2.991 20.033,3.141 C20.557,2.93 21.094,2.767 21.642,2.652 Z" id="Shape"></path>
                    <path d="M25.221,42.668 C25.189,42.713 25.157,42.758 25.125,42.801 C25.623,42.76 26.11,42.69 26.597,42.612 C26.677,42.471 26.755,42.327 26.831,42.178 C26.306,42.389 25.768,42.551 25.221,42.668 Z" id="Shape"></path>
                    <path d="M26.006,2.794 C26.344,2.892 26.675,3.018 27.003,3.152 C26.929,3.004 26.856,2.858 26.779,2.721 C26.304,2.643 25.827,2.578 25.346,2.534 C25.377,2.577 25.408,2.623 25.44,2.67 C25.629,2.713 25.819,2.74 26.006,2.794 Z" id="Shape"></path>
                    <path d="M25.347,2.536 C25.827,2.58 26.305,2.644 26.78,2.723 C26.559,2.325 26.324,1.979 26.079,1.666 C25.257,1.447 24.415,1.311 23.55,1.307 C24.183,1.31 24.785,1.757 25.347,2.536 Z" id="Shape"></path>
                    <path d="M26.596,42.611 C26.109,42.689 25.622,42.759 25.124,42.8 C24.554,43.573 23.946,44.015 23.312,44.011 C24.191,44.015 25.048,43.886 25.885,43.671 C26.134,43.361 26.37,43.006 26.596,42.611 Z" id="Shape"></path>
                    <path d="M20.267,2.708 C20.753,2.631 21.241,2.56 21.737,2.518 C22.307,1.745 22.917,1.304 23.55,1.307 C22.672,1.302 21.815,1.432 20.978,1.647 C20.729,1.957 20.492,2.311 20.267,2.708 Z" id="Shape"></path>
                    <path d="M21.515,42.783 C21.035,42.738 20.557,42.676 20.082,42.595 C20.302,42.993 20.539,43.339 20.783,43.652 C21.606,43.871 22.448,44.006 23.313,44.011 C22.679,44.008 22.077,43.562 21.515,42.783 Z" id="Shape"></path>
                    <path d="M27.744,23.811 C27.674,27.581 27.372,30.83 26.934,33.515 C27.311,33.531 27.687,33.542 28.063,33.562 C28.518,30.68 28.803,27.369 28.87,23.818 L27.744,23.811 Z" id="Shape"></path>
                    <path d="M28.883,21.562 C28.855,18.089 28.617,14.839 28.212,11.998 C27.831,12.014 27.45,12.021 27.067,12.032 C27.467,14.75 27.726,17.959 27.756,21.555 L28.883,21.562 Z" id="Shape"></path>
                    <path d="M17.979,23.758 C18.006,27.307 18.255,30.622 18.677,33.509 C19.058,33.493 19.44,33.488 19.821,33.476 C19.405,30.719 19.136,27.444 19.106,23.763 L17.979,23.758 Z" id="Shape"></path>
                    <path d="M19.162,9.712 C19.542,9.73 19.923,9.733 20.303,9.746 C21.295,4.961 22.669,2.431 23.543,2.435 C22.896,2.431 22.264,2.52 21.642,2.651 C20.656,4.067 19.801,6.533 19.162,9.712 Z" id="Shape"></path>
                    <path d="M19.119,21.508 C19.189,17.829 19.476,14.64 19.892,11.991 C19.517,11.976 19.142,11.965 18.767,11.945 C18.329,14.782 18.056,18.029 17.99,21.502 L19.119,21.508 Z" id="Shape"></path>
                    <path d="M26.692,9.782 C27.075,9.772 27.459,9.773 27.841,9.759 C27.237,6.572 26.408,4.096 25.44,2.672 C24.814,2.531 24.18,2.44 23.543,2.437 C23.572,2.437 23.604,2.44 23.635,2.45 C24.633,2.739 25.841,5.4 26.692,9.782 Z" id="Shape"></path>
                    <path d="M27.663,35.794 C27.281,35.777 26.896,35.774 26.514,35.761 C25.516,40.422 24.142,42.883 23.226,42.871 C22.243,42.586 21.056,39.992 20.208,35.727 C19.824,35.735 19.438,35.733 19.055,35.748 C19.655,38.846 20.472,41.25 21.422,42.649 C22.048,42.788 22.682,42.879 23.32,42.883 C23.321,42.883 23.322,42.883 23.325,42.883 C23.97,42.885 24.599,42.797 25.221,42.668 C26.186,41.281 27.028,38.885 27.663,35.794 Z" id="Shape"></path>
                    <polygon id="Shape" points="23.32 42.883 23.325 42.883"></polygon>
                    <path d="M23.325,42.883 C23.932,42.885 24.531,42.852 25.125,42.801 C25.157,42.758 25.189,42.713 25.221,42.668 C24.599,42.797 23.969,42.885 23.325,42.883 Z" id="Shape"></path>
                    <path d="M23.543,2.436 C22.934,2.432 22.333,2.467 21.736,2.517 C21.704,2.56 21.673,2.607 21.641,2.652 C22.264,2.521 22.896,2.432 23.543,2.436 Z" id="Shape"></path>
                    <path d="M21.515,42.783 C22.114,42.84 22.715,42.879 23.318,42.883 C23.319,42.883 23.319,42.883 23.319,42.883 C22.681,42.879 22.048,42.787 21.421,42.649 C21.452,42.693 21.484,42.74 21.515,42.783 Z" id="Shape"></path>
                    <path d="M25.347,2.536 C24.748,2.478 24.148,2.439 23.543,2.436 C24.181,2.439 24.814,2.531 25.44,2.671 C25.409,2.625 25.378,2.579 25.347,2.536 Z" id="Shape"></path>
                    <path d="M25.125,42.801 C24.531,42.852 23.932,42.885 23.325,42.883 C23.324,42.883 23.323,42.883 23.321,42.883 C23.321,42.883 23.321,42.883 23.321,42.883 C23.321,42.883 23.321,42.883 23.319,42.883 C22.716,42.879 22.114,42.84 21.516,42.783 C22.078,43.562 22.681,44.008 23.314,44.012 C23.946,44.016 24.555,43.574 25.125,42.801 Z" id="Shape"></path>
                    <path d="M21.736,2.517 C22.333,2.467 22.933,2.432 23.543,2.436 C24.147,2.439 24.748,2.478 25.347,2.536 C24.785,1.758 24.183,1.31 23.55,1.307 C22.916,1.303 22.307,1.744 21.736,2.517 Z" id="Shape"></path>
                    <path d="M36.968,11.291 C37.932,11.172 38.891,11.041 39.845,10.895 C39.331,10.177 38.768,9.496 38.163,8.849 C37.434,8.949 36.708,9.061 35.972,9.147 C36.331,9.834 36.666,10.547 36.968,11.291 Z" id="Shape"></path>
                    <path d="M11.049,9.01 C10.311,8.916 9.583,8.796 8.851,8.687 C8.24,9.323 7.674,10.001 7.15,10.713 C8.106,10.869 9.067,11.011 10.033,11.142 C10.343,10.403 10.683,9.692 11.049,9.01 Z" id="Shape"></path>
                    <path d="M6.906,8.398 C6.291,8.294 5.711,8.705 5.606,9.32 C5.536,9.725 5.706,10.105 5.997,10.355 C6.459,9.701 6.962,9.082 7.493,8.485 C7.298,8.454 7.1,8.431 6.906,8.398 Z" id="Shape"></path>
                    <path d="M41.402,9.517 C41.332,9.072 41.009,8.729 40.601,8.611 C40.446,8.566 40.28,8.554 40.112,8.582 C39.918,8.613 39.719,8.632 39.525,8.662 C40.049,9.265 40.545,9.889 41,10.547 C41.293,10.299 41.466,9.923 41.402,9.517 Z" id="Shape"></path>
                    <path d="M7.149,10.713 C7.673,10.001 8.239,9.322 8.85,8.687 C8.397,8.62 7.942,8.558 7.493,8.485 C6.962,9.082 6.459,9.701 5.997,10.355 C6.147,10.484 6.319,10.588 6.528,10.621 C6.734,10.656 6.944,10.679 7.149,10.713 Z" id="Shape"></path>
                    <path d="M39.846,10.895 C40.052,10.865 40.262,10.843 40.466,10.811 C40.675,10.777 40.848,10.673 41,10.546 C40.545,9.888 40.05,9.264 39.525,8.661 C39.074,8.729 38.618,8.785 38.164,8.849 C38.769,9.496 39.332,10.177 39.846,10.895 Z" id="Shape"></path>
                    <path d="M17.622,11.871 C17.736,11.103 17.865,10.357 18.006,9.637 C16.479,9.547 14.96,9.424 13.447,9.268 C13.045,9.948 12.666,10.659 12.326,11.416 C14.081,11.611 15.847,11.762 17.622,11.871 Z" id="Shape"></path>
                    <path d="M29.34,11.937 C31.121,11.848 32.893,11.716 34.653,11.54 C34.322,10.782 33.959,10.061 33.565,9.377 C32.044,9.516 30.517,9.625 28.98,9.696 C29.114,10.419 29.233,11.169 29.34,11.937 Z" id="Shape"></path>
                    <path d="M36.968,11.291 C36.666,10.548 36.33,9.835 35.972,9.147 C35.579,9.192 35.18,9.219 34.786,9.259 C35.161,9.947 35.499,10.676 35.814,11.429 C36.2,11.386 36.584,11.337 36.968,11.291 Z" id="Shape"></path>
                    <path d="M12.223,9.136 C11.832,9.091 11.438,9.06 11.049,9.01 C10.683,9.692 10.343,10.403 10.032,11.142 C10.412,11.193 10.79,11.245 11.171,11.291 C11.495,10.544 11.841,9.818 12.223,9.136 Z" id="Shape"></path>
                    <path d="M35.814,11.429 C35.499,10.676 35.16,9.947 34.786,9.259 C34.38,9.303 33.972,9.339 33.565,9.376 C33.959,10.061 34.322,10.781 34.653,11.539 C35.04,11.501 35.428,11.472 35.814,11.429 Z" id="Shape"></path>
                    <path d="M12.326,11.416 C12.666,10.658 13.045,9.947 13.447,9.268 C13.039,9.226 12.631,9.183 12.223,9.137 C11.841,9.819 11.495,10.545 11.171,11.292 C11.554,11.339 11.941,11.373 12.326,11.416 Z" id="Shape"></path>
                    <path d="M23.49,12.084 C24.685,12.09 25.877,12.064 27.068,12.031 C26.953,11.243 26.829,10.483 26.693,9.781 C25.631,9.807 24.568,9.833 23.503,9.828 C22.434,9.822 21.369,9.784 20.304,9.746 C20.158,10.449 20.02,11.19 19.893,11.991 C21.089,12.039 22.289,12.077 23.49,12.084 Z" id="Shape"></path>
                    <path d="M29.34,11.937 C29.233,11.169 29.114,10.419 28.98,9.696 C28.6,9.715 28.222,9.746 27.842,9.758 C27.977,10.472 28.101,11.218 28.212,11.997 C28.589,11.984 28.963,11.955 29.34,11.937 Z" id="Shape"></path>
                    <path d="M17.622,11.871 C18.004,11.893 18.384,11.928 18.768,11.946 C18.887,11.168 19.019,10.424 19.163,9.713 C18.776,9.694 18.393,9.659 18.007,9.637 C17.865,10.357 17.736,11.103 17.622,11.871 Z" id="Shape"></path>
                    <path d="M28.212,11.998 C28.101,11.219 27.977,10.473 27.842,9.759 C27.459,9.774 27.076,9.773 26.693,9.782 C26.829,10.484 26.953,11.244 27.068,12.032 C27.45,12.021 27.831,12.013 28.212,11.998 Z" id="Shape"></path>
                    <path d="M19.892,11.992 C20.019,11.191 20.157,10.45 20.303,9.747 C19.923,9.734 19.542,9.73 19.162,9.713 C19.019,10.424 18.887,11.168 18.767,11.946 C19.143,11.965 19.517,11.977 19.892,11.992 Z" id="Shape"></path>
                    <path d="M41.167,36.419 C41.037,36.585 40.918,36.762 40.783,36.925 C40.959,36.804 41.082,36.623 41.167,36.419 Z" id="Shape"></path>
                    <path d="M5.96,36.749 C5.825,36.584 5.685,36.42 5.556,36.25 C5.644,36.455 5.777,36.628 5.96,36.749 Z" id="Shape"></path>
                    <path d="M9.971,34.208 C9.02,34.325 8.075,34.456 7.136,34.598 C7.662,35.317 8.24,35.994 8.857,36.638 C9.565,36.541 10.269,36.435 10.983,36.353 C10.616,35.666 10.279,34.951 9.971,34.208 Z" id="Shape"></path>
                    <path d="M35.717,36.488 C36.437,36.578 37.146,36.695 37.86,36.8 C38.481,36.165 39.052,35.487 39.587,34.776 C38.647,34.624 37.703,34.483 36.754,34.355 C36.435,35.095 36.091,35.808 35.717,36.488 Z" id="Shape"></path>
                    <path d="M41.254,36.189 C41.329,35.744 41.129,35.32 40.779,35.079 C40.297,35.753 39.771,36.391 39.215,37.002 C39.461,37.041 39.71,37.07 39.953,37.111 C40.255,37.162 40.549,37.086 40.782,36.925 C40.917,36.762 41.035,36.585 41.166,36.419 C41.197,36.342 41.24,36.274 41.254,36.189 Z" id="Shape"></path>
                    <path d="M7.488,36.826 C6.938,36.208 6.421,35.563 5.945,34.886 C5.595,35.125 5.388,35.546 5.46,35.992 C5.475,36.087 5.52,36.166 5.557,36.25 C5.686,36.42 5.827,36.584 5.961,36.749 C6.187,36.896 6.462,36.973 6.751,36.928 C6.994,36.888 7.243,36.862 7.488,36.826 Z" id="Shape"></path>
                    <path d="M40.331,34.887 C40.085,34.845 39.833,34.816 39.586,34.776 C39.052,35.487 38.481,36.166 37.859,36.8 C38.312,36.866 38.766,36.928 39.215,37.002 C39.771,36.39 40.297,35.752 40.779,35.079 C40.682,35.012 40.576,34.951 40.458,34.918 C40.417,34.906 40.375,34.894 40.331,34.887 Z" id="Shape"></path>
                    <path d="M7.135,34.597 C6.889,34.634 6.639,34.659 6.395,34.699 C6.226,34.726 6.078,34.795 5.944,34.886 C6.42,35.564 6.938,36.208 7.487,36.826 C7.941,36.758 8.399,36.701 8.855,36.638 C8.24,35.994 7.661,35.316 7.135,34.597 Z" id="Shape"></path>
                    <path d="M17.546,33.571 C15.782,33.657 14.028,33.788 12.285,33.961 C12.623,34.721 13,35.438 13.403,36.12 C14.902,35.984 16.406,35.88 17.918,35.808 C17.782,35.085 17.656,34.339 17.546,33.571 Z" id="Shape"></path>
                    <path d="M29.213,33.636 C29.095,34.406 28.963,35.151 28.819,35.87 C30.321,35.957 31.817,36.079 33.304,36.23 C33.716,35.55 34.106,34.843 34.454,34.084 C32.719,33.894 30.971,33.743 29.213,33.636 Z" id="Shape"></path>
                    <path d="M9.971,34.208 C10.28,34.951 10.617,35.666 10.982,36.353 C11.376,36.307 11.775,36.28 12.171,36.24 C11.788,35.554 11.443,34.826 11.121,34.074 C10.736,34.115 10.354,34.161 9.971,34.208 Z" id="Shape"></path>
                    <path d="M34.538,36.362 C34.931,36.408 35.327,36.439 35.717,36.488 C36.091,35.808 36.435,35.095 36.753,34.355 C36.374,34.304 35.995,34.256 35.614,34.21 C35.282,34.958 34.93,35.682 34.538,36.362 Z" id="Shape"></path>
                    <path d="M34.455,34.085 C34.107,34.844 33.717,35.551 33.305,36.231 C33.717,36.273 34.129,36.316 34.538,36.362 C34.93,35.682 35.282,34.959 35.613,34.211 C35.229,34.162 34.841,34.128 34.455,34.085 Z" id="Shape"></path>
                    <path d="M11.121,34.073 C11.443,34.825 11.788,35.553 12.171,36.239 C12.581,36.196 12.991,36.158 13.402,36.12 C12.999,35.437 12.622,34.721 12.284,33.961 C11.897,34 11.507,34.03 11.121,34.073 Z" id="Shape"></path>
                    <path d="M23.371,33.425 C22.185,33.418 21.003,33.444 19.821,33.476 C19.94,34.267 20.068,35.023 20.208,35.727 C21.258,35.702 22.307,35.675 23.36,35.681 C24.413,35.687 25.464,35.724 26.514,35.761 C26.664,35.062 26.806,34.316 26.935,33.515 C25.749,33.471 24.562,33.432 23.371,33.425 Z" id="Shape"></path>
                    <path d="M17.546,33.571 C17.656,34.34 17.782,35.086 17.918,35.808 C18.298,35.791 18.674,35.76 19.055,35.747 C18.917,35.036 18.792,34.288 18.677,33.509 C18.299,33.524 17.924,33.552 17.546,33.571 Z" id="Shape"></path>
                    <path d="M29.213,33.636 C28.83,33.614 28.448,33.579 28.064,33.562 C27.941,34.338 27.808,35.085 27.663,35.794 C28.049,35.814 28.434,35.849 28.82,35.87 C28.963,35.151 29.096,34.406 29.213,33.636 Z" id="Shape"></path>
                    <path d="M18.677,33.509 C18.792,34.288 18.917,35.036 19.055,35.747 C19.438,35.732 19.824,35.734 20.208,35.726 C20.068,35.022 19.94,34.266 19.821,33.475 C19.439,33.488 19.058,33.494 18.677,33.509 Z" id="Shape"></path>
                    <path d="M26.935,33.515 C26.806,34.316 26.664,35.062 26.514,35.761 C26.896,35.775 27.281,35.778 27.663,35.794 C27.809,35.085 27.942,34.338 28.064,33.562 C27.688,33.542 27.312,33.531 26.935,33.515 Z" id="Shape"></path>
                    <path d="M45.901,22.937 C45.909,22.884 45.932,22.838 45.932,22.785 C45.932,22.721 45.912,22.662 45.903,22.6 C45.903,22.662 45.91,22.723 45.909,22.785 C45.91,22.835 45.902,22.886 45.901,22.937 Z" id="Shape"></path>
                    <path d="M43.613,21.643 L39.07,21.618 C39.081,21.994 39.101,22.368 39.098,22.747 C39.096,23.129 39.067,23.499 39.053,23.874 L43.591,23.899 C43.613,23.525 43.651,23.154 43.653,22.774 C43.656,22.394 43.632,22.019 43.613,21.643 Z" id="Shape"></path>
                    <path d="M7.761,22.575 C7.763,22.194 7.792,21.822 7.807,21.445 L3.272,21.421 C3.249,21.797 3.21,22.169 3.209,22.55 C3.206,22.928 3.231,23.303 3.25,23.677 L7.791,23.701 C7.778,23.327 7.759,22.954 7.761,22.575 Z" id="Shape"></path>
                    <path d="M45.12,21.696 C45.021,21.668 44.919,21.652 44.811,21.65 L44.732,21.65 C44.75,22.027 44.785,22.399 44.782,22.781 C44.78,23.16 44.741,23.53 44.719,23.906 L44.8,23.906 C45.369,23.91 45.82,23.484 45.901,22.937 C45.901,22.886 45.909,22.835 45.909,22.785 C45.909,22.723 45.903,22.662 45.903,22.6 C45.833,22.169 45.533,21.815 45.12,21.696 Z" id="Shape"></path>
                    <path d="M2.144,21.415 L2.109,21.415 C1.485,21.411 0.978,21.915 0.973,22.538 C0.972,23.162 1.472,23.669 2.098,23.671 L2.131,23.671 C2.113,23.296 2.078,22.926 2.08,22.545 C2.083,22.164 2.122,21.791 2.144,21.415 Z" id="Shape"></path>
                    <path d="M3.208,22.549 C3.209,22.168 3.249,21.796 3.271,21.42 L2.143,21.414 C2.121,21.79 2.081,22.163 2.079,22.544 C2.077,22.925 2.112,23.295 2.13,23.67 L3.248,23.676 C3.23,23.302 3.206,22.927 3.208,22.549 Z" id="Shape"></path>
                    <path d="M43.654,22.774 C43.652,23.154 43.613,23.525 43.592,23.899 L44.72,23.906 C44.742,23.53 44.781,23.16 44.783,22.781 C44.785,22.399 44.75,22.027 44.733,21.65 L43.614,21.643 C43.632,22.019 43.656,22.394 43.654,22.774 Z" id="Shape"></path>
                    <path d="M16.855,21.496 L10.061,21.459 C10.046,21.835 10.019,22.207 10.017,22.587 C10.016,22.967 10.033,23.34 10.045,23.714 L16.848,23.752 C16.845,23.376 16.839,22.999 16.841,22.626 C16.843,22.25 16.849,21.873 16.855,21.496 Z" id="Shape"></path>
                    <path d="M30.021,22.698 C30.018,23.072 30.014,23.448 30.006,23.825 L36.798,23.862 C36.815,23.488 36.84,23.116 36.842,22.736 C36.844,22.356 36.827,21.982 36.816,21.606 L30.014,21.569 C30.018,21.945 30.023,22.324 30.021,22.698 Z" id="Shape"></path>
                    <path d="M8.89,22.582 C8.892,22.201 8.92,21.829 8.935,21.452 L7.807,21.445 C7.792,21.822 7.763,22.194 7.761,22.575 C7.759,22.954 7.779,23.327 7.79,23.701 L8.924,23.708 C8.912,23.333 8.888,22.962 8.89,22.582 Z" id="Shape"></path>
                    <path d="M37.972,22.744 C37.97,23.123 37.943,23.493 37.928,23.869 L39.054,23.874 C39.069,23.499 39.097,23.129 39.099,22.747 C39.101,22.368 39.081,21.994 39.071,21.618 L37.94,21.613 C37.951,21.989 37.974,22.361 37.972,22.744 Z" id="Shape"></path>
                    <path d="M36.843,22.736 C36.841,23.116 36.816,23.488 36.799,23.862 L37.927,23.869 C37.943,23.493 37.969,23.123 37.971,22.744 C37.973,22.361 37.95,21.989 37.939,21.613 L36.816,21.606 C36.828,21.982 36.845,22.356 36.843,22.736 Z" id="Shape"></path>
                    <path d="M10.017,22.586 C10.019,22.206 10.046,21.834 10.061,21.458 L8.935,21.451 C8.92,21.828 8.893,22.2 8.89,22.581 C8.887,22.962 8.911,23.333 8.923,23.707 L10.044,23.713 C10.032,23.339 10.015,22.966 10.017,22.586 Z" id="Shape"></path>
                    <path d="M27.757,21.555 L19.119,21.508 C19.113,21.885 19.099,22.25 19.097,22.638 C19.095,23.021 19.103,23.389 19.106,23.763 L27.744,23.811 C27.751,23.435 27.763,23.072 27.765,22.685 C27.767,22.301 27.76,21.932 27.757,21.555 Z" id="Shape"></path>
                    <path d="M30.015,21.569 L28.884,21.562 C28.887,21.939 28.895,22.31 28.893,22.692 C28.891,23.072 28.88,23.443 28.872,23.818 L30.008,23.825 C30.016,23.448 30.02,23.072 30.023,22.698 C30.023,22.324 30.018,21.945 30.015,21.569 Z" id="Shape"></path>
                    <path d="M17.991,21.502 L16.856,21.495 C16.849,21.872 16.843,22.25 16.841,22.625 C16.839,22.998 16.845,23.375 16.848,23.751 L17.979,23.758 C17.976,23.382 17.968,23.012 17.97,22.632 C17.972,22.251 17.984,21.878 17.991,21.502 Z" id="Shape"></path>
                    <path d="M28.883,21.562 L27.757,21.555 C27.76,21.932 27.767,22.301 27.765,22.685 C27.763,23.072 27.751,23.435 27.744,23.811 L28.871,23.818 C28.879,23.443 28.89,23.072 28.892,22.692 C28.895,22.31 28.887,21.939 28.883,21.562 Z" id="Shape"></path>
                    <path d="M19.119,21.508 L17.991,21.502 C17.985,21.878 17.972,22.251 17.97,22.632 C17.968,23.012 17.976,23.382 17.979,23.758 L19.106,23.763 C19.103,23.389 19.095,23.021 19.097,22.638 C19.099,22.25 19.112,21.885 19.119,21.508 Z" id="Shape"></path>
                </g>
                <rect id="Rectangle-path" stroke="#0E3C54" stroke-width="2" fill="#FFFFFF" x="7.344" y="65.104" width="45.717" height="11.207"></rect>
                <path d="M6.53,82.791 C11.321,82.924 42.959,82.791 42.959,82.791" id="Shape" stroke="#0E3C54" stroke-width="2" fill="#FFFFFF"></path>
                <path d="M44.951,82.791 C46.017,82.924 53.06,82.791 53.06,82.791" id="Shape" stroke="#0E3C54" stroke-width="2" fill="#FFFFFF"></path>
            </g>
            <g id="video" transform="translate(234.000000, 76.000000)" data-elvn="scaleT, in, 3000, 300, backout" class="elvn-layer">
                <rect id="Rectangle-path" stroke="#0E3C54" stroke-width="2" fill="#FFFFFF" fill-rule="nonzero" x="0.254" y="0.948" width="58.322" height="87.835"></rect>
                <rect id="Rectangle-path" stroke="#45566B" stroke-width="2" fill="#FF1294" fill-rule="nonzero" x="0.254" y="58.523" width="58.322" height="30.26"></rect>
                <rect id="Rectangle-path" stroke="#0E3C54" stroke-width="2" fill="#FFFFFF" fill-rule="nonzero" x="7.316" y="65.105" width="45.717" height="11.207"></rect>
                <path d="M6.502,82.793 C11.293,82.926 42.932,82.793 42.932,82.793" id="Shape" stroke="#0E3C54" stroke-width="2" fill="#FFFFFF" fill-rule="nonzero"></path>
                <path d="M6.502,8.056 C12.622,8.188 53.033,8.056 53.033,8.056" id="Shape" stroke="#0E3C54" stroke-width="2" fill="#FFFFFF" fill-rule="nonzero"></path>
                <path d="M44.924,82.793 C45.99,82.926 53.033,82.793 53.033,82.793" id="Shape" stroke="#0E3C54" stroke-width="2" fill="#FFFFFF" fill-rule="nonzero"></path>
                <rect id="Rectangle-path" stroke="#44566B" stroke-width="2" fill="#77C04B" fill-rule="nonzero" x="9.982" y="15.618" width="40.42" height="24.257"></rect>
                <g id="Group" transform="translate(23.000000, 21.000000)">
                    <path d="M0.981,11.918 C0.981,13.018 1.76,13.467 2.712,12.918 L11.669,7.748 C12.622,7.197 12.622,6.297 11.669,5.748 L2.712,0.576 C1.76,0.026 0.981,0.475 0.981,1.576 L0.981,11.918 Z" id="Shape" fill="#FFFFFF" fill-rule="nonzero"></path>
                    <path d="M0.981,11.918 C0.981,13.018 1.76,13.467 2.712,12.918 L11.669,7.748 C12.622,7.197 12.622,6.297 11.669,5.748 L2.712,0.576 C1.76,0.026 0.981,0.475 0.981,1.576 L0.981,11.918 Z" id="Shape" stroke="#0E3C54" stroke-width="2"></path>
                </g>
                <path d="M51.846,48.006 L8.584,48.006" id="Shape" stroke="#44566B" stroke-width="2" fill="#FFCC0A" fill-rule="nonzero"></path>
                <circle id="Oval" stroke="#0E3C54" stroke-width="2" fill="#FFFFFF" fill-rule="nonzero" cx="36.401" cy="47.725" r="3.458"></circle>
            </g>
            <g id="mail" transform="translate(0.000000, 8.000000)" stroke-width="2" data-elvn="scaleB, in, 1800, 300, backout" class="elvn-layer">
                <rect id="Rectangle-path" stroke="#44566B" fill="#77C04B" fill-rule="nonzero" x="0.812" y="0.192" width="57.616" height="34.016"></rect>
                <rect id="Rectangle-path" stroke="#43566B" fill="#FFFFFF" fill-rule="nonzero" x="0.812" y="8.522" width="12.571" height="17.354"></rect>
                <path d="M20.187,10.835 L50.147,10.835" id="Shape" stroke="#43566B"></path>
                <path d="M20.187,17.201 L50.147,17.201" id="Shape" stroke="#43566B"></path>
                <path d="M20.187,23.564 L45.16,23.564" id="Shape" stroke="#43566B"></path>
            </g>
            <path d="M94.17,150.609 C81.907,137.261 74.722,119.248 75.547,99.749 C77.195,60.757 110.259,30.374 149.255,32.022 C160.078,32.48 170.239,35.358 179.235,40.112 M200.793,57.663 C211.564,70.677 217.751,87.56 216.984,105.731 C215.334,144.723 182.269,175.106 143.275,173.456 C134.136,173.071 125.47,170.956 117.579,167.448" id="Shape" stroke="#0E3C54" stroke-width="2" fill="none" fill-rule="nonzero" stroke-dasharray="2" data-elvn="scaleC, in, 900, 300, linear" class="elvn-layer"></path>
            <g id="arrows" transform="translate(88.000000, 44.000000)" stroke-width="2" fill-rule="nonzero"  data-elvn="stamp, in, 0, 300, backout" class="elvn-layer">
                <g id="Group">
                    <path d="M19.702,102.268 C22.182,100.301 24.684,98.362 27.097,96.336 C29.621,94.217 32.19,91.981 34.521,89.537 C25.304,82.414 19.351,71.262 19.351,58.74 C19.351,37.284 36.808,19.825 58.265,19.825 C70.285,19.825 81.049,25.306 88.192,33.898 C92.598,28.964 96.934,24.003 100.048,18.296 C89.462,7.362 74.649,0.547 58.264,0.547 C26.177,0.547 0.072,26.65 0.072,58.739 C0.073,76.045 7.674,91.6 19.702,102.268 Z" id="Shape" stroke="#44566B" fill="#77C04B"></path>
                    <path d="M100.761,19.044 C97.58,24.742 93.213,29.707 88.798,34.658 C94.039,41.289 97.179,49.652 97.179,58.74 C97.179,80.195 79.722,97.654 58.265,97.654 C49.69,97.654 41.759,94.859 35.321,90.142 C33.132,92.453 30.735,94.581 28.348,96.585 C25.775,98.745 23.099,100.814 20.452,102.915 C30.631,111.642 43.838,116.931 58.265,116.931 C90.351,116.931 116.457,90.827 116.457,58.74 C116.457,43.407 110.486,29.45 100.761,19.044 Z" id="Shape" stroke="#45566B" fill="#FF1294"></path>
                </g>
                <path d="M76.892,24.58 L66.573,33.482 C66.676,33.546 66.788,33.599 66.909,33.633 L104.528,44.386 C104.952,44.508 105.409,44.407 105.742,44.12 C106.076,43.831 106.243,43.393 106.184,42.958 L101.079,4.162 C101.06,4.035 101.026,3.919 100.976,3.805 L92.125,11.441" id="Shape" stroke="#44566B" fill="#77C04B"></path>
                <path d="M41.671,94.018 L51.989,85.116 C51.886,85.052 51.773,84.997 51.653,84.964 L14.035,74.212 C13.611,74.091 13.154,74.192 12.821,74.478 C12.485,74.769 12.32,75.203 12.379,75.64 L17.484,114.437 C17.502,114.562 17.537,114.679 17.584,114.792 L26.437,107.157" id="Shape" stroke="#45566B" fill="#FF1294"></path>
            </g>
            <g id="check" transform="translate(84.000000, 42.000000)" fill-rule="nonzero" stroke-width="2" data-elvn="stamp, in, 600, 300, backout" class="elvn-layer">
                <polygon id="Shape" stroke="#0E3C54" fill="#FFFFFF" points="42.132 41.552 21.115 57.23 0.099 41.552 0.099 20.534 0.099 7.357 21.115 0.246 42.132 7.357 42.132 20.534"></polygon>
                <path d="M20.874,42.695 C20.006,42.695 19.159,42.384 18.486,41.813 L9.103,33.829 C7.552,32.51 7.366,30.183 8.685,28.637 C10.003,27.088 12.329,26.9 13.878,28.218 L19.887,33.33 L29.177,17.15 C30.19,15.384 32.441,14.781 34.206,15.789 C35.969,16.804 36.58,19.055 35.566,20.821 L24.069,40.842 C23.524,41.793 22.583,42.451 21.507,42.64 C21.295,42.676 21.084,42.695 20.874,42.695 Z" id="Shape" stroke="#45566B" fill="#FF1294"></path>
            </g>
            <g id="cross" transform="translate(164.000000, 108.000000)" fill-rule="nonzero" stroke-width="2"  data-elvn="stamp, in, 300, 300, backout" class="elvn-layer">
                <polygon id="Shape" stroke="#0E3C54" fill="#FFFFFF" points="42.637 41.941 21.62 57.619 0.604 41.941 0.604 20.922 0.604 7.744 21.62 0.635 42.637 7.744 42.637 20.922"></polygon>
                <path d="M32.85,32.596 L27.311,27.055 L32.85,21.518 C33.428,20.94 33.428,19.989 32.85,19.411 L29.683,16.245 C29.104,15.667 28.157,15.667 27.576,16.245 L22.039,21.784 L16.501,16.245 C15.922,15.667 14.974,15.667 14.39,16.245 L11.228,19.411 C10.647,19.989 10.647,20.94 11.228,21.522 L16.766,27.061 L11.228,32.596 C10.647,33.174 10.647,34.121 11.228,34.705 L14.39,37.867 C14.97,38.447 15.919,38.447 16.501,37.867 L22.039,32.33 L27.576,37.867 C28.157,38.447 29.104,38.447 29.683,37.867 L32.85,34.705 C33.428,34.121 33.428,33.174 32.85,32.596 Z" id="Shape" stroke="#44566B" fill="#77C04B"></path>
            </g>
            <g id="html5" transform="translate(73.000000, 0.000000)" data-elvn="scaleL, in, 2100, 300, backout" class="elvn-layer">
                <rect id="Rectangle-path" stroke="#0E3C54" stroke-width="2" fill="#FFFFFF" fill-rule="nonzero" stroke-linecap="round" stroke-linejoin="round" x="0.771" y="0.748" width="52.361" height="19.694"></rect>
                <path d="M10.3179798,6.91315356 L11.3745155,6.91315356 L11.3745155,10.1037862 L15.3904024,10.1037862 L15.3904024,6.91315356 L16.4469381,6.91315356 L16.4469381,14.6348 L15.3904024,14.6348 L15.3904024,11.0236556 L11.3745155,11.0236556 L11.3745155,14.6348 L10.3179798,14.6348 L10.3179798,6.91315356 Z M23.6849961,6.91315356 L23.6849961,7.83302295 L21.0830798,7.83302295 L21.0830798,14.6348 L20.0212877,14.6348 L20.0212877,7.83302295 L17.4193715,7.83302295 L17.4193715,6.91315356 L23.6849961,6.91315356 Z M24.6153783,6.91315356 L26.1134513,6.91315356 L28.3316506,13.441598 L30.5340807,6.91315356 L32.0163845,6.91315356 L32.0163845,14.6348 L31.0229256,14.6348 L31.0229256,10.0775042 C31.0229256,9.91981157 31.0264298,9.65874648 31.0334384,9.29430117 C31.0404469,8.92985586 31.0439512,8.5391343 31.0439512,8.12212476 L28.841521,14.6348 L27.8060109,14.6348 L25.5878116,8.12212476 L25.5878116,8.3586626 C25.5878116,8.54789382 25.5921919,8.83611668 25.6009526,9.22333982 C25.6097133,9.61056296 25.6140936,9.89528159 25.6140936,10.0775042 L25.6140936,14.6348 L24.6153783,14.6348 L24.6153783,6.91315356 Z M33.6090727,6.91315356 L34.6550956,6.91315356 L34.6550956,13.7149306 L38.5658545,13.7149306 L38.5658545,14.6348 L33.6090727,14.6348 L33.6090727,6.91315356 Z M40.1059787,12.7162153 C40.1690558,13.2558747 40.4196082,13.6290751 40.8576434,13.8358277 C41.0819174,13.9409562 41.3412304,13.9935196 41.6355901,13.9935196 C42.1962752,13.9935196 42.6115264,13.8148039 42.8813561,13.4573672 C43.1511858,13.0999304 43.2860986,12.7039525 43.2860986,12.2694216 C43.2860986,11.7437793 43.1257801,11.3372887 42.8051383,11.0499376 C42.4844965,10.7625865 42.0999074,10.6189131 41.6513593,10.6189131 C41.3254611,10.6189131 41.0459988,10.6819892 40.812964,10.8081434 C40.5799293,10.9342975 40.3810643,11.109509 40.216363,11.333783 L39.3963652,11.2864754 L39.9693124,7.23379375 L43.8800714,7.23379375 L43.8800714,8.14840674 L40.6789259,8.14840674 L40.3582857,10.2404525 C40.5334998,10.1072898 40.6999507,10.0074193 40.8576434,9.94083794 C41.137986,9.82519664 41.4621272,9.76737686 41.8300768,9.76737686 C42.5204203,9.76737686 43.1056266,9.98989541 43.5857132,10.4349392 C44.0657998,10.879983 44.3058395,11.4441639 44.3058395,12.1274989 C44.3058395,12.8388681 44.0859491,13.4661251 43.6461617,14.0092888 C43.2063744,14.5524525 42.5046525,14.8240303 41.540975,14.8240303 C40.9277256,14.8240303 40.3854461,14.651447 39.9141202,14.3062752 C39.4427943,13.9611035 39.1791011,13.4310888 39.1230326,12.7162153 L40.1059787,12.7162153 Z" id="HTML5" fill="#000000"></path>
            </g>
            <g id="online" transform="translate(20.000000, 155.000000)" data-elvn="scaleB, in, 1200, 300, backout" class="elvn-layer">
                <rect id="Rectangle-path" stroke="#0E3C54" stroke-width="2" fill="#FFFFFF" fill-rule="nonzero" stroke-linecap="round" stroke-linejoin="round" x="0.759" y="0.764" width="52.361" height="19.693"></rect>
                <path d="M15.6392376,8.03259683 C16.1508627,8.71593179 16.4066715,9.59023699 16.4066715,10.6555387 C16.4066715,11.8084474 16.1140683,12.7668541 15.5288533,13.5307875 C14.842014,14.4278837 13.8625819,14.876425 12.5905276,14.876425 C11.4025761,14.876425 10.468699,14.4839514 9.78886831,13.6989922 C9.18262755,12.9420674 8.87951172,11.9854128 8.87951172,10.8289998 C8.87951172,9.78472377 9.13882469,8.8911453 9.6574584,8.14823755 C10.3232719,7.19507289 11.3079604,6.71849771 12.6115532,6.71849771 C13.9747189,6.71849771 14.9839369,7.15652637 15.6392376,8.03259683 Z M14.71674,12.9499557 C15.1284931,12.2893986 15.3343666,11.5298569 15.3343666,10.6713079 C15.3343666,9.76369886 15.0969551,9.03306706 14.6221249,8.47939053 C14.1472947,7.925714 13.4981362,7.64887988 12.67463,7.64887988 C11.8756537,7.64887988 11.2238671,7.92308582 10.7192505,8.47150593 C10.2146339,9.01992604 9.96232939,9.82852695 9.96232939,10.8973329 C9.96232939,11.7523777 10.1787156,12.4733729 10.6114944,13.0603401 C11.0442732,13.6473073 11.7459951,13.9407865 12.7166812,13.9407865 C13.6383073,13.9407865 14.3049869,13.6105129 14.71674,12.9499557 Z M17.6524375,6.92875356 L18.8876906,6.92875356 L22.7879368,13.1838654 L22.7879368,6.92875356 L23.7813958,6.92875356 L23.7813958,14.6504 L22.6092193,14.6504 L18.6511528,8.40054458 L18.6511528,14.6504 L17.6524375,14.6504 L17.6524375,6.92875356 Z M25.4266479,6.92875356 L26.4726708,6.92875356 L26.4726708,13.7305306 L30.3834297,13.7305306 L30.3834297,14.6504 L25.4266479,14.6504 L25.4266479,6.92875356 Z M31.6502213,6.92875356 L32.706757,6.92875356 L32.706757,14.6504 L31.6502213,14.6504 L31.6502213,6.92875356 Z M34.404573,6.92875356 L35.6398262,6.92875356 L39.5400724,13.1838654 L39.5400724,6.92875356 L40.5335313,6.92875356 L40.5335313,14.6504 L39.3613549,14.6504 L35.4032884,8.40054458 L35.4032884,14.6504 L34.404573,14.6504 L34.404573,6.92875356 Z M42.278655,6.92875356 L47.9082556,6.92875356 L47.9082556,7.87490493 L43.2983959,7.87490493 L43.2983959,10.2192578 L47.5613334,10.2192578 L47.5613334,11.1128452 L43.2983959,11.1128452 L43.2983959,13.7305306 L47.9871016,13.7305306 L47.9871016,14.6504 L42.278655,14.6504 L42.278655,6.92875356 Z" id="ONLINE" fill="#000000"></path>
            </g>
            <g id="http" transform="translate(169.000000, 0.000000)" data-elvn="scaleL, in, 2400, 300, backout" class="elvn-layer">
                <rect id="Rectangle-path" stroke="#0E3C54" stroke-width="2" fill="#FFFFFF" fill-rule="nonzero" stroke-linecap="round" stroke-linejoin="round" x="0.489" y="0.748" width="52.361" height="19.694"></rect>
                <path d="M8.87657983,6.33885356 L9.93311553,6.33885356 L9.93311553,9.52948623 L13.9490024,9.52948623 L13.9490024,6.33885356 L15.0055381,6.33885356 L15.0055381,14.0605 L13.9490024,14.0605 L13.9490024,10.4493556 L9.93311553,10.4493556 L9.93311553,14.0605 L8.87657983,14.0605 L8.87657983,6.33885356 Z M22.2435961,6.33885356 L22.2435961,7.25872295 L19.6416798,7.25872295 L19.6416798,14.0605 L18.5798877,14.0605 L18.5798877,7.25872295 L15.9779715,7.25872295 L15.9779715,6.33885356 L22.2435961,6.33885356 Z M28.8193481,6.33885356 L28.8193481,7.25872295 L26.2174318,7.25872295 L26.2174318,14.0605 L25.1556397,14.0605 L25.1556397,7.25872295 L22.5537235,7.25872295 L22.5537235,6.33885356 L28.8193481,6.33885356 Z M29.8758838,6.33885356 L33.3503619,6.33885356 C34.0372011,6.33885356 34.5908693,6.53246223 35.0113832,6.91968538 C35.431897,7.30690852 35.6421507,7.85094012 35.6421507,8.55179648 C35.6421507,9.15453296 35.4546745,9.6792913 35.0797163,10.1260872 C34.7047582,10.5728832 34.1283124,10.7962778 33.3503619,10.7962778 L30.9219067,10.7962778 L30.9219067,14.0605 L29.8758838,14.0605 L29.8758838,6.33885356 Z M33.9548475,7.40064565 C33.7235649,7.29201292 33.4064321,7.23769736 33.0034397,7.23769736 L30.9219067,7.23769736 L30.9219067,9.91320317 L33.0034397,9.91320317 C33.4730135,9.91320317 33.8540984,9.81333264 34.1467059,9.61358857 C34.4393135,9.41384451 34.585615,9.06166947 34.585615,8.55705288 C34.585615,7.98935922 34.3753613,7.603894 33.9548475,7.40064565 Z M37.329454,8.50448892 L38.4280409,8.50448892 L38.4280409,9.65038335 L37.329454,9.65038335 L37.329454,8.50448892 Z M37.329454,12.9146056 L38.4280409,12.9146056 L38.4280409,14.0605 L37.329454,14.0605 L37.329454,12.9146056 Z M41.5766224,6.33885356 L42.3755946,6.33885356 L39.9261139,14.0605 L39.1271416,14.0605 L41.5766224,6.33885356 Z M44.567512,6.33885356 L45.3664842,6.33885356 L42.9170035,14.0605 L42.1180312,14.0605 L44.567512,6.33885356 Z" id="HTTP://" fill="#000000"></path>
            </g>
        </g>
    </g>
</svg>
