<svg class="enliven" version="1.1" id="Layer_5" xmlns="http://www.w3.org/2000/svg" xmlns:xlink="http://www.w3.org/1999/xlink" x="0px" y="0px" viewBox="0 0 295 217" enable-background="new 0 0 295 217" xml:space="preserve" data-global-elvn="enableViewport, disableClick, none, startInvisible, notResponsive, 500, notLoop, 500">
    <g id="Page-1" xmlns="http://www.w3.org/2000/svg">
        <g id="m_20" transform="translate(0.000000, 1.000000)">
            <g id="ipad" transform="translate(95.000000, 28.000000)" data-elvn="stamp, in, 0, 300, backout" class="elvn-layer">
                <path id="Shape" fill="#FFFFFF" stroke="#0E3C54" stroke-width="2" d="M109.086,12.819c0-6.823-5.58-12.403-12.41-12.403H12.703
                    c-6.828,0-12.41,5.58-12.41,12.403v132.329c0,6.791,5.52,12.344,12.296,12.408h84.198c6.779-0.064,12.299-5.617,12.299-12.408
                    V12.819L109.086,12.819z"></path>
                <polygon id="Shape_1_" fill="#F8D383" stroke="#0E3C54" stroke-width="2" points="40.607,22.586 105.262,22.586 105.262,59.819
                    105.262,97.062 105.033,134.297 40.607,134.297 4.143,134.297 4.143,97.062 4.143,59.819 4.143,22.586 			"></polygon>
                <path id="Shape_2_" fill="#FFFFFF" stroke="#0E3C54" stroke-width="2" d="M45.674,14.398c0,0.984,0.8,1.789,1.792,1.789h15.442
                    c0.988,0,1.787-0.805,1.787-1.789l0,0c0-0.992-0.799-1.791-1.787-1.791H47.466C46.474,12.607,45.674,13.406,45.674,14.398
                    L45.674,14.398z"></path>
                <path id="Shape_3_" fill="#FFFFFF" stroke="#0E3C54" stroke-width="2" d="M49.089,146.172c0,3.1,2.514,5.611,5.612,5.611
                    c3.104,0,5.615-2.512,5.615-5.611c0-3.096-2.512-5.611-5.615-5.611C51.603,140.561,49.089,143.076,49.089,146.172z"></path>
                <path id="Shape_4_" fill="#86D4E9" stroke="#0E3C54" stroke-width="2" stroke-linecap="round" stroke-linejoin="round" d="
                    M52.725,77.5V54.111h-0.004c-12.917,0-23.381,10.469-23.381,23.383c0,6.471,2.627,12.326,6.874,16.559L52.764,77.5H52.725z"></path>
                <path id="Shape_5_" fill="#E99486" stroke="#0E3C54" stroke-width="2" d="M38.341,97.191c4.232,4.217,10.064,6.824,16.51,6.824
                    c12.912,0,23.381-10.463,23.383-23.375h-23.34L38.341,97.191z"></path>
                <path id="Shape_6_" fill="#B8E986" stroke="#0E3C54" stroke-width="2" stroke-linecap="round" stroke-linejoin="round" d="
                    M56.197,53.953v23.389h23.381v-0.006C79.578,64.424,69.109,53.959,56.197,53.953z"></path>
                <path id="_x33_3_x25_" d="M76.945,48.572c-0.407-0.495-0.61-1.098-0.61-1.809h1.002c0.043,0.494,0.135,0.852,0.277,1.076
                    c0.249,0.401,0.698,0.602,1.348,0.602c0.504,0,0.909-0.135,1.215-0.405c0.305-0.27,0.458-0.618,0.458-1.044
                    c0-0.526-0.161-0.893-0.482-1.103s-0.768-0.314-1.34-0.314c-0.064,0-0.129,0.001-0.194,0.003s-0.132,0.004-0.2,0.008v-0.847
                    c0.099,0.011,0.183,0.018,0.25,0.021c0.067,0.004,0.14,0.005,0.218,0.005c0.359,0,0.654-0.057,0.884-0.17
                    c0.405-0.199,0.607-0.554,0.607-1.066c0-0.38-0.135-0.673-0.405-0.879s-0.584-0.309-0.943-0.309
                    c-0.639,0-1.082,0.213-1.327,0.639c-0.135,0.234-0.211,0.568-0.229,1.002h-0.948c0-0.568,0.114-1.051,0.341-1.449
                    c0.391-0.71,1.078-1.066,2.062-1.066c0.778,0,1.38,0.173,1.806,0.519c0.426,0.346,0.639,0.848,0.639,1.505
                    c0,0.469-0.126,0.849-0.378,1.14c-0.156,0.181-0.359,0.323-0.607,0.426c0.401,0.11,0.715,0.322,0.94,0.637
                    c0.226,0.314,0.338,0.699,0.338,1.153c0,0.728-0.24,1.321-0.719,1.779c-0.479,0.458-1.16,0.687-2.041,0.687
                    C78.006,49.315,77.352,49.067,76.945,48.572z M83.014,48.572c-0.407-0.495-0.61-1.098-0.61-1.809h1.002
                    c0.043,0.494,0.135,0.852,0.277,1.076c0.249,0.401,0.698,0.602,1.348,0.602c0.504,0,0.909-0.135,1.215-0.405
                    c0.305-0.27,0.458-0.618,0.458-1.044c0-0.526-0.161-0.893-0.482-1.103s-0.768-0.314-1.34-0.314c-0.064,0-0.129,0.001-0.194,0.003
                    s-0.132,0.004-0.2,0.008v-0.847c0.099,0.011,0.183,0.018,0.25,0.021c0.067,0.004,0.14,0.005,0.218,0.005
                    c0.359,0,0.654-0.057,0.884-0.17c0.405-0.199,0.607-0.554,0.607-1.066c0-0.38-0.135-0.673-0.405-0.879s-0.584-0.309-0.943-0.309
                    c-0.639,0-1.082,0.213-1.327,0.639c-0.135,0.234-0.211,0.568-0.229,1.002h-0.948c0-0.568,0.114-1.051,0.341-1.449
                    c0.391-0.71,1.078-1.066,2.062-1.066c0.778,0,1.38,0.173,1.806,0.519c0.426,0.346,0.639,0.848,0.639,1.505
                    c0,0.469-0.126,0.849-0.378,1.14c-0.156,0.181-0.359,0.323-0.607,0.426c0.401,0.11,0.715,0.322,0.94,0.637
                    c0.226,0.314,0.338,0.699,0.338,1.153c0,0.728-0.24,1.321-0.719,1.779c-0.479,0.458-1.16,0.687-2.041,0.687
                    C84.075,49.315,83.42,49.067,83.014,48.572z M96.959,45.943c0.362,0.362,0.543,0.799,0.543,1.311
                    c0,0.511-0.181,0.948-0.543,1.311c-0.362,0.362-0.799,0.543-1.311,0.543c-0.515,0-0.954-0.181-1.316-0.543
                    c-0.362-0.362-0.543-0.799-0.543-1.311c0-0.511,0.181-0.948,0.543-1.311c0.362-0.362,0.801-0.543,1.316-0.543
                    C96.16,45.399,96.597,45.58,96.959,45.943z M94.876,41.51h0.591l-4.268,7.8h-0.591L94.876,41.51z M91.197,44.342
                    c0.215-0.215,0.322-0.473,0.322-0.775s-0.107-0.56-0.322-0.775s-0.475-0.322-0.781-0.322c-0.302,0-0.56,0.107-0.775,0.32
                    c-0.215,0.213-0.322,0.472-0.322,0.778c0,0.302,0.107,0.56,0.322,0.775c0.215,0.215,0.473,0.322,0.775,0.322
                    C90.722,44.664,90.982,44.557,91.197,44.342z M91.733,42.253c0.362,0.364,0.543,0.802,0.543,1.313s-0.181,0.948-0.543,1.311
                    c-0.362,0.362-0.801,0.543-1.316,0.543c-0.511,0-0.948-0.181-1.311-0.543s-0.543-0.799-0.543-1.311s0.181-0.949,0.543-1.313
                    s0.799-0.546,1.311-0.546C90.932,41.707,91.37,41.889,91.733,42.253z M96.424,48.029c0.215-0.215,0.322-0.473,0.322-0.775
                    c0-0.302-0.107-0.56-0.322-0.775c-0.215-0.215-0.473-0.322-0.775-0.322c-0.305,0-0.566,0.107-0.781,0.322
                    c-0.215,0.215-0.322,0.473-0.322,0.775c0,0.302,0.107,0.56,0.322,0.775c0.215,0.215,0.475,0.322,0.781,0.322
                    C95.95,48.351,96.209,48.243,96.424,48.029z"></path>
                <path id="_x35_2_x25_" d="M75.422,113.349c0.064,0.547,0.318,0.925,0.762,1.135c0.227,0.107,0.49,0.16,0.789,0.16
                    c0.568,0,0.989-0.181,1.263-0.543c0.273-0.362,0.41-0.764,0.41-1.204c0-0.533-0.162-0.945-0.487-1.236
                    c-0.325-0.291-0.715-0.437-1.169-0.437c-0.33,0-0.614,0.064-0.85,0.192s-0.438,0.305-0.605,0.533l-0.831-0.048l0.581-4.108h3.964
                    v0.927h-3.245l-0.325,2.12c0.178-0.135,0.346-0.236,0.506-0.304c0.284-0.117,0.613-0.176,0.986-0.176
                    c0.7,0,1.293,0.226,1.779,0.677c0.487,0.451,0.73,1.023,0.73,1.716c0,0.721-0.223,1.357-0.669,1.907
                    c-0.446,0.551-1.157,0.826-2.134,0.826c-0.622,0-1.171-0.175-1.649-0.525c-0.478-0.35-0.745-0.887-0.802-1.612H75.422z
                     M80.891,113.578c0.236-0.487,0.697-0.929,1.383-1.327l1.023-0.591c0.458-0.266,0.78-0.494,0.964-0.682
                    c0.291-0.295,0.437-0.632,0.437-1.012c0-0.444-0.133-0.797-0.4-1.058c-0.266-0.261-0.622-0.392-1.066-0.392
                    c-0.657,0-1.112,0.249-1.364,0.746c-0.135,0.266-0.21,0.636-0.224,1.108H80.67c0.011-0.664,0.133-1.206,0.368-1.625
                    c0.416-0.739,1.149-1.108,2.2-1.108c0.874,0,1.512,0.236,1.915,0.709c0.403,0.472,0.605,0.998,0.605,1.577
                    c0,0.611-0.215,1.133-0.645,1.566c-0.249,0.252-0.694,0.558-1.337,0.916l-0.73,0.405c-0.348,0.192-0.622,0.375-0.82,0.549
                    c-0.355,0.309-0.579,0.652-0.671,1.028h4.166v0.906h-5.237C80.519,114.637,80.655,114.065,80.891,113.578z M94.959,112.129
                    c0.362,0.362,0.543,0.799,0.543,1.311c0,0.511-0.181,0.948-0.543,1.311c-0.362,0.362-0.799,0.543-1.311,0.543
                    c-0.515,0-0.954-0.181-1.316-0.543s-0.543-0.799-0.543-1.311c0-0.511,0.181-0.948,0.543-1.311s0.801-0.543,1.316-0.543
                    C94.16,111.586,94.597,111.767,94.959,112.129z M92.876,107.696h0.591l-4.268,7.8h-0.591L92.876,107.696z M89.197,110.528
                    c0.215-0.215,0.322-0.473,0.322-0.775s-0.107-0.56-0.322-0.775s-0.475-0.322-0.781-0.322c-0.302,0-0.56,0.107-0.775,0.32
                    c-0.215,0.213-0.322,0.472-0.322,0.778c0,0.302,0.107,0.56,0.322,0.775c0.215,0.215,0.473,0.322,0.775,0.322
                    C88.722,110.851,88.982,110.743,89.197,110.528z M89.733,108.44c0.362,0.364,0.543,0.802,0.543,1.313s-0.181,0.948-0.543,1.311
                    c-0.362,0.362-0.801,0.543-1.316,0.543c-0.511,0-0.948-0.181-1.311-0.543c-0.362-0.362-0.543-0.799-0.543-1.311
                    s0.181-0.949,0.543-1.313s0.799-0.546,1.311-0.546C88.932,107.894,89.37,108.076,89.733,108.44z M94.424,114.215
                    c0.215-0.215,0.322-0.473,0.322-0.775c0-0.302-0.107-0.56-0.322-0.775c-0.215-0.215-0.473-0.322-0.775-0.322
                    c-0.305,0-0.566,0.107-0.781,0.322c-0.215,0.215-0.322,0.473-0.322,0.775c0,0.302,0.107,0.56,0.322,0.775
                    c0.215,0.215,0.475,0.322,0.781,0.322C93.95,114.537,94.209,114.43,94.424,114.215z"></path>
                <path id="_x32_5_x25_" d="M13.23,51.308c0.236-0.487,0.697-0.929,1.383-1.327l1.023-0.591c0.458-0.266,0.78-0.494,0.964-0.682
                    c0.291-0.295,0.437-0.632,0.437-1.012c0-0.444-0.133-0.797-0.4-1.058c-0.266-0.261-0.622-0.392-1.066-0.392
                    c-0.657,0-1.112,0.249-1.364,0.746c-0.135,0.266-0.21,0.636-0.224,1.108h-0.975c0.011-0.664,0.133-1.206,0.368-1.625
                    c0.416-0.739,1.149-1.108,2.2-1.108c0.874,0,1.512,0.236,1.915,0.709c0.403,0.472,0.605,0.998,0.605,1.577
                    c0,0.611-0.215,1.133-0.645,1.566c-0.249,0.252-0.694,0.558-1.337,0.916l-0.73,0.405c-0.348,0.192-0.622,0.375-0.82,0.549
                    c-0.355,0.309-0.579,0.652-0.671,1.028h4.166v0.906h-5.237C12.858,52.366,12.994,51.794,13.23,51.308z M19.898,51.079
                    c0.064,0.547,0.318,0.925,0.762,1.135c0.227,0.107,0.49,0.16,0.789,0.16c0.568,0,0.989-0.181,1.263-0.543
                    c0.273-0.362,0.41-0.764,0.41-1.204c0-0.533-0.162-0.945-0.487-1.236c-0.325-0.291-0.715-0.437-1.169-0.437
                    c-0.33,0-0.614,0.064-0.85,0.192c-0.236,0.128-0.438,0.305-0.605,0.533l-0.831-0.048l0.581-4.108h3.964v0.927h-3.245l-0.325,2.12
                    c0.178-0.135,0.346-0.236,0.506-0.304c0.284-0.117,0.613-0.176,0.986-0.176c0.7,0,1.293,0.226,1.779,0.677s0.73,1.023,0.73,1.716
                    c0,0.721-0.223,1.357-0.669,1.907c-0.446,0.551-1.157,0.826-2.134,0.826c-0.622,0-1.171-0.175-1.649-0.525
                    c-0.478-0.35-0.745-0.887-0.802-1.612H19.898z M33.367,49.859c0.362,0.362,0.543,0.799,0.543,1.311s-0.181,0.948-0.543,1.311
                    c-0.362,0.362-0.799,0.543-1.311,0.543c-0.515,0-0.954-0.181-1.316-0.543c-0.362-0.362-0.543-0.799-0.543-1.311
                    s0.181-0.948,0.543-1.311c0.362-0.362,0.801-0.543,1.316-0.543C32.568,49.315,33.005,49.496,33.367,49.859z M31.284,45.426h0.591
                    l-4.268,7.8h-0.591L31.284,45.426z M27.605,48.258c0.215-0.215,0.322-0.473,0.322-0.775s-0.107-0.56-0.322-0.775
                    s-0.475-0.322-0.781-0.322c-0.302,0-0.56,0.107-0.775,0.32c-0.215,0.213-0.322,0.472-0.322,0.778c0,0.302,0.107,0.56,0.322,0.775
                    c0.215,0.215,0.473,0.322,0.775,0.322C27.13,48.58,27.39,48.473,27.605,48.258z M28.14,46.169
                    c0.362,0.364,0.543,0.802,0.543,1.313s-0.181,0.948-0.543,1.311s-0.801,0.543-1.316,0.543c-0.511,0-0.948-0.181-1.311-0.543
                    c-0.362-0.362-0.543-0.799-0.543-1.311s0.181-0.949,0.543-1.313c0.362-0.364,0.799-0.546,1.311-0.546
                    C27.339,45.623,27.778,45.805,28.14,46.169z M32.831,51.945c0.215-0.215,0.322-0.473,0.322-0.775c0-0.302-0.107-0.56-0.322-0.775
                    s-0.473-0.322-0.775-0.322c-0.305,0-0.566,0.107-0.781,0.322c-0.215,0.215-0.322,0.473-0.322,0.775
                    c0,0.302,0.107,0.56,0.322,0.775c0.215,0.215,0.475,0.322,0.781,0.322C32.358,52.267,32.616,52.159,32.831,51.945z"></path>
                <polyline id="Shape_7_" fill="none" stroke="#0E3C54" stroke-width="2" stroke-linecap="round" stroke-linejoin="round" points="
                    17.786,60.279 17.786,69.675 41.05,77.342 			"></polyline>
                <polyline id="Shape_8_" fill="none" stroke="#0E3C54" stroke-width="2" stroke-linecap="round" stroke-linejoin="round" points="
                    65.371,68.811 87.705,63.461 87.705,54.111 			"></polyline>
                <polyline id="Shape_9_" fill="none" stroke="#0E3C54" stroke-width="2" stroke-linecap="round" stroke-linejoin="round" points="
                    49.089,95.877 58.289,111.812 68.887,111.812 			"></polyline>
            </g>
            <g id="Group" transform="translate(120.000000, 0.000000)" data-elvn="fadeShortL, in, 300, 200, backout" class="elvn-layer">
                <g id="Shape_10_" transform="translate(10.000000, 0.000000)">
                    <polyline fill="none" stroke="#231F20" stroke-width="2" stroke-linejoin="round" points="17.322,0.298 21.92,4.347
                        17.322,8.31 				"></polyline>
                    <path fill="none" stroke="#231F20" stroke-width="2" stroke-linejoin="round" d="M21.92,4.208H0.445"></path>
                </g>
                <path id="Shape_11_" fill="none" stroke="#231F20" stroke-width="2" stroke-linejoin="round" d="M6.982,4.208H0.054"></path>
            </g>
            <g id="Group_1_" transform="translate(153.000000, 11.000000)" data-elvn="fadeShortL, in, 500, 200, backout" class="elvn-layer">
                <polyline id="Shape_12_" fill="none" stroke="#231F20" stroke-width="2" stroke-linejoin="round" points="17.875,0.435
                    22.473,4.483 17.875,8.448 			"></polyline>
                <path id="Shape_13_" fill="none" stroke="#231F20" stroke-width="2" stroke-linejoin="round" d="M22.473,4.292H0.307"></path>
            </g>
            <g id="Group_2_" transform="translate(143.000000, 206.000000)" data-elvn="fadeShortR, in, 2300, 200, backout" class="elvn-layer">
                <g id="Shape_15_">
                    <polyline fill="none" stroke="#231F20" stroke-width="2" stroke-linejoin="round" points="5.205,8.354 0.607,4.305 5.205,0.342
                                        "></polyline>
                    <path fill="none" stroke="#231F20" stroke-width="2" stroke-linejoin="round" d="M0.607,4.443h21.475"></path>
                </g>
                <path id="Shape_16_" fill="none" stroke="#231F20" stroke-width="2" stroke-linejoin="round" d="M25.545,4.443h6.928"></path>
            </g>
            <g id="Group-2" transform="translate(120.000000, 195.000000)" data-elvn="fadeShortR, in, 2000, 200, backout" class="elvn-layer">
                <g id="Group_3_">
                    <polyline id="Shape_17_" fill="none" stroke="#231F20" stroke-width="2" stroke-linejoin="round" points="4.652,8.217
                        0.054,4.168 4.652,0.203 				"></polyline>
                    <path id="Shape_18_" fill="none" stroke="#231F20" stroke-width="2" stroke-linejoin="round" d="M0.054,4.359H22.22"></path>
                </g>
            </g>
            <g id="Group_4_" transform="translate(3.000000, 136.000000)" data-elvn="fadeShortR, in, 2700, 200, backout" class="elvn-layer">
                <path id="Shape_20_" fill="none" stroke="#231F20" stroke-width="2" stroke-linejoin="round" d="M0.364,0.443h27.782"></path>
                <path id="Shape_21_" fill="none" stroke="#231F20" stroke-width="2" stroke-linejoin="round" d="M31.61,0.443h5.542"></path>
            </g>
            <g id="Group_5_" transform="translate(250.000000, 73.000000)" data-elvn="fadeShortR, in, 1000, 200, backout" class="elvn-layer">
                <path id="Shape_22_" fill="none" stroke="#231F20" stroke-width="2" stroke-linejoin="round" d="M0.686,0.99h27.781"></path>
                <path id="Shape_23_" fill="none" stroke="#231F20" stroke-width="2" stroke-linejoin="round" d="M31.932,0.99h5.541"></path>
            </g>
            <g id="browser-tr" transform="translate(216.000000, 7.000000)" data-elvn="scaleBL, in, 800, 200, backout" class="elvn-layer">
                <path id="Shape_24_" fill="#F8D383" stroke="#0E3C54" stroke-width="2" d="M72.289,0.76c2.797,0,5.066,2.269,5.066,5.066v49.263
                    c0,2.797-2.27,5.066-5.066,5.066H5.572c-2.797,0-5.066-2.268-5.066-5.066V5.826c0-2.799,2.27-5.065,5.066-5.066H72.289z"></path>
                <path id="Shape_25_" fill="#FFFFFF" stroke="#0E3C54" stroke-width="2" d="M77.355,11.474V5.827c0-2.798-2.27-5.066-5.066-5.066
                    H5.572C2.775,0.762,0.506,3.029,0.506,5.827v5.647H77.355L77.355,11.474z"></path>
                <circle id="Oval" fill="#FFFFFF" stroke="#0E3C54" stroke-width="2" cx="56.676" cy="6.267" r="2.076"></circle>
                <circle id="Oval_1_" fill="#FFFFFF" stroke="#0E3C54" stroke-width="2" cx="62.688" cy="6.267" r="2.075"></circle>
                <circle id="Oval_2_" fill="#FFFFFF" stroke="#0E3C54" stroke-width="2" cx="68.7" cy="6.267" r="2.075"></circle>
                <polygon id="Shape_26_" fill="#0E3C54" points="14.07,30.196 9.129,35.137 14.07,40.078 15.48,38.666 11.951,35.137
                    15.48,31.606 			"></polygon>
                <polygon id="Shape_27_" fill="#0E3C54" points="63.602,40.078 68.543,35.137 63.602,30.195 62.191,31.606 65.721,35.137
                    62.191,38.666 			"></polygon>
                <path id="Shape_28_" fill="#FFFFFF" stroke="#0E3C54" stroke-width="2" d="M8.578,6.267c0,1.146,0.93,2.076,2.076,2.076h36.51
                    c1.145,0,2.074-0.93,2.074-2.076l0,0c0-1.146-0.93-2.075-2.074-2.075h-36.51C9.508,4.191,8.578,5.12,8.578,6.267L8.578,6.267z"></path>
                <circle id="Oval_3_" fill="#FFFFFF" stroke="#0E3C54" stroke-width="2" cx="39.327" cy="35.136" r="16.323"></circle>
                <path id="Shape_29_" fill="#FFFFFF" stroke="#0E3C54" stroke-width="2" d="M39.236,35.458V18.896
                    c-8.918,0.068-16.141,7.302-16.141,16.242c0,8.968,7.279,16.242,16.25,16.239c8.869,0.004,16.039-7.1,16.213-15.919H39.236
                    L39.236,35.458z"></path>
            </g>
            <g id="browser-br" transform="translate(216.000000, 148.000000)" data-elvn="scaleTL, in, 1800, 200, backout" class="elvn-layer">
                <path id="Shape_30_" fill="#FFFFFF" stroke="#0E3C54" stroke-width="2" d="M72.289,0.787c2.797,0,5.066,2.27,5.066,5.068v49.262
                    c0,2.797-2.27,5.066-5.066,5.066H5.572c-2.797,0-5.066-2.268-5.066-5.066V5.855c0-2.801,2.27-5.066,5.066-5.068H72.289z"></path>
                <path id="Shape_31_" fill="#F8D383" stroke="#0E3C54" stroke-width="2" d="M77.355,11.502V5.856c0-2.799-2.27-5.068-5.066-5.068
                    H5.572C2.775,0.79,0.506,3.056,0.506,5.856v5.646H77.355z"></path>
                <circle id="Oval_4_" fill="#FFFFFF" stroke="#0E3C54" stroke-width="2" cx="56.676" cy="6.295" r="2.076"></circle>
                <circle id="Oval_5_" fill="#FFFFFF" stroke="#0E3C54" stroke-width="2" cx="62.688" cy="6.295" r="2.075"></circle>
                <circle id="Oval_6_" fill="#FFFFFF" stroke="#0E3C54" stroke-width="2" cx="68.7" cy="6.295" r="2.075"></circle>
                <polygon id="Shape_32_" fill="#0E3C54" points="14.07,30.225 9.129,35.164 14.07,40.105 15.48,38.693 11.951,35.164
                    15.48,31.635 			"></polygon>
                <polygon id="Shape_33_" fill="#0E3C54" points="63.602,40.105 68.543,35.164 63.602,30.223 62.191,31.635 65.721,35.164
                    62.191,38.693 			"></polygon>
                <path id="Shape_34_" fill="#FFFFFF" stroke="#0E3C54" stroke-width="2" d="M8.578,6.295c0,1.146,0.93,2.076,2.076,2.076h36.51
                    c1.145,0,2.074-0.93,2.074-2.076l0,0c0-1.146-0.93-2.076-2.074-2.076h-36.51C9.508,4.219,8.578,5.148,8.578,6.295L8.578,6.295z"></path>
                <g id="Group_7_" transform="translate(22.000000, 18.000000)">
                    <g id="SVGID_3_-link">
                        <circle id="SVGID_3_" fill="#F8D383" cx="16.931" cy="17.166" r="16.618"></circle>
                    </g>
                    <g id="Clipped">
                        <g id="SVGID_1_">
                        </g>
                        <defs>
                            <filter id="Adobe_OpacityMaskFilter" filterUnits="userSpaceOnUse" x="1.586" y="6.437" width="30.69" height="28.346">
                                <feColorMatrix type="matrix" values="1 0 0 0 0  0 1 0 0 0  0 0 1 0 0  0 0 0 1 0"></feColorMatrix>
                            </filter>
                        </defs>
                        <mask maskUnits="userSpaceOnUse" x="1.586" y="6.437" width="30.69" height="28.346" id="mask-2">
                            <g filter="url(#Adobe_OpacityMaskFilter)">
                                <circle id="path-1" fill="#FFFFFF" cx="16.931" cy="17.166" r="16.618"></circle>
                            </g>
                        </mask>
                        <g id="Group_6_" mask="url(#mask-2)">
                            <g id="Shape_35_" transform="translate(2.000000, 7.000000)">
                                <path fill="#FFFFFF" stroke="#0E3C54" stroke-width="2" d="M14.887,15.793c-4.234,0-7.678-3.445-7.678-7.678
                                    c0-4.23,3.443-7.678,7.678-7.678c4.232,0,7.676,3.447,7.676,7.678C22.562,12.348,19.119,15.793,14.887,15.793z"></path>
                                <path fill="#FFFFFF" stroke="#0E3C54" stroke-width="2" d="M28.266,26.783H1.598c-0.559,0-1.012-0.467-1.012-1.045
                                    c0-5.482,4.32-9.945,9.631-9.945h9.43c5.309,0,9.629,4.463,9.629,9.945C29.275,26.316,28.822,26.783,28.266,26.783z"></path>
                            </g>
                        </g>
                    </g>
                    <g id="SVGID_3_-link_1_">
                        <circle id="SVGID_2_" fill="none" stroke="#0E3C54" stroke-width="2" cx="16.931" cy="17.166" r="16.618"></circle>
                    </g>
                </g>
            </g>
            <g id="browser" transform="translate(6.000000, 7.000000)" data-elvn="scaleBR, in, 3300, 300, backout" class="elvn-layer">
                <path id="Shape_36_" fill="#FFFFFF" stroke="#0E3C54" stroke-width="2" d="M71.919,0.76c2.797,0,5.066,2.269,5.066,5.066v49.263
                    c0,2.797-2.27,5.066-5.066,5.066H5.203c-2.798,0-5.066-2.268-5.066-5.066V5.826c0-2.799,2.269-5.065,5.066-5.066H71.919z"></path>
                <path id="Shape_37_" fill="#F8D383" stroke="#0E3C54" stroke-width="2" d="M54.822,34.83c0,8.98-7.28,16.261-16.261,16.261
                    c-8.98,0-16.261-7.28-16.261-16.261s7.281-16.261,16.261-16.261C47.542,18.569,54.822,25.85,54.822,34.83"></path>
                <path id="Shape_38_" fill="#F8D383" stroke="#0E3C54" stroke-width="2" d="M76.985,11.474V5.827c0-2.798-2.27-5.066-5.066-5.066
                    H5.203C2.405,0.762,0.137,3.029,0.137,5.827v5.647H76.985L76.985,11.474z"></path>
                <circle id="Oval_7_" fill="#FFFFFF" stroke="#0E3C54" stroke-width="2" cx="56.306" cy="6.267" r="2.076"></circle>
                <circle id="Oval_8_" fill="#FFFFFF" stroke="#0E3C54" stroke-width="2" cx="62.319" cy="6.267" r="2.076"></circle>
                <circle id="Oval_9_" fill="#FFFFFF" stroke="#0E3C54" stroke-width="2" cx="68.331" cy="6.267" r="2.076"></circle>
                <polygon id="Shape_39_" fill="#0E3C54" points="13.7,30.196 8.759,35.137 13.7,40.078 15.111,38.666 11.581,35.137
                    15.111,31.606 			"></polygon>
                <polygon id="Shape_40_" fill="#0E3C54" points="63.232,40.078 68.173,35.137 63.232,30.195 61.821,31.606 65.351,35.137
                    61.821,38.666 			"></polygon>
                <path id="Shape_41_" fill="#FFFFFF" stroke="#0E3C54" stroke-width="2" d="M8.208,6.267c0,1.146,0.931,2.076,2.076,2.076h36.509
                    c1.146,0,2.075-0.93,2.075-2.076l0,0c0-1.146-0.929-2.075-2.075-2.075H10.284C9.139,4.191,8.208,5.12,8.208,6.267L8.208,6.267z"></path>
                <path id="Shape_42_" fill="#FFFFFF" stroke="#0E3C54" stroke-width="2" d="M38.561,22.814c6.626,0,12.016,5.391,12.016,12.016
                    c0,6.626-5.39,12.018-12.016,12.018S26.544,41.456,26.544,34.83C26.544,28.205,31.935,22.814,38.561,22.814 M38.561,18.569
                    c-8.98,0-16.261,7.28-16.261,16.261s7.281,16.261,16.261,16.261s16.261-7.28,16.261-16.261S47.542,18.569,38.561,18.569"></path>
                <path id="Shape_43_" fill="#FFFFFF" stroke="#0E3C54" stroke-width="2" d="M46.318,44.241l-4.468-2.787l-2.976-1.858
                    c-0.106,0.006-5.086-4.974-5.078-5.078l-1.859-2.982l-2.787-4.461c-0.125-0.196-0.182-0.417-0.182-0.637
                    c0-0.31,0.118-0.618,0.35-0.85c0.395-0.396,1.008-0.466,1.482-0.168l4.466,2.787l2.978,1.858
                    c0.107-0.008,5.088,4.973,5.081,5.078l1.858,2.98l2.787,4.464c0.296,0.466,0.225,1.087-0.171,1.483
                    C47.406,44.469,46.794,44.537,46.318,44.241 M38.561,32.433c-1.324,0-2.399,1.072-2.399,2.397c0,1.325,1.075,2.397,2.399,2.397
                    c1.324,0,2.398-1.072,2.398-2.397C40.959,33.505,39.885,32.433,38.561,32.433"></path>
                <path id="Shape_44_" fill="#FFFFFF" stroke="#0E3C54" stroke-width="2" d="M38.561,39.627c-2.648,0-4.797-2.149-4.797-4.797
                    c0-2.648,2.148-4.796,4.797-4.796c2.65,0,4.796,2.148,4.796,4.796C43.357,37.478,41.211,39.627,38.561,39.627"></path>
            </g>
            <g id="lock" transform="translate(27.000000, 86.000000)" data-elvn="fadeShortL, in, 3000, 300, backout" class="elvn-layer">
                <path id="Shape_45_" fill="#FFFFFF" stroke="#0E3C54" stroke-width="2" d="M6.77,22.091c-1.305,0-2.361-1.057-2.361-2.361v-6.928
                    c0-7.03,5.72-12.751,12.75-12.751c4.343,0,8.347,2.18,10.709,5.83c0.709,1.095,0.396,2.557-0.699,3.265
                    c-1.096,0.709-2.557,0.396-3.265-0.697c-1.489-2.302-4.01-3.675-6.746-3.675c-4.427,0-8.028,3.603-8.028,8.028v6.928
                    C9.131,21.034,8.073,22.091,6.77,22.091"></path>
                <path id="Shape_46_" fill="#F8D383" stroke="#0E3C54" stroke-width="2" d="M17.159,20.516c-2.086,0-3.778,1.691-3.778,3.778
                    c0,1.396,0.764,2.601,1.889,3.255v2.412c0,1.045,0.846,1.889,1.889,1.889c1.044,0,1.889-0.844,1.889-1.889v-2.412
                    c1.125-0.654,1.889-1.859,1.889-3.255C20.937,22.207,19.245,20.516,17.159,20.516"></path>
                <path id="Shape_47_" fill="#FFFFFF" stroke="#0E3C54" stroke-width="2" d="M31.327,13.904H2.991c-1.565,0-2.833,1.27-2.833,2.834
                    v17.945c0,1.566,1.268,2.834,2.833,2.834h28.335c1.565,0,2.833-1.268,2.833-2.834V16.738
                    C34.16,15.174,32.892,13.904,31.327,13.904 M19.048,27.549v2.412c0,1.043-0.845,1.889-1.889,1.889
                    c-1.043,0-1.889-0.846-1.889-1.889v-2.412c-1.125-0.654-1.889-1.859-1.889-3.255c0-2.087,1.691-3.778,3.778-3.778
                    s3.778,1.691,3.778,3.778C20.937,25.689,20.173,26.895,19.048,27.549"></path>
            </g>
            <g id="browser-lb" transform="translate(6.000000, 148.000000)" data-elvn="scaleTR, in, 2500, 300, backout" class="elvn-layer">
                <path id="Shape_48_" fill="#F8D383" stroke="#0E3C54" stroke-width="2" d="M71.919,0.787c2.797,0,5.066,2.27,5.066,5.068v49.262
                    c0,2.797-2.27,5.066-5.066,5.066H5.203c-2.798,0-5.066-2.268-5.066-5.066V5.855c0-2.801,2.269-5.066,5.066-5.068H71.919z"></path>
                <path id="Shape_49_" fill="#FFFFFF" stroke="#0E3C54" stroke-width="2" d="M76.985,11.502V5.856c0-2.799-2.27-5.068-5.066-5.068
                    H5.203C2.405,0.79,0.137,3.056,0.137,5.856v5.646H76.985z"></path>
                <circle id="Oval_10_" fill="#FFFFFF" stroke="#0E3C54" stroke-width="2" cx="56.306" cy="6.295" r="2.076"></circle>
                <circle id="Oval_11_" fill="#FFFFFF" stroke="#0E3C54" stroke-width="2" cx="62.319" cy="6.295" r="2.076"></circle>
                <circle id="Oval_12_" fill="#FFFFFF" stroke="#0E3C54" stroke-width="2" cx="68.331" cy="6.295" r="2.076"></circle>
                <polygon id="Shape_50_" fill="#0E3C54" points="13.7,30.225 8.759,35.164 13.7,40.105 15.111,38.693 11.581,35.164
                    15.111,31.635 			"></polygon>
                <polygon id="Shape_51_" fill="#0E3C54" points="63.232,40.105 68.173,35.164 63.232,30.223 61.821,31.635 65.351,35.164
                    61.821,38.693 			"></polygon>
                <path id="Shape_52_" fill="#FFFFFF" stroke="#0E3C54" stroke-width="2" d="M8.208,6.295c0,1.146,0.931,2.076,2.076,2.076h36.509
                    c1.146,0,2.075-0.93,2.075-2.076l0,0c0-1.146-0.929-2.076-2.075-2.076H10.284C9.139,4.219,8.208,5.148,8.208,6.295L8.208,6.295z"></path>
                <path id="Shape_53_" fill="#FFFFFF" stroke="#0E3C54" stroke-width="2" d="M38.561,20.4c-8.98,0-16.261,7.281-16.261,16.262
                    s7.281,16.26,16.261,16.26s16.261-7.279,16.261-16.26S47.542,20.4,38.561,20.4"></path>
                <path id="Shape_54_" fill="#FFFFFF" stroke="#0E3C54" stroke-width="2" d="M34.038,42.879c0,1.242,0.862,1.727,1.919,1.08
                    l10.028-6.123c1.056-0.646,1.056-1.705,0-2.35l-10.028-6.125c-1.057-0.645-1.919-0.156-1.919,1.08V42.879L34.038,42.879z"></path>
            </g>
            <path id="Shape_55_" fill="none" stroke="#231F20" stroke-width="2" stroke-linejoin="round" d="M233.215,132.016
                c-4.186,0-8.369,0-12.555,0" data-elvn="fadeShortL, in, 1500, 200, backout" class="elvn-layer"></path>
            <path id="Shape_56_" fill="none" stroke="#231F20" stroke-width="2" stroke-linejoin="round" d="M70.922,136.068
                c-4.186,0-8.369,0-12.555,0" data-elvn="fadeShortR, in, 2800, 200, backout" class="elvn-layer"></path>
            <g id="Group_8_" transform="translate(252.000000, 132.000000)" data-elvn="fadeShortL, in, 1600, 200, backout" class="elvn-layer">
                <path id="Shape_57_" fill="none" stroke="#231F20" stroke-width="2" stroke-linejoin="round" d="M23.822,0.016
                    c-4.186,0-8.369,0-12.555,0"></path>
                <path id="Shape_58_" fill="none" stroke="#231F20" stroke-width="2" stroke-linejoin="round" d="M7.732,0.016H0.656"></path>
            </g>
            <g id="Group_9_" transform="translate(0.000000, 82.000000)" data-elvn="fadeShortL, in, 3100, 200, backout" class="elvn-layer">
                <path id="Shape_59_" fill="none" stroke="#231F20" stroke-width="2" stroke-linejoin="round" d="M24.09,0.365
                    c-4.186,0-8.369,0-12.555,0"></path>
                <path id="Shape_60_" fill="none" stroke="#231F20" stroke-width="2" stroke-linejoin="round" d="M8,0.365H0.924"></path>
            </g>
            <g id="Group_10_" transform="translate(150.000000, 199.000000)" data-elvn="fadeShortR, in, 2100, 200, backout" class="elvn-layer">
                <path id="Shape_61_" fill="none" stroke="#231F20" stroke-width="2" stroke-linejoin="round" d="M23.27,0.359
                    c-4.186,0-8.369,0-12.555,0"></path>
                <path id="Shape_62_" fill="none" stroke="#231F20" stroke-width="2" stroke-linejoin="round" d="M7.18,0.359H0.104"></path>
            </g>
            <g id="filter" transform="translate(236.000000, 91.000000)" data-elvn="fadeShortR, in, 1300, 200, backout" class="elvn-layer">
                <g id="Group_11_">
                    <g id="SVGID_1_-link">
                        <path id="SVGID_4_" fill="#FFFFFF" d="M33.223,31.098H5.764c-2.635,0-4.791-1.857-4.791-4.129V4.223
                            c0-2.271,2.156-4.13,4.791-4.13h27.459c2.635,0,4.789,1.859,4.789,4.13v22.746C38.012,29.24,35.857,31.098,33.223,31.098z"></path>
                    </g>
                    <g id="SVGID_1_-link_1_">
                        <path id="SVGID_5_" fill="none" stroke="#0E3C54" stroke-width="2" d="M33.223,31.098H5.764c-2.635,0-4.791-1.857-4.791-4.129
                            V4.223c0-2.271,2.156-4.13,4.791-4.13h27.459c2.635,0,4.789,1.859,4.789,4.13v22.746C38.012,29.24,35.857,31.098,33.223,31.098
                            z"></path>
                    </g>
                </g>
                <path id="Shape_63_" fill="#FFFFFF" stroke="#0E3C54" stroke-width="2" d="M5.662,21.16c0,1.148,0.93,2.076,2.076,2.076h23.508
                    c1.146,0,2.076-0.928,2.076-2.076l0,0c0-1.145-0.93-2.075-2.076-2.075H7.738C6.592,19.085,5.662,20.016,5.662,21.16L5.662,21.16z
                    "></path>
                <path id="Shape_64_" fill="#FFFFFF" stroke="#0E3C54" stroke-width="2" d="M5.662,11.081c0,1.147,0.93,2.076,2.076,2.076h23.508
                    c1.146,0,2.076-0.929,2.076-2.076l0,0c0-1.146-0.93-2.075-2.076-2.075H7.738C6.592,9.006,5.662,9.936,5.662,11.081L5.662,11.081z
                    "></path>
                <circle id="Oval_13_" fill="#F8D383" stroke="#0E3C54" stroke-width="2" cx="15.078" cy="21.162" r="4.414"></circle>
                <circle id="Oval_14_" fill="#F8D383" stroke="#0E3C54" stroke-width="2" cx="23.824" cy="11.082" r="4.414"></circle>
            </g>
        </g>
    </g>
</svg>
