<svg class="enliven" version="1.1" id="Layer_1" xmlns="http://www.w3.org/2000/svg" xmlns:xlink="http://www.w3.org/1999/xlink" x="0px" y="0px" width="303px" height="202px" viewBox="0 0 303 202" enable-background="new 0 0 303 202" xml:space="preserve" data-global-elvn="enableViewport, disableClick, none, startInvisible, notResponsive, 500, notLoop, 500">
    <g id="Page-1" xmlns="http://www.w3.org/2000/svg">
        <g id="m_28" transform="translate(1.000000, 1.000000)">
            <g id="Group" transform="translate(27.000000, 166.000000)" data-elvn="scaleC, in, 3400, 300, backout" class="elvn-layer">

                    <rect id="Rectangle-path" x="0.549" y="0.575" fill="#FFFFFF" stroke="#34525C" stroke-width="2" width="33.362" height="33.363"></rect>
                <path id="Shape" fill="#FFFFFF" stroke="#34525C" stroke-width="2" d="M0.549,0.575l33.363,33.363"></path>
                <path id="Shape_1_" fill="#FFFFFF" stroke="#34525C" stroke-width="2" d="M0.549,33.938L33.913,0.575"></path>
            </g>
            <g id="tl-arrows" transform="translate(5.000000, 3.000000)">
                <g id="Group_1_" data-elvn="fadeShortL, in, 1400, 300, backout" class="elvn-layer">
                    <polyline id="Shape_2_" fill="#FE804C" stroke="#0E3C54" stroke-width="2" points="6.769,0.851 44.84,0.851 50.763,7.004
                        45.456,12.927 6.769,12.927 				"></polyline>
                    <circle id="Oval" fill="#FFFFFF" stroke="#0E3C54" stroke-width="2" cx="6.769" cy="6.889" r="5.999"></circle>
                </g>
                <g id="Group_2_" transform="translate(14.000000, 12.000000)" data-elvn="fadeShortL, in, 1300, 300, backout" class="elvn-layer">
                    <polyline id="Shape_3_" fill="#FFFFFF" stroke="#0E3C54" stroke-width="2" points="6.913,0.927 44.984,0.927 50.908,7.079
                        45.601,13.002 6.913,13.002 				"></polyline>
                    <circle id="Oval_1_" fill="#FFFFFF" stroke="#0E3C54" stroke-width="2" cx="6.913" cy="6.964" r="5.999"></circle>
                </g>
            </g>
            <g id="monitor" transform="translate(115.000000, 48.000000)" data-elvn="stamp, in, 0, 300, backout" class="elvn-layer">
                <g id="Group_3_">
                    <path id="Shape_4_" fill="#FFFFFF" stroke="#0E3C54" stroke-width="2" d="M76.168,95.478c0.055-0.237-1.517-1.07-2.576-1.911
                        H44.996c-1.061,0.841-2.623,1.697-2.569,1.942v0.432h-0.005v0.484h0.005c0.448,2.025,13.974,1.925,16.872,1.873
                        c2.885,0.052,16.412,0.152,16.869-1.873l0,0v-0.934v0.449V95.478L76.168,95.478z"></path>
                    <path id="Shape_5_" fill="#FFFFFF" stroke="#0E3C54" stroke-width="2" d="M70.993,79.986H47.596
                        c-1.328,15.259-1.84,12.748-1.84,12.748h0.071c0.062-0.044,0.114-0.074,0.114-0.074h26.711c0,0,0.036,0.03,0.109,0.074h0.07
                        C72.832,92.734,72.321,95.245,70.993,79.986z"></path>
                    <path id="Shape_6_" fill="#FFFFFF" stroke="#0E3C54" stroke-width="2" d="M72.762,92.467H45.827
                        c-0.583,0.459-3.474,2.711-3.4,3.042c0.425,2.023,13.974,1.924,16.872,1.875c2.885,0.049,16.435,0.148,16.869-1.875
                        C76.238,95.178,73.343,92.926,72.762,92.467z"></path>
                    <path id="Shape_7_" fill="#FFFFFF" stroke="#0E3C54" stroke-width="2" d="M114.715,80.354H3.875c-1.643,0-2.98-1.337-2.98-2.982
                        V3.304c0-1.648,1.337-2.984,2.98-2.984h110.839c1.646,0,2.979,1.336,2.979,2.984v74.068
                        C117.694,79.018,116.36,80.354,114.715,80.354z M3.875,0.808c-1.377,0-2.501,1.121-2.501,2.496v74.068
                        c0,1.383,1.124,2.503,2.501,2.503h110.839c1.377,0,2.491-1.12,2.491-2.503V3.304c0-1.375-1.114-2.496-2.491-2.496H3.875z"></path>
                    <path id="Shape_8_" fill="#FE804C" stroke="#0E3C54" stroke-width="2" d="M114.715,0.57H3.875c-1.504,0-2.736,1.229-2.736,2.733
                        v74.068c0,1.507,1.232,2.744,2.736,2.744h110.839c1.506,0,2.738-1.237,2.738-2.744V3.304C117.453,1.8,116.221,0.57,114.715,0.57
                        z M111.39,73.752H7.205V7.94H111.39V73.752z"></path>
                </g>

                    <rect id="Rectangle-path_1_" x="5.232" y="5.98" fill="#FFFFFF" stroke="#0E3C54" stroke-width="2" width="108.124" height="68.518"></rect>
                <path id="Shape_9_" fill="#FFFFFF" stroke="#0E3C54" stroke-width="2" d="M33.715,21.075c2.327-0.741,4.912,1.956,3.847,4.228
                    c-0.665,2.28-4.051,2.884-5.484,0.999C30.511,24.64,31.457,21.526,33.715,21.075L33.715,21.075z"></path>
                <path id="Shape_10_" fill="#FFFFFF" stroke="#0E3C54" stroke-width="2" d="M28.583,28.603c1.65-0.647,3.448-0.552,5.185-0.505
                    c1.634,0.021,3.32-0.173,4.95,0.089c1.539,0.248,2.896,1.103,3.315,2.665c0.425,1.639,0.21,3.473,0.215,5.137
                    c0,1.884,0.005,3.753,0,5.633c-0.013,1.044-0.148,3.253-1.868,2.461c-1.446-0.658-0.908-3.297-0.908-4.51
                    c0-2.053,0.012-4.088,0.006-6.116c-0.334,0-0.675,0-1.01,0c0,0.552-0.005,1.119-0.005,1.668
                    c-0.003,1.241-0.005,2.497-0.005,3.745c0,2.35,0,4.703,0,7.049c0.001,2.355,0.001,4.699,0,7.062c0,1.101,0,2.214-0.007,3.327
                    c0,1.049,0.126,2.229-0.025,3.283c-0.146,1.063-1.389,1.547-2.33,1.354c-1.708-0.347-1.234-2.581-1.245-3.842
                    c-0.021-2.377-0.011-4.749,0-7.118c0-1.251,0.007-2.5,0.007-3.754c0-0.565-0.007-1.117-0.007-1.686
                    c0-0.613-0.312-0.406-0.846-0.406c0.004,3.406-0.004,6.814,0,10.21c0.004,1.56,0.135,3.204-0.078,4.741
                    c-0.078,0.602-0.143,1.369-0.723,1.66c-0.445,0.236-0.966,0.298-1.461,0.217c-0.874-0.146-1.539-0.811-1.498-1.722
                    c-0.018-1.81-0.022-3.594-0.024-5.389c-0.01-3.473,0-6.929,0.002-10.388c0-1.658,0-3.316,0-4.986
                    c0-0.829-0.002-1.646-0.002-2.494c-0.01-0.418-0.01-0.828-0.01-1.239c-0.007-0.4,0.208-1.245-0.263-1.245
                    c-0.48,0-0.549-0.166-0.558,0.401c-0.007,0.419-0.007,0.812-0.012,1.219c-0.006,0.815-0.001,1.626,0,2.443
                    c0.005,1.596,0.181,3.298-0.034,4.891c-0.104,0.848-0.594,1.937-1.624,1.689c-1.533,0.139-1.108-2.625-1.108-3.444
                    c-0.012-1.67-0.012-3.33-0.012-4.996c0.012-1.537-0.243-3.332,0.137-4.836C26.979,29.878,27.617,28.981,28.583,28.603
                    C30.706,27.774,28.583,28.603,28.583,28.603z"></path>
                <path id="Shape_11_" fill="#FFFFFF" stroke="#0E3C54" stroke-width="2" d="M58.078,21.075c2.322-0.741,4.91,1.956,3.844,4.228
                    c-0.667,2.28-4.054,2.884-5.486,0.999C54.871,24.64,55.819,21.526,58.078,21.075L58.078,21.075z"></path>
                <path id="Shape_12_" fill="#FFFFFF" stroke="#0E3C54" stroke-width="2" d="M52.943,28.603c1.647-0.647,3.448-0.552,5.186-0.505
                    c1.636,0.021,3.322-0.173,4.949,0.089c1.537,0.248,2.895,1.103,3.312,2.665c0.425,1.639,0.212,3.473,0.221,5.137
                    c0,1.884,0.004,3.753,0,5.633c-0.017,1.044-0.148,3.253-1.865,2.461c-1.446-0.658-0.913-3.297-0.913-4.51
                    c0-2.053,0.009-4.088,0.004-6.116c-0.335,0-0.674,0-1.008,0c0,0.552-0.004,1.119-0.004,1.668
                    c-0.008,1.241-0.013,2.497-0.013,3.745c0,2.35,0,4.703,0,7.049c0.005,2.355,0.005,4.699,0,7.062c0,1.101,0,2.214-0.004,3.327
                    c0,1.049,0.13,2.229-0.022,3.283c-0.15,1.063-1.39,1.547-2.335,1.354c-1.702-0.347-1.232-2.581-1.245-3.842
                    c-0.016-2.377-0.008-4.749,0-7.118c0-1.251,0.008-2.5,0.008-3.754c0-0.565-0.008-1.117-0.008-1.686
                    c0-0.613-0.307-0.406-0.842-0.406c0.005,3.406-0.005,6.814,0,10.21c0.005,1.56,0.137,3.204-0.078,4.741
                    c-0.077,0.602-0.144,1.369-0.723,1.66c-0.447,0.236-0.969,0.298-1.453,0.217c-0.881-0.146-1.544-0.811-1.51-1.722
                    c-0.009-1.81-0.021-3.594-0.023-5.389c-0.011-3.473,0-6.929,0.002-10.388c0-1.658,0-3.316,0-4.986
                    c0-0.829-0.002-1.646-0.002-2.494c-0.011-0.418-0.011-0.828-0.011-1.239c0-0.4,0.215-1.245-0.259-1.245
                    c-0.48,0-0.553-0.166-0.561,0.401c-0.002,0.419-0.002,0.812-0.008,1.219c-0.008,0.815-0.002,1.626,0,2.443
                    c0.006,1.596,0.176,3.298-0.037,4.891c-0.099,0.848-0.596,1.937-1.625,1.689c-1.529,0.139-1.105-2.625-1.108-3.444
                    c-0.01-1.67-0.01-3.33-0.01-4.996c0.01-1.537-0.241-3.332,0.132-4.836C51.338,29.878,51.979,28.981,52.943,28.603
                    C55.068,27.774,52.943,28.603,52.943,28.603z"></path>
                <path id="Shape_13_" fill="#FFFFFF" stroke="#0E3C54" stroke-width="2" d="M82.436,21.075c2.326-0.741,4.908,1.956,3.852,4.228
                    c-0.675,2.28-4.06,2.884-5.491,0.999C79.229,24.64,80.175,21.526,82.436,21.075L82.436,21.075z"></path>
                <path id="Shape_14_" fill="#FFFFFF" stroke="#0E3C54" stroke-width="2" d="M77.305,28.603c1.646-0.647,3.446-0.552,5.182-0.505
                    c1.641,0.021,3.324-0.173,4.957,0.089c1.529,0.248,2.889,1.103,3.306,2.665c0.423,1.639,0.211,3.473,0.22,5.137
                    c0,1.884,0.01,3.753,0,5.633c-0.014,1.044-0.149,3.253-1.866,2.461c-1.445-0.658-0.909-3.297-0.909-4.51
                    c0-2.053,0.012-4.088,0.001-6.116c-0.331,0-0.67,0-1.008,0c0,0.552-0.003,1.119-0.003,1.668c0,1.241-0.007,2.497-0.007,3.745
                    c0,2.35,0,4.703,0,7.049c0.007,2.355,0.007,4.699,0,7.062c0,1.101,0,2.214-0.007,3.327c0,1.049,0.13,2.229-0.024,3.283
                    c-0.145,1.063-1.387,1.547-2.338,1.354c-1.7-0.347-1.229-2.581-1.239-3.842c-0.019-2.377-0.012-4.749-0.005-7.118
                    c0.005-1.251,0.011-2.5,0.011-3.754c0-0.565-0.006-1.117-0.006-1.686c-0.005-0.613-0.309-0.406-0.845-0.406
                    c0.003,3.406-0.009,6.814,0,10.21c0.003,1.56,0.138,3.204-0.074,4.741c-0.083,0.602-0.146,1.369-0.722,1.66
                    c-0.455,0.236-0.971,0.298-1.468,0.217c-0.869-0.146-1.533-0.811-1.502-1.722c-0.007-1.81-0.021-3.594-0.021-5.389
                    c-0.011-3.473,0-6.929,0-10.388c0-1.658,0-3.316,0-4.986c0-0.829,0-1.646,0-2.494c-0.011-0.418-0.011-0.828-0.011-1.239
                    c0-0.4,0.211-1.245-0.263-1.245c-0.482,0-0.551-0.166-0.558,0.401c-0.003,0.419-0.003,0.812-0.015,1.219
                    c-0.002,0.815,0,1.626,0,2.443c0.012,1.596,0.185,3.298-0.03,4.891c-0.104,0.848-0.593,1.937-1.628,1.689
                    c-1.532,0.139-1.101-2.625-1.105-3.444c-0.008-1.67-0.008-3.33-0.008-4.996c0.008-1.537-0.243-3.332,0.131-4.836
                    C75.699,29.878,76.336,28.981,77.305,28.603C79.426,27.774,77.305,28.603,77.305,28.603z"></path>
            </g>
            <g id="target" transform="translate(214.000000, 138.000000)" data-elvn="scaleC, in, 1900, 300, backout" class="elvn-layer">
                <circle id="Oval_2_" fill="#FFFFFF" stroke="#0E3C54" stroke-width="2" cx="28.847" cy="32.438" r="28.397"></circle>
                <circle id="Oval_3_" fill="#FE804C" stroke="#0E3C54" stroke-width="2" cx="28.847" cy="32.438" r="23.233"></circle>
                <circle id="Oval_4_" fill="#FFFFFF" stroke="#0E3C54" stroke-width="2" cx="28.847" cy="32.438" r="17.333"></circle>
                <circle id="Oval_5_" fill="#FFFFFF" stroke="#0E3C54" stroke-width="2" cx="28.847" cy="32.438" r="11.433"></circle>
                <circle id="Oval_6_" fill="#FE804C" stroke="#0E3C54" stroke-width="2" cx="28.847" cy="32.438" r="5.532"></circle>
                <g id="arrow" transform="translate(29.000000, 0.000000)" data-elvn="scaleTR, in, 2100, 300, backout" class="elvn-layer">
                    <path id="Shape_15_" fill="#FFFFFF" stroke="#0E3C54" stroke-width="2" d="M28.779,4.149L0.014,32.823"></path>
                    <polygon id="Shape_16_" fill="#FFFFFF" stroke="#0E3C54" stroke-width="2" points="23.701,7.604 23.166,0.247 15.576,7.733
                        16.135,15.456 				"></polygon>
                    <polygon id="Shape_17_" fill="#FFFFFF" stroke="#0E3C54" stroke-width="2" points="25.494,9.011 32.85,9.546 25.365,17.138
                        17.641,16.578 				"></polygon>
                </g>
            </g>
            <g id="bar-t" transform="translate(72.000000, 180.000000)" data-elvn="fadeShortL, in, 3600, 300, backout" class="elvn-layer">

                    <rect id="Rectangle-path_2_" x="0.833" y="0.513" fill="#FFFFFF" stroke="#0E3C54" stroke-width="2" width="118.335" height="5.199"></rect>

                    <rect id="Rectangle-path_3_" x="0.833" y="0.513" fill="#FFFFFF" stroke="#0E3C54" stroke-width="2" width="94.947" height="5.199"></rect>
            </g>
            <g id="bar-b" transform="translate(72.000000, 194.000000)" data-elvn="fadeShortL, in, 3800, 300, backout" class="elvn-layer">

                    <rect id="Rectangle-path_4_" x="0.833" y="0.434" fill="#FFFFFF" stroke="#0E3C54" stroke-width="2" width="118.335" height="5.206"></rect>

                    <rect id="Rectangle-path_5_" x="0.833" y="0.434" fill="#FE804C" stroke="#0E3C54" stroke-width="2" width="68.691" height="5.206"></rect>
            </g>
            <g id="picture" transform="translate(18.000000, 44.000000)" data-elvn="scaleB, in, 800, 300, backout" class="elvn-layer">

                    <rect id="Rectangle-path_6_" x="0.337" y="0.99" fill="#FFFFFF" stroke="#0E3C54" stroke-width="2" width="57.271" height="56.607"></rect>

                    <rect id="Rectangle-path_7_" x="5.4" y="6.342" fill="#FE804C" stroke="#0E3C54" stroke-width="2" width="47.095" height="40.379"></rect>
                <path id="Shape_18_" fill="#FFFFFF" stroke="#0E3C54" stroke-width="2" d="M5.724,35.484c0,0,2.88-0.952,5.348-6.262
                    c2.47-5.316,7.607-9.148,13.062-2.242c5.454,6.903,5.446,8.193,12.548,5.115s9.776-5.676,15.536,0v14.682H5.724"></path>
                <path id="Shape_19_" fill="#FFFFFF" stroke="#0E3C54" stroke-width="2" d="M44.217,16.595c0,3.22-2.612,5.829-5.833,5.829
                    c-3.22,0-5.833-2.609-5.833-5.829c0-3.224,2.613-5.834,5.833-5.834C41.605,10.761,44.217,13.371,44.217,16.595z"></path>
            </g>
            <path id="Shape_20_" fill="#FFFFFF" stroke="#0E3C54" stroke-width="2" d="M291.73,37.648l2.418-2.078
                c0.488-0.421,0.544-1.16,0.123-1.646l-1.812-2.098c-0.421-0.49-0.479-1.336-0.125-1.873l1.881-3.74
                c0.228-0.604,0.941-1.059,1.583-1.011l2.764,0.207c0.641,0.048,1.21-0.435,1.258-1.072l0.238-3.182
                c0.049-0.638-0.443-1.203-1.082-1.251l-2.766-0.208c-0.641-0.048-1.279-0.6-1.414-1.227l-1.301-3.991
                c-0.26-0.584-0.086-1.399,0.402-1.818l2.104-1.812c0.489-0.42,0.544-1.16,0.124-1.646l-2.08-2.417
                c-0.421-0.485-1.156-0.541-1.645-0.123l-2.104,1.812c-0.49,0.42-1.33,0.477-1.865,0.126l-3.748-1.889
                c-0.6-0.225-1.051-0.933-1.003-1.573l0.208-2.771c0.047-0.636-0.438-1.203-1.076-1.251l-3.18-0.239
                c-0.64-0.048-1.203,0.441-1.25,1.078l-0.209,2.77c-0.047,0.641-0.6,1.275-1.227,1.406l-3.992,1.308
                c-0.583,0.267-1.404,0.086-1.821-0.401l-1.81-2.105c-0.422-0.486-1.162-0.541-1.645-0.124l-2.417,2.087
                c-0.488,0.409-0.544,1.149-0.124,1.64l1.811,2.104c0.422,0.488,0.471,1.32,0.127,1.859l-1.889,3.752
                c-0.225,0.6-0.934,1.051-1.574,1.002l-2.771-0.207c-0.64-0.049-1.203,0.438-1.25,1.076l-0.239,3.181
                c-0.048,0.638,0.437,1.2,1.077,1.248l2.771,0.208c0.64,0.048,1.274,0.604,1.407,1.234l1.307,3.979
                c0.259,0.598,0.086,1.412-0.403,1.835l-2.103,1.805c-0.489,0.415-0.545,1.154-0.123,1.644l2.079,2.416
                c0.415,0.489,1.155,0.545,1.644,0.123l2.104-1.806c0.489-0.418,1.324-0.473,1.861-0.126l3.752,1.878
                c0.602,0.227,1.053,0.94,1.004,1.586l-0.208,2.767c-0.048,0.64,0.437,1.203,1.075,1.251l3.18,0.238
                c0.641,0.048,1.203-0.437,1.252-1.076l0.207-2.766c0.049-0.646,0.602-1.284,1.228-1.419l3.986-1.297
                c0.583-0.264,1.405-0.085,1.825,0.401l1.812,2.1C290.508,38.015,291.242,38.069,291.73,37.648z M279.013,30.51
                c-5.13-0.386-8.976-4.856-8.592-9.976c0.385-5.129,4.854-8.976,9.985-8.591c5.125,0.385,8.969,4.854,8.584,9.984
                C288.606,27.047,284.138,30.894,279.013,30.51z" data-elvn="wheelC, in, 3000, 300, backout" class="elvn-layer"></path>
            <path id="Shape_21_" fill="#FE804C" stroke="#0E3C54" stroke-width="2" d="M265.207,67.714l2.351-0.579
                c0.476-0.117,0.769-0.6,0.647-1.073l-0.506-2.043c-0.117-0.477,0.133-1.069,0.558-1.312l2.558-1.89
                c0.361-0.331,1-0.395,1.418-0.143l1.803,1.089c0.417,0.252,0.969,0.12,1.22-0.296l1.253-2.073
                c0.252-0.417,0.112-0.968-0.305-1.221l-1.803-1.089c-0.418-0.252-0.66-0.845-0.537-1.315l0.486-3.15
                c0.024-0.486,0.422-0.979,0.896-1.096l2.047-0.506c0.477-0.117,0.769-0.601,0.648-1.073l-0.58-2.351
                c-0.119-0.474-0.598-0.764-1.072-0.647l-2.048,0.505c-0.475,0.117-1.063-0.132-1.308-0.554l-1.891-2.564
                c-0.33-0.358-0.393-0.993-0.141-1.411l1.091-1.807c0.251-0.415,0.117-0.966-0.3-1.217l-2.073-1.252
                c-0.417-0.252-0.966-0.114-1.216,0.301l-1.092,1.807c-0.252,0.417-0.844,0.656-1.314,0.533l-3.154-0.483
                c-0.486-0.02-0.98-0.425-1.096-0.898l-0.505-2.047c-0.118-0.474-0.602-0.766-1.071-0.647l-2.354,0.585
                c-0.473,0.11-0.764,0.593-0.646,1.068l0.504,2.048c0.119,0.475-0.133,1.055-0.551,1.303l-2.566,1.896
                c-0.357,0.328-0.994,0.391-1.41,0.14l-1.808-1.092c-0.417-0.252-0.966-0.115-1.217,0.301l-1.253,2.074
                c-0.25,0.415-0.115,0.962,0.303,1.215l1.807,1.091c0.417,0.252,0.656,0.846,0.529,1.319l-0.479,3.146
                c-0.029,0.493-0.426,0.986-0.902,1.104l-2.045,0.502c-0.473,0.115-0.766,0.597-0.646,1.073l0.58,2.35
                c0.113,0.473,0.597,0.766,1.072,0.647l2.045-0.503c0.475-0.116,1.06,0.132,1.305,0.553l1.898,2.56
                c0.33,0.359,0.391,0.999,0.137,1.419l-1.089,1.804c-0.253,0.417-0.118,0.965,0.3,1.217l2.072,1.252
                c0.418,0.252,0.965,0.117,1.218-0.301l1.089-1.803c0.254-0.42,0.848-0.664,1.318-0.54l3.146,0.487
                c0.486,0.021,0.98,0.425,1.1,0.898l0.507,2.045C264.254,67.542,264.732,67.832,265.207,67.714z M259.037,58.515
                c-3.346-2.021-4.418-6.37-2.403-9.707c2.021-3.345,6.369-4.418,9.714-2.397c3.342,2.017,4.414,6.366,2.395,9.71
                C266.727,59.458,262.378,60.532,259.037,58.515z" data-elvn="wheelC, in, 3200, 300, backout" class="elvn-layer"></path>
            <rect id="Rectangle-path_8_" x="82.316" y="14.983" fill="none" width="142.912" height="11.53"></rect>
            <path id="Shape_22_" fill="none" stroke="#0E3C54" stroke-width="2" stroke-dasharray="2" d="M284.43,123.724v34.775l-0.019,1.013
                v5.334c0,0,0.521,6.38-6.38,6.38h-7.011" data-elvn="maskSlideB, in, 2400, 200, linear" class="elvn-layer"></path>
            <path id="Shape_23_" fill="none" stroke="#0E3C54" stroke-width="2" stroke-dasharray="2" d="M66.798,102.577l0.009,11.292v5.334
                c0,0-0.521,6.38,6.38,6.38h37.46" data-elvn="maskSlideB, in, 600, 200, linear" class="elvn-layer"></path>
            <path id="Shape_24_" fill="none" stroke="#0E3C54" stroke-width="2" stroke-dasharray="2" d="M199.579,48.677v-5.334
                c0,0-0.522-6.38,6.38-6.38h6.499h2.458h16.01c6.901,0,6.38-6.38,6.38-6.38v-5.334l0.019-1.013v-5.334c0,0-0.521-6.38,6.379-6.38
                h23.248" data-elvn="maskSlideL, in, 2800, 200, linear" class="elvn-layer"></path>
            <path id="Shape_25_" fill="none" stroke="#0E3C54" stroke-width="2" stroke-dasharray="2" d="M11.513,15.927v12.68
                c0,0-0.521,6.38,6.38,6.38h26.011l1.731,0.009h5.334c0,0,6.38-0.521,6.38,6.38v2.827" data-elvn="maskSlideB, in, 1100, 300, linear" class="elvn-layer"></path>
            <g id="dotted" transform="translate(75.000000, 37.000000)" data-elvn="maskSlideL, in, 2400, 200, linear" class="elvn-layer">
                <path id="Shape_26_" fill="none" stroke="#0E3C54" stroke-width="2" stroke-dasharray="2" d="M13.707,11.874V6.54
                    c0,0-0.522-6.38,6.38-6.38H44.33l14.608,0.032h5.334c0,0,6.38-0.521,6.38,6.38v4.422"></path>
                <path id="Shape_27_" fill="none" stroke="#0E3C54" stroke-width="2" stroke-dasharray="2" d="M13.727,13.889l0.024,5.11
                    c0,0,0.521,6.38-6.38,6.38H0.872"></path>
            </g>
            <path id="Shape_28_" fill="none" stroke="#0E3C54" stroke-width="2" stroke-dasharray="2" d="M223.529,191.236h-13.441
                c0,0-6.379,0.521-6.379-6.38v-5.904l0.277-4.161v-6.499c0-6.901-6.379-6.38-6.379-6.38h-5.334" data-elvn="maskSlideL, in, 1700, 200, linear" class="elvn-layer"></path>
            <circle id="Oval_7_" fill="#FFFFFF" stroke="#FE5D4C" stroke-width="2" cx="8.608" cy="173.729" r="2.416" data-elvn="fadeShortL, in, 3400, 200, linear" class="elvn-layer"></circle>
            <circle id="Oval_8_" fill="#FFFFFF" stroke="#FE5D4C" stroke-width="2" cx="8.608" cy="192.948" r="2.416" data-elvn="fadeShortL, in, 3500, 200, linear" class="elvn-layer"></circle>
            <circle id="Oval_9_" fill="#FFFFFF" stroke="#FE5D4C" stroke-width="2" cx="3.356" cy="57.642" r="2.416" data-elvn="fadeShortL, in, 1500, 200, linear" class="elvn-layer"></circle>
            <circle id="Oval_10_" fill="#FFFFFF" stroke="#FE5D4C" stroke-width="2" cx="3.356" cy="76.86" r="2.416" data-elvn="fadeShortL, in, 1400, 200, linear" class="elvn-layer"></circle>
            <circle id="Oval_11_" fill="#FFFFFF" stroke="#FE5D4C" stroke-width="2" cx="101.598" cy="66.438" r="2.416" data-elvn="fadeShortL, in, 700, 200, linear" class="elvn-layer"></circle>
            <circle id="Oval_12_" fill="#FFFFFF" stroke="#FE5D4C" stroke-width="2" cx="101.598" cy="85.657" r="2.416" data-elvn="fadeShortL, in, 600, 200, linear" class="elvn-layer"></circle>
            <circle id="Oval_13_" fill="#FFFFFF" stroke="#FE5D4C" stroke-width="2" cx="295.758" cy="170.903" r="2.416" data-elvn="fadeShortL, in, 1900, 200, linear" class="elvn-layer"></circle>
            <circle id="Oval_14_" fill="#FFFFFF" stroke="#FE5D4C" stroke-width="2" cx="295.758" cy="190.122" r="2.416" data-elvn="fadeShortL, in, 2000, 200, linear" class="elvn-layer"></circle>
            <circle id="Oval_15_" fill="#FFFFFF" stroke="#FE5D4C" stroke-width="2" cx="298.174" cy="52.074" r="2.416" data-elvn="fadeShortL, in, 2800, 200, linear" class="elvn-layer"></circle>
            <circle id="Oval_16_" fill="#FFFFFF" stroke="#FE5D4C" stroke-width="2" cx="298.174" cy="71.293" r="2.416" data-elvn="fadeShortL, in, 2900, 200, linear" class="elvn-layer"></circle>
            <circle id="Oval_17_" fill="#FFFFFF" stroke="#FE5D4C" stroke-width="2" cx="211.981" cy="148.997" r="2.416" data-elvn="fadeShortL, in, 1600, 200, linear" class="elvn-layer"></circle>
            <g id="notebook" transform="translate(76.000000, 100.000000)" data-elvn="scaleTR, in, 300, 300, backout" class="elvn-layer">
                <path id="Shape_29_" fill="#FFFFFF" stroke="#0E3C54" stroke-width="2" d="M0.62,63.223v0.951v0.132v0.041h0.035
                    c2.269,2.842,3.877,2.426,4.332,2.426l52.917-0.009l45.357,0.009h8.406c0.783-0.094,1.99-0.552,3.482-2.426h0.019v-0.012v-0.161
                    v-0.951H0.62z"></path>
                <path id="Shape_30_" fill="#FFFFFF" stroke="#0E3C54" stroke-width="2" d="M102.365,59.375c0,2.015-1.635,3.657-3.652,3.657
                    H17.067c-2.02,0-3.655-1.643-3.655-3.657V4.242c0-2.026,1.636-3.668,3.655-3.668h81.646c2.018,0,3.652,1.642,3.652,3.668V59.375z
                    "></path>
                <path id="Shape_31_" fill="#FE804C" stroke="#0E3C54" stroke-width="2" d="M0.62,60.204v3.309
                    c0.424,0.059,0.867,0.091,1.337,0.091h111.867c0.473,0,0.919-0.032,1.345-0.091v-3.309H0.62z"></path>

                    <rect id="Rectangle-path_9_" x="17.479" y="4.834" fill="#FFFFFF" stroke="#0E3C54" stroke-width="2" width="80.92" height="51.107"></rect>
                <rect id="Rectangle-path_10_" x="25.598" y="12.288" fill="#34525C" width="60.388" height="2.061"></rect>
                <rect id="Rectangle-path_11_" x="25.598" y="16.918" fill="#34525C" width="44.541" height="2.061"></rect>
                <rect id="Rectangle-path_12_" x="25.598" y="23.724" fill="#34525C" width="60.388" height="2.061"></rect>
                <rect id="Rectangle-path_13_" x="25.598" y="28.354" fill="#34525C" width="44.541" height="2.061"></rect>

                    <rect id="Rectangle-path_14_" x="25.598" y="34.438" fill="#FFFFFF" stroke="#0E3C54" stroke-width="2" width="60.388" height="14.89"></rect>
            </g>
            <g id="bars" transform="translate(248.000000, 88.000000)" data-elvn="scaleB, in, 2600, 300, backout" class="elvn-layer">

                    <rect id="Rectangle-path_15_" x="0.959" y="0.239" fill="#FE804C" stroke="#0E3C54" stroke-width="2" width="51.104" height="10.938"></rect>

                    <rect id="Rectangle-path_16_" x="0.959" y="0.239" fill="#FFFFFF" stroke="#0E3C54" stroke-width="2" width="44.961" height="10.938"></rect>

                    <rect id="Rectangle-path_17_" x="0.959" y="11.177" fill="#FE804C" stroke="#0E3C54" stroke-width="2" width="51.104" height="10.938"></rect>

                    <rect id="Rectangle-path_18_" x="0.959" y="22.164" fill="#FE804C" stroke="#0E3C54" stroke-width="2" width="51.104" height="10.938"></rect>

                    <rect id="Rectangle-path_19_" x="0.959" y="11.177" fill="#FFFFFF" stroke="#0E3C54" stroke-width="2" width="26.852" height="10.938"></rect>

                    <rect id="Rectangle-path_20_" x="0.959" y="22.164" fill="#FFFFFF" stroke="#0E3C54" stroke-width="2" width="38.232" height="10.938"></rect>
            </g>
            <g id="bubble" transform="translate(6.000000, 119.000000)" data-elvn="scaleC, in, 3200, 300, backout" class="elvn-layer">
                <path id="Shape_32_" fill="#FFFFFF" stroke="#0E3C54" stroke-width="2" d="M58.014,27.834L50.921,11.23V4.102
                    c0-2.261-1.831-4.094-4.091-4.094H5.09c-2.258,0-4.091,1.833-4.091,4.094v24.005c0,2.262,1.833,4.095,4.091,4.095h41.74
                    c2.26,0,4.091-1.833,4.091-4.095V26.98L58.014,27.834z"></path>
                <rect id="Rectangle-path_21_" x="9.098" y="6.009" fill="#34525C" width="33.389" height="2.061"></rect>
                <rect id="Rectangle-path_22_" x="9.098" y="10.639" fill="#34525C" width="24.626" height="2.061"></rect>
                <rect id="Rectangle-path_23_" x="9.098" y="19.105" fill="#34525C" width="33.389" height="2.061"></rect>
                <rect id="Rectangle-path_24_" x="9.098" y="23.735" fill="#34525C" width="24.626" height="2.061"></rect>
            </g>
        </g>
    </g>
</svg>
