<svg class="enliven" version="1.1" id="Layer_4" xmlns="http://www.w3.org/2000/svg" xmlns:xlink="http://www.w3.org/1999/xlink" x="0px" y="0px" viewBox="0 0 336 236" enable-background="new 0 0 336 236" xml:space="preserve" data-global-elvn="enableViewport, disableClick, none, startInvisible, notResponsive, 500, notLoop, 500">
    <g id="Page-1" xmlns="http://www.w3.org/2000/svg">
        <g id="m_11">
            <g id="Group" transform="translate(279.000000, 123.000000)" data-elvn="wheelC, in, 2000, 300, backout" class="elvn-layer">
                <path id="Shape" fill="none" d="M8.066,8.666l8.376,0.01c2.569,0.001,4.673-1.231,4.676-2.741c0-1.51-2.101-2.749-4.67-2.751
                    L5.806,3.173C3.236,3.17,1.133,4.96,1.131,7.152c-0.003,2.19,2.098,3.986,4.666,3.989l16.752,0.017
                    c2.571,0.003,4.608-2.096,4.528-4.665l-0.032-1.065c-0.078-2.567-2.244-4.671-4.814-4.675L12.204,0.742"></path>
                <path id="Shape_1_" fill="#231F20" d="M26.24,10.327c-0.981,0.979-2.288,1.518-3.69,1.516L5.798,11.827
                    c-1.406-0.002-2.734-0.477-3.742-1.339C1.017,9.6,0.445,8.415,0.447,7.151s0.57-2.441,1.615-3.333
                    c1.01-0.858,2.34-1.332,3.746-1.33L16.45,2.5c3.224,0.003,4.692,1.782,4.692,3.433c-0.003,1.654-1.475,3.429-4.7,3.428
                    L8.066,9.352l0.002-1.37l8.375,0.01c1.99,0,3.328-0.826,3.33-2.059c0-1.233-1.336-2.062-3.325-2.064L5.806,3.858
                    C4.726,3.857,3.711,4.213,2.95,4.861C2.215,5.486,1.817,6.299,1.816,7.154c0,0.856,0.4,1.671,1.13,2.295
                    c0.761,0.649,1.773,1.008,2.854,1.009l16.753,0.017c1.055,0.002,2.055-0.389,2.766-1.161c0.728-0.749,1.109-1.743,1.076-2.798
                    L26.364,5.45c-0.068-2.209-1.921-4.009-4.132-4.011L12.206,1.428l0.001-1.369l10.026,0.012c2.942,0.002,5.409,2.396,5.499,5.336
                    l0.032,1.068c0.044,1.428-0.476,2.775-1.463,3.792C26.28,10.286,26.261,10.308,26.24,10.327z"></path>
            </g>
            <g id="Group_1_" transform="translate(259.000000, 108.000000)" data-elvn="wheelC, in, 1800, 300, backout" class="elvn-layer">
                <path id="Shape_2_" fill="none" d="M14.24,5.844l-5.93,5.915c-1.817,1.817-2.434,4.176-1.368,5.245
                    c1.067,1.068,3.43,0.459,5.248-1.356l7.531-7.518c1.82-1.814,2.041-4.567,0.492-6.119c-1.547-1.551-4.302-1.336-6.121,0.479
                    L2.236,14.324c-1.82,1.816-1.776,4.74,0.097,6.5l0.776,0.73c1.871,1.761,4.89,1.717,6.71-0.099l7.098-7.082"></path>
                <path id="Shape_3_" fill="#231F20" d="M0.215,17.521c0.001-1.387,0.545-2.691,1.538-3.682L13.608,2.005
                    c0.996-0.992,2.271-1.597,3.594-1.699c1.361-0.107,2.604,0.326,3.496,1.222c0.893,0.895,1.324,2.129,1.215,3.499
                    c-0.106,1.32-0.712,2.596-1.707,3.588l-7.533,7.518c-2.282,2.277-4.578,2.058-5.746,0.891c-1.167-1.172-1.381-3.467,0.9-5.747
                    l5.929-5.917l0.968,0.97l-5.93,5.916c-1.407,1.407-1.769,2.937-0.898,3.81c0.872,0.873,2.402,0.515,3.811-0.891l7.533-7.518
                    c0.764-0.763,1.229-1.732,1.311-2.729c0.078-0.963-0.216-1.818-0.82-2.423c-0.605-0.606-1.465-0.899-2.422-0.824
                    c-0.997,0.079-1.967,0.541-2.73,1.304L2.722,14.809c-0.748,0.746-1.179,1.729-1.135,2.777c0.015,1.045,0.447,2.018,1.217,2.74
                    l0.776,0.731c1.61,1.514,4.192,1.477,5.758-0.086l7.098-7.082l0.967,0.969l-7.099,7.082c-2.081,2.079-5.519,2.13-7.66,0.114
                    l-0.778-0.732c-1.041-0.979-1.627-2.299-1.647-3.715C0.216,17.577,0.214,17.548,0.215,17.521z"></path>
            </g>
            <g id="Group_2_" transform="translate(21.000000, 16.000000)" data-elvn="wheelC, in, 1400, 300, backout" class="elvn-layer">
                <path id="Shape_4_" fill="none" d="M20.385,4.12L12.01,4.11C9.44,4.109,7.337,5.341,7.334,6.851
                    c-0.001,1.51,2.1,2.749,4.669,2.751l10.642,0.011c2.57,0.003,4.673-1.787,4.675-3.979c0.002-2.19-2.098-3.986-4.667-3.989
                    L5.901,1.628C3.33,1.625,1.293,3.724,1.373,6.293l0.032,1.065c0.079,2.567,2.245,4.671,4.815,4.675l10.027,0.011"></path>
                <path id="Shape_5_" fill="#231F20" d="M2.211,2.459C3.192,1.48,4.5,0.941,5.901,0.943l16.752,0.016
                    c1.406,0.002,2.734,0.477,3.742,1.339c1.039,0.888,1.611,2.073,1.609,3.337c-0.001,1.264-0.57,2.441-1.615,3.333
                    c-1.009,0.858-2.339,1.332-3.745,1.33l-10.642-0.012C8.778,10.283,7.31,8.504,7.31,6.853c0.003-1.654,1.475-3.429,4.7-3.428
                    l8.376,0.009l-0.001,1.37l-8.375-0.01c-1.991,0-3.328,0.826-3.33,2.059c0,1.233,1.335,2.062,3.325,2.064l10.642,0.011
                    c1.08,0.001,2.095-0.355,2.856-1.003c0.735-0.625,1.133-1.438,1.133-2.293c0-0.856-0.4-1.671-1.129-2.295
                    c-0.761-0.649-1.773-1.008-2.854-1.009L5.9,2.312C4.844,2.31,3.844,2.701,3.134,3.473C2.406,4.222,2.025,5.216,2.057,6.271
                    l0.032,1.066c0.068,2.209,1.921,4.009,4.132,4.011l10.027,0.011l-0.001,1.369L6.22,12.716C3.278,12.714,0.811,10.32,0.721,7.38
                    L0.689,6.312C0.645,4.884,1.164,3.537,2.151,2.52C2.171,2.5,2.191,2.479,2.211,2.459z"></path>
            </g>
            <g id="Group_3_" transform="translate(47.000000, 20.000000)" data-elvn="wheelC, in, 1200, 300, backout" class="elvn-layer">
                <path id="Shape_6_" fill="none" d="M8.211,17.942l5.93-5.915c1.817-1.817,2.434-4.176,1.368-5.245
                    c-1.067-1.068-3.429-0.459-5.247,1.356L2.73,15.656c-1.819,1.814-2.041,4.567-0.492,6.119c1.547,1.551,4.302,1.336,6.121-0.479
                    L20.216,9.462c1.82-1.816,1.777-4.74-0.097-6.5l-0.776-0.73c-1.871-1.761-4.89-1.717-6.71,0.099L5.535,9.413"></path>
                <path id="Shape_7_" fill="#231F20" d="M22.236,6.266c-0.001,1.387-0.545,2.691-1.538,3.682L8.842,21.781
                    c-0.995,0.992-2.271,1.597-3.593,1.699c-1.362,0.107-2.605-0.326-3.497-1.222c-0.893-0.895-1.324-2.129-1.215-3.499
                    c0.107-1.32,0.712-2.596,1.708-3.588l7.534-7.518c2.282-2.277,4.578-2.058,5.745-0.891c1.167,1.172,1.382,3.467-0.9,5.747
                    l-5.929,5.917l-0.968-0.97l5.929-5.916c1.408-1.407,1.769-2.937,0.899-3.81c-0.872-0.873-2.403-0.515-3.811,0.891l-7.533,7.518
                    c-0.764,0.763-1.23,1.732-1.311,2.729c-0.078,0.963,0.215,1.818,0.82,2.423c0.605,0.606,1.464,0.899,2.421,0.824
                    c0.998-0.079,1.967-0.541,2.731-1.304L19.73,8.977c0.748-0.746,1.178-1.729,1.135-2.777c-0.015-1.045-0.448-2.018-1.217-2.74
                    l-0.776-0.731c-1.61-1.514-4.193-1.477-5.758,0.086L6.016,9.897L5.049,8.928l7.098-7.082c2.082-2.079,5.519-2.13,7.661-0.114
                    l0.778,0.732c1.041,0.979,1.627,2.299,1.647,3.715C22.236,6.209,22.237,6.238,22.236,6.266z"></path>
            </g>
            <g id="Group_4_" transform="translate(268.000000, 28.000000)" data-elvn="fadeShortR, in, 1000, 300, backout" class="elvn-layer">
                <path id="Shape_8_" fill="#FFFFFF" stroke="#0E3C54" stroke-width="2" stroke-linejoin="round" d="M34.993,0.901
                    c2.278,0,4.127,1.847,4.127,4.126v55.688c0,2.278-1.849,4.125-4.127,4.125H4.552c-2.273,0-4.121-1.847-4.121-4.125V5.027
                    c0-2.279,1.848-4.126,4.121-4.126H34.993z"></path>

                    <rect id="Rectangle-path_1_" x="8.499" y="0.901" fill="#FF1294" stroke="#45566B" stroke-width="2" width="8.296" height="63.939"></rect>
                <path id="Shape_9_" fill="#FF1294" stroke="#45566B" stroke-width="2" d="M29.446,44.307c0.854,0,1.544,0.691,1.544,1.544V56.4
                    c0,0.852-0.69,1.543-1.544,1.543h-6.174c-0.854,0-1.544-0.691-1.544-1.543V45.85c0-0.853,0.69-1.544,1.544-1.544L29.446,44.307
                    L29.446,44.307z"></path>
            </g>
            <g id="Group-2" transform="translate(87.000000, 50.000000)" data-elvn="stamp, in, 0, 300, backout" class="elvn-layer">
                <path id="Shape_10_" fill="#FFFFFF" stroke="#0E3C54" stroke-width="2" d="M148.519,47.082c0-1.2-0.973-2.173-2.174-2.173
                    l-129.973-0.01c-1.199,0-2.172,0.975-2.172,2.175l-0.006,73.896c0,1.199,0.973,2.175,2.175,2.175l129.972,0.01
                    c1.199,0,2.172-0.974,2.174-2.176L148.519,47.082z"></path>
                <path id="Shape_11_" fill="#FF1294" stroke="#45566B" stroke-width="2" d="M138.53,92.739c0,0.593-0.447,1.072-1,1.072H25.187
                    c-0.552,0-1-0.479-1-1.072V55.6c0-0.594,0.448-1.073,1-1.073H137.53c0.553,0,1,0.479,1,1.073V92.739z"></path>
                <g id="Group_5_">
                    <path id="Shape_12_" fill="#77C04B" d="M149.413,41.281c-0.731,2.075-3.13,3.772-5.33,3.772L18.632,45.044
                        c-2.2,0-4.598-1.698-5.329-3.772L0.248,4.188C-0.483,2.112,0.72,0.415,2.919,0.415l156.884,0.013c2.2,0,3.402,1.698,2.672,3.772
                        L149.413,41.281z"></path>
                    <path id="Shape_13_" fill="none" stroke="#44566B" stroke-width="2" d="M149.413,41.281c-0.731,2.075-3.13,3.772-5.33,3.772
                        L18.632,45.044c-2.2,0-4.598-1.698-5.329-3.772L0.248,4.188C-0.483,2.112,0.72,0.415,2.919,0.415l156.884,0.013
                        c2.2,0,3.402,1.698,2.672,3.772L149.413,41.281z"></path>
                </g>
                <polygon id="Shape_14_" fill="#FFFFFF" stroke="#0E3C54" stroke-width="2" points="143.425,41.112 19.289,41.104 6.889,4.905
                    154.829,4.916 			"></polygon>

                    <rect id="Rectangle-path_2_" x="24.187" y="41.522" fill="#FFFFFF" stroke="#0E3C54" stroke-width="2" width="114.343" height="6.483"></rect>
                <path id="Shape_15_" fill="#77C04B" stroke="#44566B" stroke-width="2" d="M109.599,115.812c0,0.552-0.447,1-1,1H54.88
                    c-0.552,0-1-0.448-1-1V98.725c0-0.553,0.448-1,1-1h53.719c0.553,0,1,0.447,1,1V115.812z"></path>
                <path id="Shape_16_" fill="#FFFFFF" stroke="#0E3C54" stroke-width="2" d="M108.599,97.726H98.468v19.087h10.131
                    c0.553,0,1-0.448,1-1V98.726C109.599,98.173,109.151,97.726,108.599,97.726z"></path>
                <path id="Shape_17_" fill="#FFFFFF" stroke="#0E3C54" stroke-width="2" d="M109.599,107.812v-9.087c0-0.553-0.447-1-1-1H98.468
                    v10.087H109.599z"></path>
                <path id="Shape_18_" fill="#FFFFFF" stroke="#0E3C54" stroke-width="2" d="M39.095,63.104c0,0.501-0.406,0.907-0.907,0.907
                    h-7.983c-0.501,0-0.907-0.406-0.907-0.907v-3.905c0-0.501,0.406-0.907,0.907-0.907h7.983c0.501,0,0.907,0.406,0.907,0.907V63.104
                    z"></path>
                <path id="Shape_19_" fill="#FFFFFF" stroke="#0E3C54" stroke-width="2" d="M52.595,63.104c0,0.501-0.406,0.907-0.907,0.907
                    h-7.983c-0.501,0-0.907-0.406-0.907-0.907v-3.905c0-0.501,0.406-0.907,0.907-0.907h7.983c0.501,0,0.907,0.406,0.907,0.907V63.104
                    z"></path>
                <path id="Shape_20_" fill="#FFFFFF" stroke="#0E3C54" stroke-width="2" d="M66.095,63.104c0,0.501-0.406,0.907-0.907,0.907
                    h-7.983c-0.501,0-0.907-0.406-0.907-0.907v-3.905c0-0.501,0.406-0.907,0.907-0.907h7.983c0.501,0,0.907,0.406,0.907,0.907V63.104
                    z"></path>
                <path id="Shape_21_" fill="#FFFFFF" stroke="#0E3C54" stroke-width="2" d="M79.595,63.104c0,0.501-0.406,0.907-0.907,0.907
                    h-7.983c-0.501,0-0.907-0.406-0.907-0.907v-3.905c0-0.501,0.406-0.907,0.907-0.907h7.983c0.501,0,0.907,0.406,0.907,0.907V63.104
                    z"></path>
                <path id="Shape_22_" fill="#FFFFFF" stroke="#0E3C54" stroke-width="2" d="M93.095,63.104c0,0.501-0.406,0.907-0.906,0.907
                    h-7.983c-0.502,0-0.908-0.406-0.908-0.907v-3.905c0-0.501,0.406-0.907,0.908-0.907h7.983c0.5,0,0.906,0.406,0.906,0.907V63.104z"></path>
                <path id="Shape_23_" fill="#FFFFFF" stroke="#0E3C54" stroke-width="2" d="M106.595,63.104c0,0.501-0.406,0.907-0.906,0.907
                    h-7.984c-0.5,0-0.906-0.406-0.906-0.907v-3.905c0-0.501,0.406-0.907,0.906-0.907h7.984c0.5,0,0.906,0.406,0.906,0.907V63.104z"></path>
                <path id="Shape_24_" fill="#FFFFFF" stroke="#0E3C54" stroke-width="2" d="M120.095,63.104c0,0.501-0.406,0.907-0.906,0.907
                    h-7.984c-0.5,0-0.906-0.406-0.906-0.907v-3.905c0-0.501,0.406-0.907,0.906-0.907h7.984c0.5,0,0.906,0.406,0.906,0.907V63.104z"></path>
                <path id="Shape_25_" fill="#FFFFFF" stroke="#0E3C54" stroke-width="2" d="M133.595,63.104c0,0.501-0.406,0.907-0.906,0.907
                    h-7.984c-0.5,0-0.906-0.406-0.906-0.907v-3.905c0-0.501,0.406-0.907,0.906-0.907h7.984c0.5,0,0.906,0.406,0.906,0.907V63.104z"></path>
                <path id="Shape_26_" fill="#FFFFFF" stroke="#0E3C54" stroke-width="2" d="M39.095,71.608c0,0.501-0.406,0.907-0.907,0.907
                    h-7.983c-0.501,0-0.907-0.406-0.907-0.907v-3.905c0-0.501,0.406-0.907,0.907-0.907h7.983c0.501,0,0.907,0.406,0.907,0.907V71.608
                    z"></path>
                <path id="Shape_27_" fill="#FFFFFF" stroke="#0E3C54" stroke-width="2" d="M52.595,71.608c0,0.501-0.406,0.907-0.907,0.907
                    h-7.983c-0.501,0-0.907-0.406-0.907-0.907v-3.905c0-0.501,0.406-0.907,0.907-0.907h7.983c0.501,0,0.907,0.406,0.907,0.907V71.608
                    z"></path>
                <path id="Shape_28_" fill="#FFFFFF" stroke="#0E3C54" stroke-width="2" d="M66.095,71.608c0,0.501-0.406,0.907-0.907,0.907
                    h-7.983c-0.501,0-0.907-0.406-0.907-0.907v-3.905c0-0.501,0.406-0.907,0.907-0.907h7.983c0.501,0,0.907,0.406,0.907,0.907V71.608
                    z"></path>
                <path id="Shape_29_" fill="#FFFFFF" stroke="#0E3C54" stroke-width="2" d="M79.595,71.608c0,0.501-0.406,0.907-0.907,0.907
                    h-7.983c-0.501,0-0.907-0.406-0.907-0.907v-3.905c0-0.501,0.406-0.907,0.907-0.907h7.983c0.501,0,0.907,0.406,0.907,0.907V71.608
                    z"></path>
                <path id="Shape_30_" fill="#FFFFFF" stroke="#0E3C54" stroke-width="2" d="M93.095,71.608c0,0.501-0.406,0.907-0.906,0.907
                    h-7.983c-0.502,0-0.908-0.406-0.908-0.907v-3.905c0-0.501,0.406-0.907,0.908-0.907h7.983c0.5,0,0.906,0.406,0.906,0.907V71.608z"></path>
                <path id="Shape_31_" fill="#FFFFFF" stroke="#0E3C54" stroke-width="2" d="M106.595,71.608c0,0.501-0.406,0.907-0.906,0.907
                    h-7.984c-0.5,0-0.906-0.406-0.906-0.907v-3.905c0-0.501,0.406-0.907,0.906-0.907h7.984c0.5,0,0.906,0.406,0.906,0.907V71.608z"></path>
                <path id="Shape_32_" fill="#FFFFFF" stroke="#0E3C54" stroke-width="2" d="M120.095,71.608c0,0.501-0.406,0.907-0.906,0.907
                    h-7.984c-0.5,0-0.906-0.406-0.906-0.907v-3.905c0-0.501,0.406-0.907,0.906-0.907h7.984c0.5,0,0.906,0.406,0.906,0.907V71.608z"></path>
                <path id="Shape_33_" fill="#FFFFFF" stroke="#0E3C54" stroke-width="2" d="M39.095,80.112c0,0.501-0.406,0.907-0.907,0.907
                    h-7.983c-0.501,0-0.907-0.406-0.907-0.907v-3.905c0-0.501,0.406-0.907,0.907-0.907h7.983c0.501,0,0.907,0.406,0.907,0.907V80.112
                    z"></path>
                <path id="Shape_34_" fill="#FFFFFF" stroke="#0E3C54" stroke-width="2" d="M52.595,80.112c0,0.501-0.406,0.907-0.907,0.907
                    h-7.983c-0.501,0-0.907-0.406-0.907-0.907v-3.905c0-0.501,0.406-0.907,0.907-0.907h7.983c0.501,0,0.907,0.406,0.907,0.907V80.112
                    z"></path>
                <path id="Shape_35_" fill="#FFFFFF" stroke="#0E3C54" stroke-width="2" d="M66.095,80.112c0,0.501-0.406,0.907-0.907,0.907
                    h-7.983c-0.501,0-0.907-0.406-0.907-0.907v-3.905c0-0.501,0.406-0.907,0.907-0.907h7.983c0.501,0,0.907,0.406,0.907,0.907V80.112
                    z"></path>
                <path id="Shape_36_" fill="#FFFFFF" stroke="#0E3C54" stroke-width="2" d="M79.595,80.112c0,0.501-0.406,0.907-0.907,0.907
                    h-7.983c-0.501,0-0.907-0.406-0.907-0.907v-3.905c0-0.501,0.406-0.907,0.907-0.907h7.983c0.501,0,0.907,0.406,0.907,0.907V80.112
                    z"></path>
                <path id="Shape_37_" fill="#FFFFFF" stroke="#0E3C54" stroke-width="2" d="M93.095,80.112c0,0.501-0.406,0.907-0.906,0.907
                    h-7.983c-0.502,0-0.908-0.406-0.908-0.907v-3.905c0-0.501,0.406-0.907,0.908-0.907h7.983c0.5,0,0.906,0.406,0.906,0.907V80.112z"></path>
                <path id="Shape_38_" fill="#FFFFFF" stroke="#0E3C54" stroke-width="2" d="M106.595,80.112c0,0.501-0.406,0.907-0.906,0.907
                    h-7.984c-0.5,0-0.906-0.406-0.906-0.907v-3.905c0-0.501,0.406-0.907,0.906-0.907h7.984c0.5,0,0.906,0.406,0.906,0.907V80.112z"></path>
                <path id="Shape_39_" fill="#FFFFFF" stroke="#0E3C54" stroke-width="2" d="M120.095,80.112c0,0.501-0.406,0.907-0.906,0.907
                    h-7.984c-0.5,0-0.906-0.406-0.906-0.907v-3.905c0-0.501,0.406-0.907,0.906-0.907h7.984c0.5,0,0.906,0.406,0.906,0.907V80.112z"></path>
                <path id="Shape_40_" fill="#FFFFFF" stroke="#0E3C54" stroke-width="2" d="M133.595,80.112c0,0.501-0.406,0.907-0.906,0.907
                    h-7.984c-0.5,0-0.906-0.406-0.906-0.907V67.703c0-0.501,0.406-0.907,0.906-0.907h7.984c0.5,0,0.906,0.406,0.906,0.907V80.112z"></path>
                <path id="Shape_41_" fill="#FFFFFF" stroke="#0E3C54" stroke-width="2" d="M39.095,88.616c0,0.501-0.406,0.907-0.907,0.907
                    h-7.983c-0.501,0-0.907-0.406-0.907-0.907v-3.905c0-0.501,0.406-0.907,0.907-0.907h7.983c0.501,0,0.907,0.406,0.907,0.907V88.616
                    z"></path>
                <path id="Shape_42_" fill="#FFFFFF" stroke="#0E3C54" stroke-width="2" d="M52.595,88.616c0,0.501-0.406,0.907-0.907,0.907
                    h-7.983c-0.501,0-0.907-0.406-0.907-0.907v-3.905c0-0.501,0.406-0.907,0.907-0.907h7.983c0.501,0,0.907,0.406,0.907,0.907V88.616
                    z"></path>
                <path id="Shape_43_" fill="#FFFFFF" stroke="#0E3C54" stroke-width="2" d="M93.549,88.616c0,0.501-0.406,0.907-0.907,0.907
                    H57.205c-0.501,0-0.907-0.406-0.907-0.907v-3.905c0-0.501,0.406-0.907,0.907-0.907h35.437c0.501,0,0.907,0.406,0.907,0.907
                    V88.616z"></path>
                <path id="Shape_44_" fill="#FFFFFF" stroke="#0E3C54" stroke-width="2" d="M106.595,88.616c0,0.501-0.406,0.907-0.906,0.907
                    h-7.984c-0.5,0-0.906-0.406-0.906-0.907v-3.905c0-0.501,0.406-0.907,0.906-0.907h7.984c0.5,0,0.906,0.406,0.906,0.907V88.616z"></path>
                <path id="Shape_45_" fill="#FFFFFF" stroke="#0E3C54" stroke-width="2" d="M120.095,88.616c0,0.501-0.406,0.907-0.906,0.907
                    h-7.984c-0.5,0-0.906-0.406-0.906-0.907v-3.905c0-0.501,0.406-0.907,0.906-0.907h7.984c0.5,0,0.906,0.406,0.906,0.907V88.616z"></path>
                <path id="Shape_46_" fill="#FFFFFF" stroke="#0E3C54" stroke-width="2" d="M133.595,88.616c0,0.501-0.406,0.907-0.906,0.907
                    h-7.984c-0.5,0-0.906-0.406-0.906-0.907v-3.905c0-0.501,0.406-0.907,0.906-0.907h7.984c0.5,0,0.906,0.406,0.906,0.907V88.616z"></path>
            </g>
            <rect id="Rectangle-path_3_" x="108.236" y="207.876" fill="none" width="120.63" height="11.535"></rect>

                <rect id="searchinput" x="108.981" y="19.246" fill="#FFFFFF" stroke="#0E3C54" stroke-width="2" stroke-linejoin="round" width="120.63" height="16.962" data-elvn="scaleC, in, 300, 300, backout" class="elvn-layer"></rect>
            <g id="search" transform="translate(200.000000, 15.000000)" data-elvn="fadeShortB, in, 500, 300, backout" class="elvn-layer">
                <circle id="Oval" fill="#FFFFFF" stroke="#0E3C54" stroke-width="2" stroke-linejoin="round" cx="11.452" cy="11.38" r="8.062"></circle>
                <path id="Shape_47_" fill="#FFFFFF" stroke="#0E3C54" stroke-width="2" stroke-linejoin="round" d="M30.243,26.225l-9.024-9.024
                    c2.437-4.271,1.826-9.814-1.814-13.461c-4.37-4.367-11.474-4.367-15.841,0c-4.367,4.369-4.367,11.478,0,15.846
                    c3.639,3.639,9.189,4.245,13.461,1.813l9.02,9.018c1.164,1.159,3.045,1.159,4.199,0C31.392,29.259,31.392,27.382,30.243,26.225
                    L30.243,26.225z M17.179,17.356c-3.145,3.133-8.244,3.133-11.385,0c-3.141-3.142-3.141-8.25,0-11.383
                    c3.141-3.138,8.24-3.138,11.385,0C20.311,9.106,20.311,14.215,17.179,17.356L17.179,17.356z"></path>
            </g>
            <g id="calc" transform="translate(21.000000, 60.000000)" data-elvn="fadeShortL, in, 800, 300, backout" class="elvn-layer">
                <path id="Shape_48_" fill="#FFFFFF" stroke="#0E3C54" stroke-width="2" d="M54.443,66.104c0,1.547-1.253,2.8-2.799,2.8H3.754
                    c-1.546,0-2.8-1.253-2.8-2.8V3.118c0-1.546,1.253-2.8,2.8-2.8h47.89c1.545,0,2.799,1.254,2.799,2.8V66.104z"></path>
                <path id="Shape_49_" fill="#FF1294" stroke="#45566B" stroke-width="2" d="M27.915,44.328c0,1.827-1.43,3.307-3.194,3.307H4.258
                    c-1.765,0-3.193-1.479-3.193-3.307V30.054c0-1.826,1.428-3.308,3.193-3.308h20.463c1.764,0,3.194,1.481,3.194,3.308V44.328
                    L27.915,44.328z"></path>
                <path id="Shape_50_" fill="#FFFFFF" stroke="#0E3C54" stroke-width="2" d="M54.129,44.328c0,1.827-1.43,3.307-3.194,3.307H30.471
                    c-1.763,0-3.193-1.479-3.193-3.307V30.054c0-1.826,1.43-3.308,3.193-3.308h20.464c1.765,0,3.194,1.481,3.194,3.308V44.328z"></path>
                <path id="Shape_51_" fill="#FFFFFF" stroke="#0E3C54" stroke-width="2" d="M27.915,65.215c0,1.829-1.43,3.309-3.194,3.309H4.258
                    c-1.765,0-3.193-1.479-3.193-3.309V50.943c0-1.826,1.428-3.308,3.193-3.308h20.463c1.764,0,3.194,1.481,3.194,3.308V65.215
                    L27.915,65.215z"></path>
                <path id="Shape_52_" fill="#FFFFFF" stroke="#0E3C54" stroke-width="2" d="M54.129,65.215c0,1.829-1.43,3.309-3.194,3.309H30.471
                    c-1.763,0-3.193-1.479-3.193-3.309V50.943c0-1.826,1.43-3.308,3.193-3.308h20.464c1.765,0,3.194,1.481,3.194,3.308V65.215z"></path>
                <path id="Shape_53_" fill="#FFFFFF" stroke="#0E3C54" stroke-width="2" d="M13.555,32.876v8.63"></path>
                <path id="Shape_54_" fill="#FFFFFF" stroke="#0E3C54" stroke-width="2" d="M9.24,37.19h8.63"></path>
                <path id="Shape_55_" fill="#FFFFFF" stroke="#0E3C54" stroke-width="2" d="M16.607,55.026l-6.103,6.106"></path>
                <path id="Shape_56_" fill="#FFFFFF" stroke="#0E3C54" stroke-width="2" d="M43.754,34.611l-6.104,6.105"></path>
                <path id="Shape_57_" fill="#FFFFFF" stroke="#0E3C54" stroke-width="2" d="M10.504,55.028l6.103,6.102"></path>
                <path id="Shape_58_" fill="#FFFFFF" stroke="#0E3C54" stroke-width="2" d="M36.388,56.038h8.629"></path>
                <path id="Shape_59_" fill="#FFFFFF" stroke="#0E3C54" stroke-width="2" d="M36.26,60.132h8.886"></path>
                <path id="Shape_60_" fill="#FFFFFF" stroke="#0E3C54" stroke-width="2" d="M37.65,34.996c0,0.484-0.392,0.878-0.876,0.878l0,0
                    c-0.485,0-0.877-0.394-0.877-0.878l0,0c0-0.483,0.393-0.876,0.877-0.876l0,0C37.258,34.12,37.65,34.513,37.65,34.996
                    L37.65,34.996z"></path>
                <path id="Shape_61_" fill="#FFFFFF" stroke="#0E3C54" stroke-width="2" d="M44.63,40.716c0,0.483-0.392,0.877-0.877,0.877l0,0
                    c-0.484,0-0.876-0.394-0.876-0.877l0,0c0-0.483,0.393-0.877,0.876-0.877l0,0C44.238,39.839,44.63,40.232,44.63,40.716
                    L44.63,40.716z"></path>
            </g>
            <g id="desk-left-bottom" transform="translate(21.000000, 149.000000)" data-elvn="fadeShortL, in, 1600, 300, backout" class="elvn-layer">
                <path id="Shape_62_" fill="#77C04B" stroke="#44566B" stroke-width="2" d="M68.033,60.139c0,1.418-1.15,2.568-2.567,2.568H3.079
                    c-1.418,0-2.568-1.15-2.568-2.568V2.681c0-1.419,1.15-2.568,2.568-2.568h62.386c1.417,0,2.567,1.149,2.567,2.568L68.033,60.139
                    L68.033,60.139z"></path>
                <path id="Shape_63_" fill="#FFFFFF" stroke="#0E3C54" stroke-width="2" d="M68.033,12.669V2.681c0-1.419-1.15-2.568-2.567-2.568
                    H3.079c-1.418,0-2.568,1.149-2.568,2.568v9.988H68.033z"></path>
                <path id="Shape_64_" fill="#FFFFFF" stroke="#0E3C54" stroke-width="2" d="M39.988,6.358c2.91,0.15,22.13,0,22.13,0"></path>
                <path id="Shape_65_" fill="#FFFFFF" stroke="#0E3C54" stroke-width="2" d="M14.601,6.358c1.119,0.15,8.501,0,8.501,0"></path>
                <path id="Shape_66_" fill="#FFFFFF" stroke="#0E3C54" stroke-width="2" d="M51.053,37.214c0,8.901-7.217,16.118-16.12,16.118
                    s-16.12-7.217-16.12-16.118c0-8.905,7.217-16.121,16.12-16.121S51.053,28.309,51.053,37.214z"></path>
                <path id="Shape_67_" fill="#FF1294" stroke="#45566B" stroke-width="2" d="M29.362,43.502c0,1.251,0.876,1.74,1.943,1.086
                    l10.143-6.187c1.067-0.659,1.067-1.722,0-2.374l-10.143-6.19c-1.067-0.656-1.943-0.164-1.943,1.088V43.502z"></path>
            </g>
            <g id="desk-right-bottom" transform="translate(248.000000, 149.000000)" data-elvn="fadeShortR, in, 2300, 300, backout" class="elvn-layer">
                <path id="Shape_68_" fill="#FF1294" stroke="#45566B" stroke-width="2" d="M67.821,60.139c0,1.419-1.15,2.568-2.568,2.568H2.866
                    c-1.419,0-2.568-1.149-2.568-2.568V2.681c0-1.418,1.149-2.568,2.568-2.568h62.387c1.418,0,2.568,1.15,2.568,2.568V60.139z"></path>
                <path id="Shape_69_" fill="#FFFFFF" stroke="#0E3C54" stroke-width="2" d="M67.821,12.669V2.681c0-1.418-1.15-2.568-2.568-2.568
                    H2.866c-1.419,0-2.568,1.15-2.568,2.568v9.988H67.821z"></path>
                <path id="Shape_70_" fill="#FFFFFF" stroke="#0E3C54" stroke-width="2" d="M39.775,6.358c2.91,0.149,22.13,0,22.13,0"></path>
                <path id="Shape_71_" fill="#FFFFFF" stroke="#0E3C54" stroke-width="2" d="M14.389,6.358c1.118,0.149,8.501,0,8.501,0"></path>
                <polygon id="Shape_72_" fill="#FFFFFF" stroke="#0E3C54" stroke-width="2" points="58.979,22.868 40.976,22.868 47.708,29.6
                    35.884,41.423 26.706,32.247 9.139,49.814 13.681,54.355 26.706,41.331 35.884,50.512 52.251,34.144 58.979,40.874 			"></polygon>
            </g>
        </g>
    </g>
</svg>
