<svg class="enliven" version="1.1" id="Layer_1" xmlns="http://www.w3.org/2000/svg" xmlns:xlink="http://www.w3.org/1999/xlink" x="0px" y="0px" viewBox="0 0 308 210" enable-background="new 0 0 308 210" xml:space="preserve" data-global-elvn="enableViewport, disableClick, none, startInvisible, notResponsive, 500, notLoop, 500">
    <g id="Page-1" xmlns="http://www.w3.org/2000/svg">
        <g id="m_10" transform="translate(0.000000, 1.000000)">

                <circle id="Oval" fill="#FFFFFF" stroke="#0E3C54" stroke-width="2" stroke-linejoin="round" cx="38.06" cy="174.471" r="29.671" data-elvn="scaleC, in, 2400, 300, backout" class="elvn-layer"></circle>
            <g id="ccard" transform="translate(27.000000, 156.000000)" data-elvn="scaleTL, in, 2600, 300, backout" class="elvn-layer">
                <path id="Shape" fill="#FFFFFF" stroke="#0E3C54" stroke-width="2" stroke-linejoin="round" d="M57.199,31.163
                    c0,2.021-1.639,3.662-3.662,3.662H4.116c-2.022,0-3.661-1.641-3.661-3.662V4.147c0-2.019,1.639-3.658,3.661-3.658h49.422
                    c2.022,0,3.662,1.64,3.662,3.658L57.199,31.163L57.199,31.163z"></path>
                <rect id="Rectangle-path" x="0.455" y="7.65" fill="#03ABDA" stroke="#0E3C54" stroke-width="2" width="56.745" height="7.362"></rect>
                <path id="Shape_1_" fill="#03ABDA" stroke="#0E3C54" stroke-width="2" d="M18.678,26.24c0,0.758-0.613,1.37-1.37,1.37H7.946
                    c-0.756,0-1.371-0.612-1.371-1.37v-5.479c0-0.757,0.614-1.37,1.371-1.37h9.362c0.757,0,1.37,0.613,1.37,1.37V26.24z"></path>
            </g>
            <g id="dollar" transform="translate(240.000000, 144.000000)" data-elvn="scaleC, in, 3700, 300, backout" class="elvn-layer">
                <circle id="Oval_1_" fill="#03ABDA" stroke="#0E3C54" stroke-width="2" cx="30.399" cy="30.471" r="29.671"></circle>
                <path id="Shape_2_" fill="#FFFFFF" stroke="#0E3C54" stroke-width="2" stroke-linejoin="round" d="M27.629,51.36l0.014-4.873
                    c-3.451-0.161-6.799-1.09-8.752-2.224l1.564-5.987c2.156,1.184,5.189,2.263,8.543,2.275c2.928,0.01,4.947-1.113,4.945-3.16
                    c0.01-1.951-1.633-3.188-5.445-4.473c-5.492-1.855-9.256-4.43-9.238-9.397c0.012-4.511,3.211-8.036,8.73-9.089l0.014-4.867
                    l5.045,0.016l-0.014,4.504c3.447,0.162,5.768,0.889,7.457,1.713l-1.506,5.779c-1.332-0.562-3.705-1.752-7.41-1.758
                    c-3.35-0.012-4.432,1.42-4.434,2.85c-0.002,1.695,1.791,2.771,6.17,4.43c6.111,2.17,8.576,4.99,8.566,9.598
                    c-0.01,4.559-3.268,8.445-9.195,9.447l-0.014,5.23L27.629,51.36z"></path>
            </g>
            <circle id="Oval_2_" fill="#03ABDA" stroke="#0E3C54" stroke-width="2" cx="172.567" cy="100.972" r="73.781" data-elvn="stamp, in, 0, 300, backout" class="elvn-layer"></circle>

                <circle id="Oval_3_" fill="#FFFFFF" stroke="#0E3C54" stroke-width="2" stroke-linejoin="round" cx="250.501" cy="55.954" r="48.015" data-elvn="scaleC, in, 2800, 300, easeinout" class="elvn-layer"></circle>
            <g id="search_input" transform="translate(38.000000, 104.000000)" data-elvn="scaleTL, in, 600, 300, backout" class="elvn-layer">

                    <rect id="Rectangle-path_1_" x="0.354" y="0.827" fill="#FFFFFF" stroke="#0E3C54" stroke-width="2" stroke-linejoin="round" width="138.031" height="23.998"></rect>

                    <rect id="Rectangle-path_2_" x="5.964" y="5.314" fill="#FFFFFF" stroke="#0E3C54" stroke-width="2" stroke-linejoin="round" width="125.782" height="15.023"></rect>

                    <rect id="Rectangle-path_3_" x="138.385" y="0.75" fill="#FFFFFF" stroke="#0E3C54" stroke-width="2" stroke-linejoin="round" width="27.008" height="23.997"></rect>
            </g>
            <circle id="Oval_4_" fill="none" stroke="#03ABDA" stroke-width="2" cx="4.207" cy="80.927" r="2.416" data-elvn="fadeShortL, in, 2500, 200, linear" class="elvn-layer"></circle>
            <circle id="Oval_5_" fill="none" stroke="#03ABDA" stroke-width="2" cx="64.089" cy="2.464" r="2.416" data-elvn="fadeShortL, in, 1300, 200, linear" class="elvn-layer"></circle>
            <circle id="Oval_6_" fill="none" stroke="#03ABDA" stroke-width="2" cx="294.256" cy="7.94" r="2.416" data-elvn="fadeShortL, in, 1500, 200, linear" class="elvn-layer"></circle>
            <circle id="Oval_7_" fill="none" stroke="#03ABDA" stroke-width="2" cx="299.115" cy="103.017" r="2.416" data-elvn="fadeShortL, in, 1900, 200, linear" class="elvn-layer"></circle>
            <circle id="Oval_8_" fill="none" stroke="#03ABDA" stroke-width="2" cx="224.408" cy="180.316" r="2.416" data-elvn="fadeShortL, in, 700, 200, linear" class="elvn-layer"></circle>
            <circle id="Oval_9_" fill="none" stroke="#03ABDA" stroke-width="2" cx="82.994" cy="144.285" r="2.416" data-elvn="fadeShortL, in, 400, 200, linear" class="elvn-layer"></circle>
            <g id="search-icon" transform="translate(172.000000, 99.000000)" data-elvn="scaleC, in, 900, 300, backout" class="elvn-layer">

                    <circle id="Oval_10_" fill="#FFFFFF" stroke="#0E3C54" stroke-width="2" stroke-linejoin="round" cx="13.052" cy="12.706" r="9.187"></circle>
                <path id="Shape_3_" fill="#FFFFFF" stroke="#0E3C54" stroke-width="2" stroke-linejoin="round" d="M34.463,29.62L24.18,19.339
                    c2.777-4.868,2.08-11.184-2.068-15.338c-4.979-4.975-13.072-4.975-18.047,0c-4.977,4.979-4.977,13.076,0,18.053
                    c4.145,4.147,10.469,4.838,15.336,2.068l10.277,10.273c1.326,1.321,3.469,1.321,4.785,0
                    C35.771,33.077,35.771,30.938,34.463,29.62L34.463,29.62z M19.576,19.517c-3.582,3.568-9.393,3.568-12.971,0
                    c-3.578-3.58-3.578-9.4,0-12.97c3.578-3.576,9.389-3.576,12.971,0C23.145,10.116,23.145,15.937,19.576,19.517L19.576,19.517z"></path>
            </g>
            <g id="arrows" transform="translate(8.000000, 12.000000)" data-elvn="wheelC, in, 2100, 300, easeinout" class="elvn-layer">
                <circle id="Oval_11_" fill="#03ABDA" stroke="#0E3C54" stroke-width="2" cx="30.06" cy="30.118" r="29.671"></circle>
                <g id="Group" transform="translate(12.000000, 11.000000)">
                    <path id="Shape_4_" fill="#FFFFFF" stroke="#0E3C54" stroke-width="2" d="M6.517,18.435c0.029-1.801,0.44-3.6,1.257-5.256
                        l0.042,0.015c0.575-1.14,1.329-2.212,2.277-3.165c4.11-4.105,10.4-4.674,15.129-1.73l-3.975,3.967l15.496,3.276l-1.704-8.275
                        l-1.553-7.233l-3.69,3.689c-7.268-5.4-17.573-4.825-24.167,1.765c-3.24,3.247-5.02,7.392-5.353,11.632L6.517,18.435z"></path>
                    <path id="Shape_5_" fill="#FFFFFF" stroke="#0E3C54" stroke-width="2" d="M30.993,18.903c-0.037,1.789-0.447,3.573-1.258,5.219
                        l-0.042-0.011c-0.574,1.139-1.329,2.208-2.281,3.161c-4.106,4.106-10.395,4.676-15.125,1.732l3.944-3.938l-15.48-3.272
                        l1.096,5.331l2.177,10.146l3.69-3.693c7.268,5.405,17.571,4.829,24.164-1.761c3.234-3.236,5.008-7.366,5.355-11.595
                        L30.993,18.903z"></path>
                </g>
            </g>
            <g id="Group_1_" transform="translate(183.000000, 19.000000)" data-elvn="scaleBR, in, 3100, 300, backout" class="elvn-layer">
                <g id="Shape_6_" transform="translate(13.000000, 8.000000)">
                    <path fill="#FFFFFF" stroke="#0E3C54" stroke-width="2" d="M78.506,50.929c0,1.186-0.961,2.146-2.146,2.146H2.749
                        c-1.186,0-2.146-0.961-2.146-2.146V2.903c0-1.186,0.961-2.146,2.146-2.146H76.36c1.186,0,2.146,0.961,2.146,2.146V50.929z"></path>
                    <path fill="#FFFFFF" stroke="#0E3C54" stroke-width="2" d="M78.506,11.252V2.903c0-1.186-0.961-2.146-2.146-2.146H2.749
                        c-1.186,0-2.146,0.961-2.146,2.146v8.349H78.506L78.506,11.252z"></path>
                    <path fill="#FFFFFF" stroke="#0E3C54" stroke-width="2" d="M7.039,5.978c1.869,0.125,14.211,0,14.211,0"></path>
                    <path fill="#FFFFFF" stroke="#0E3C54" stroke-width="2" d="M25.344,5.978c0.934,0.125,7.105,0,7.105,0"></path>
                    <path fill="#FFFFFF" stroke="#0E3C54" stroke-width="2" d="M40.369,5.978c0.934,0.125,7.104,0,7.104,0"></path>
                </g>
                <path id="Shape_7_" fill="#FFFFFF" stroke="#0E3C54" stroke-width="2" d="M78.371,50.246c0,1.186-0.961,2.146-2.146,2.146H2.614
                    c-1.186,0-2.146-0.961-2.146-2.146V2.22c0-1.186,0.961-2.146,2.146-2.146h73.611c1.186,0,2.146,0.961,2.146,2.146V50.246z"></path>
                <path id="Shape_8_" fill="#FFFFFF" stroke="#0E3C54" stroke-width="2" d="M78.371,10.569v-8.35c0-1.186-0.961-2.146-2.146-2.146
                    H2.614c-1.186,0-2.146,0.961-2.146,2.146v8.35H78.371z"></path>
                <path id="Shape_9_" fill="#FFFFFF" stroke="#0E3C54" stroke-width="2" d="M34.703,31.765H23.176v11.526
                    C29.541,43.291,34.703,38.131,34.703,31.765z"></path>
                <path id="Shape_10_" fill="#FFFFFF" stroke="#0E3C54" stroke-width="2" d="M20.27,43.291V31.765H8.747
                    C8.746,38.132,13.906,43.291,20.27,43.291z"></path>
                <path id="Shape_11_" fill="#FFFFFF" stroke="#0E3C54" stroke-width="2" d="M8.781,29.026h11.525V17.501
                    C13.941,17.501,8.781,22.66,8.781,29.026z"></path>
                <path id="Shape_12_" fill="#03ABDA" stroke="#0E3C54" stroke-width="2" d="M23.174,17.501v11.525h11.529
                    C34.703,22.659,29.541,17.501,23.174,17.501z"></path>
                <path id="Shape_13_" fill="#FFFFFF" stroke="#0E3C54" stroke-width="2" d="M46.33,20.126c2.861,0.126,21.746,0,21.746,0"></path>

                    <rect id="Rectangle-path_4_" x="47.338" y="32.807" fill="#03ABDA" stroke="#0E3C54" stroke-width="2" width="19.979" height="9.739"></rect>
                <path id="Shape_14_" fill="#FFFFFF" stroke="#0E3C54" stroke-width="2" d="M46.33,26.407c2.861,0.125,21.746,0,21.746,0"></path>

                    <rect id="Rectangle-path_5_" x="79.121" y="26.463" fill="#03ABDA" stroke="#0E3C54" stroke-width="2" width="5.387" height="17.426"></rect>
            </g>
            <g id="folder" transform="translate(143.000000, 147.000000)" data-elvn="scaleTL, in, 1800, 300, backout" class="elvn-layer">
                <path id="Shape_15_" fill="#FFFFFF" stroke="#0E3C54" stroke-width="2" stroke-linejoin="round" d="M61.223,16.575v-2.396
                    c0-3.359-2.721-6.075-6.078-6.075H24.764V6.077c0-3.357-2.719-6.076-6.074-6.076H6.534c-3.354,0-6.075,2.719-6.075,6.076v4.051
                    v40.509c0,3.359,2.717,6.075,6.075,6.078h4.054H59.2c3.354-0.003,6.074-2.719,6.074-6.078V22.28
                    C65.273,19.638,63.578,17.413,61.223,16.575z"></path>
                <path id="Shape_16_" fill="#FFFFFF" stroke="#0E3C54" stroke-width="2" stroke-linejoin="round" d="M61.727,16.799
                    c-0.465-0.101-0.904-0.235-1.33-0.39c-0.135-0.029-0.279-0.048-0.41-0.081H13.48c-0.814,0.157-1.578,0.465-2.242,0.914
                    c-1.213,0.82-2.095,2.079-2.47,3.54c-0.079,0.309-0.131,0.625-0.167,0.947v34.984h50.597c3.354-0.003,6.074-2.719,6.074-6.078
                    V22.28C65.273,19.833,63.812,17.759,61.727,16.799z"></path>
                <path id="Shape_17_" fill="#03ABDA" stroke="#0E3C54" stroke-width="2" d="M48.896,39.144l-22.035,0.179
                    c-1.891,0.016-3.453-1.52-3.469-3.414l-0.074-9.076c-0.016-1.894,1.521-3.454,3.414-3.47l22.035-0.179
                    c1.893-0.016,3.455,1.521,3.471,3.414l0.072,9.076C52.326,37.568,50.791,39.13,48.896,39.144z"></path>
            </g>
            <g id="photo-1" transform="translate(93.000000, 6.000000)" data-elvn="scaleC, in, 1200, 300, backout" class="elvn-layer">

                    <rect id="Rectangle-path_6_" x="5.671" y="5.923" fill="#03ABDA" stroke="#0E3C54" stroke-width="2" width="41.273" height="36.871"></rect>
                <path id="Shape_18_" fill="#FFFFFF" stroke="#0E3C54" stroke-width="2" stroke-linejoin="round" d="M45.754,0.323H31.053V0.318
                    h-4.521v0.005H1.427c-0.71,0-1.296,0.577-1.296,1.292v50.187c0,0.719,0.585,1.296,1.296,1.296h44.327
                    c0.533,0,0.993-0.325,1.19-0.788V1.108C46.747,0.646,46.287,0.323,45.754,0.323z M41.51,39.004H5.672V5.923H41.51V39.004z"></path>
            </g>
            <g id="photo-2" transform="translate(109.000000, 25.000000)" data-elvn="scaleC, in, 1350, 300, backout" class="elvn-layer">

                    <rect id="Rectangle-path_7_" x="6.17" y="6.344" fill="#03ABDA" stroke="#0E3C54" stroke-width="2" width="41.275" height="36.871"></rect>
                <path id="Shape_19_" fill="#FFFFFF" stroke="#0E3C54" stroke-width="2" stroke-linejoin="round" d="M46.255,0.745H31.553V0.739
                    h-4.521v0.006H1.928c-0.709,0-1.295,0.576-1.295,1.291v50.187c0,0.72,0.586,1.296,1.295,1.296h44.328
                    c0.532,0,0.993-0.325,1.19-0.788v-51.2C47.248,1.065,46.787,0.745,46.255,0.745z M42.011,39.425H6.17V6.344h35.841V39.425z"></path>
            </g>
            <g id="A" transform="translate(19.000000, 87.000000)" data-elvn="scaleC, in, 300, 300, backout" class="elvn-layer">
                <circle id="Oval_12_" fill="#FFFFFF" stroke="#0E3C54" stroke-width="2" cx="16.041" cy="16.833" r="15.919"></circle>
                <text transform="matrix(1 0 0 1 8.687 23.8193)" fill="#0E3C54" font-family="'Helvetica'" font-size="20.9337">A</text>
            </g>
            <g id="B" transform="translate(98.000000, 137.000000)" data-elvn="scaleC, in, 1600, 300, backout" class="elvn-layer">
                <circle id="Oval_13_" fill="#FFFFFF" stroke="#0E3C54" stroke-width="2" cx="16.644" cy="16.813" r="15.92"></circle>
                <text transform="matrix(1 0 0 1 10.2188 24.5244)" fill="#0E3C54" font-family="'Helvetica'" font-size="20.9337">B</text>
            </g>
            <g id="C" transform="translate(224.000000, 112.000000)" data-elvn="scaleC, in, 3400, 300, backout" class="elvn-layer">
                <circle id="Oval_14_" fill="#FFFFFF" stroke="#0E3C54" stroke-width="2" cx="16.327" cy="16.043" r="15.919"></circle>
                <text transform="matrix(1 0 0 1 9.3965 23.7539)" fill="#0E3C54" font-family="'Helvetica'" font-size="20.9337">C</text>
            </g>
            <g id="Group_2_" transform="translate(55.000000, 84.000000)">
                <path id="Shape_20_" fill="none" stroke="#0E3C54" stroke-width="2" stroke-linejoin="round" d="M0.363,0.849
                    c5.621,0,11.239,0,16.863,0" data-elvn="fadeShortL, in, 400, 200, linear" class="elvn-layer"></path>
                <path id="Shape_21_" fill="none" stroke="#0E3C54" stroke-width="2" stroke-linejoin="round" d="M21.977,0.849h9.505" data-elvn="fadeShortL, in, 500, 200, linear" class="elvn-layer"></path>
            </g>
            <path id="Shape_22_" fill="none" stroke="#0E3C54" stroke-width="2" stroke-linejoin="round" d="M44.545,80.033h13.712" data-elvn="fadeShortL, in, 600, 200, linear" class="elvn-layer"></path>
            <g id="Group_3_" transform="translate(276.000000, 123.000000)" data-elvn="fadeShortL, in, 1400, 200, linear" class="elvn-layer">
                <path id="Shape_23_" fill="none" stroke="#0E3C54" stroke-width="2" stroke-linejoin="round" d="M0.418,0.212
                    c5.621,0,11.238,0,16.863,0"></path>
                <path id="Shape_24_" fill="none" stroke="#0E3C54" stroke-width="2" stroke-linejoin="round" d="M22.031,0.212h9.506"></path>
            </g>
            <path id="Shape_25_" fill="none" stroke="#0E3C54" stroke-width="2" stroke-linejoin="round" d="M265.6,118.396h13.712" data-elvn="fadeShortL, in, 1500, 200, linear" class="elvn-layer"></path>
            <g id="Group-3" transform="translate(162.000000, 3.000000)" data-elvn="fadeShortL, in, 1800, 200, linear" class="elvn-layer">
                <path id="Shape_26_" fill="none" stroke="#0E3C54" stroke-width="2" stroke-linejoin="round" d="M0.537,0.944h13.711"></path>
                <path id="Shape_27_" fill="none" stroke="#0E3C54" stroke-width="2" stroke-linejoin="round" d="M18.275,0.942h28.967"></path>
            </g>
            <g id="Group-2" transform="translate(74.000000, 202.000000)">
                <path id="Shape_28_" fill="none" stroke="#0E3C54" stroke-width="2" stroke-linejoin="round" d="M0.166,0.32h13.711" data-elvn="fadeShortL, in, 800, 200, linear" class="elvn-layer"></path>
                <path id="Shape_29_" fill="none" stroke="#0E3C54" stroke-width="2" stroke-linejoin="round" d="M17.905,0.318h28.966" data-elvn="fadeShortL, in, 900, 200, linear" class="elvn-layer"></path>
            </g>
            <g id="Group_4_" transform="translate(4.000000, 0.000000)" data-elvn="fadeShortL, in, 2200, 200, linear" class="elvn-layer">
                <path id="Shape_30_" fill="none" stroke="#0E3C54" stroke-width="2" stroke-linejoin="round" d="M23.25,0.955
                    c-4.187,0-8.37,0-12.556,0"></path>
                <path id="Shape_31_" fill="none" stroke="#0E3C54" stroke-width="2" stroke-linejoin="round" d="M7.16,0.955H0.084"></path>
            </g>
            <g id="Group_5_" transform="translate(0.000000, 134.000000)" data-elvn="fadeShortL, in, 2000, 200, linear" class="elvn-layer">
                <path id="Shape_32_" fill="none" stroke="#0E3C54" stroke-width="2" stroke-linejoin="round" d="M23.835,0.268
                    c-4.187,0-8.37,0-12.556,0"></path>
                <path id="Shape_33_" fill="none" stroke="#0E3C54" stroke-width="2" stroke-linejoin="round" d="M7.745,0.268H0.669"></path>
            </g>
            <g id="Group_6_" transform="translate(104.000000, 190.000000)" data-elvn="fadeShortL, in, 1100, 200, linear" class="elvn-layer">
                <path id="Shape_34_" fill="none" stroke="#0E3C54" stroke-width="2" stroke-linejoin="round" d="M24.121,0.825
                    c-4.187,0-8.37,0-12.556,0"></path>
                <path id="Shape_35_" fill="none" stroke="#0E3C54" stroke-width="2" stroke-linejoin="round" d="M8.03,0.825H0.955"></path>
            </g>
            <g id="Group_7_" transform="translate(217.000000, 207.000000)" data-elvn="fadeShortL, in, 2400, 200, linear" class="elvn-layer">
                <path id="Shape_36_" fill="none" stroke="#0E3C54" stroke-width="2" stroke-linejoin="round" d="M23.914,0.32
                    c-4.188,0-8.371,0-12.557,0"></path>
                <path id="Shape_37_" fill="none" stroke="#0E3C54" stroke-width="2" stroke-linejoin="round" d="M7.822,0.32H0.748"></path>
            </g>
        </g>
    </g>
</svg>
