<svg class="enliven" version="1.1" id="Layer_2" xmlns="http://www.w3.org/2000/svg" xmlns:xlink="http://www.w3.org/1999/xlink" x="0px" y="0px" viewBox="0 0 322 221" enable-background="new 0 0 322 221" xml:space="preserve" data-global-elvn="enableViewport, disableClick, none, startInvisible, notResponsive, 500, notLoop, 500">

    <g id="Page-1" xmlns="http://www.w3.org/2000/svg">
        <g id="m_25" transform="translate(4.000000, 1.000000)">
            <g id="papers" transform="translate(95.000000, 29.000000)">
                <path id="Shape" fill="#FFFFFF" stroke="#0E3C54" stroke-width="2" d="M110.209,0.701L24.473,6.054
                    c-2.352,0.149-4.119,2.28-3.949,4.762l8.16,119.363c0.164,2.482,2.208,4.375,4.558,4.229l85.74-5.364
                    c2.347-0.146,4.114-2.274,3.942-4.758L114.77,4.927C114.604,2.442,112.557,0.548,110.209,0.701z M34.148,127.298
                    c-0.985,0.061-1.844-0.732-1.912-1.772c-0.07-1.042,0.667-1.938,1.65-1.994c0.988-0.063,1.846,0.729,1.913,1.768
                    C35.871,126.341,35.133,127.236,34.148,127.298z M33.608,119.415c-0.983,0.059-1.843-0.735-1.912-1.774
                    c-0.072-1.041,0.669-1.937,1.653-1.996c0.984-0.062,1.846,0.734,1.912,1.772C35.334,118.457,34.594,119.354,33.608,119.415z
                     M33.068,111.532c-0.984,0.059-1.839-0.738-1.912-1.772c-0.069-1.046,0.67-1.941,1.655-2.002
                    c0.985-0.062,1.842,0.733,1.913,1.777C34.796,110.573,34.053,111.467,33.068,111.532z M32.53,103.646
                    c-0.983,0.062-1.84-0.734-1.915-1.773c-0.065-1.041,0.676-1.935,1.658-1.993c0.985-0.064,1.842,0.732,1.913,1.768
                    C34.256,102.689,33.516,103.583,32.53,103.646z M31.992,95.763c-0.987,0.062-1.84-0.734-1.914-1.772
                    c-0.07-1.044,0.675-1.936,1.656-1.999c0.985-0.062,1.842,0.736,1.915,1.774C33.719,94.81,32.978,95.698,31.992,95.763z
                     M31.45,87.879c-0.981,0.057-1.839-0.734-1.909-1.776c-0.07-1.041,0.668-1.932,1.654-1.997c0.988-0.054,1.842,0.733,1.916,1.775
                    C33.182,86.922,32.438,87.816,31.45,87.879z M30.917,79.991c-0.988,0.065-1.845-0.731-1.915-1.769
                    c-0.072-1.043,0.67-1.938,1.65-1.999c0.988-0.063,1.848,0.732,1.918,1.77C32.641,79.036,31.898,79.932,30.917,79.991z
                     M30.375,72.109c-0.986,0.062-1.837-0.732-1.912-1.774c-0.072-1.04,0.67-1.936,1.654-1.998c0.986-0.057,1.843,0.734,1.913,1.778
                    C32.102,71.154,31.359,72.046,30.375,72.109z M29.839,64.226c-0.987,0.063-1.843-0.732-1.913-1.771
                    c-0.07-1.038,0.67-1.938,1.656-1.998c0.981-0.063,1.838,0.729,1.911,1.774C31.562,63.269,30.824,64.163,29.839,64.226z
                     M29.297,56.34c-0.986,0.06-1.839-0.735-1.91-1.774c-0.072-1.038,0.666-1.934,1.652-1.993c0.986-0.062,1.846,0.731,1.912,1.771
                    C31.021,55.388,30.285,56.282,29.297,56.34z M28.758,48.459c-0.986,0.06-1.838-0.734-1.91-1.775
                    c-0.07-1.043,0.669-1.94,1.654-1.998c0.984-0.062,1.838,0.733,1.912,1.774C30.484,47.497,29.745,48.394,28.758,48.459z
                     M28.223,40.571c-0.986,0.062-1.841-0.734-1.914-1.773c-0.069-1.039,0.67-1.933,1.654-1.995c0.988-0.063,1.844,0.736,1.912,1.772
                    C29.947,39.618,29.207,40.508,28.223,40.571z M27.682,32.685c-0.984,0.064-1.842-0.733-1.911-1.766
                    c-0.07-1.043,0.67-1.934,1.655-2.002c0.979-0.061,1.84,0.734,1.912,1.776C29.41,31.734,28.666,32.626,27.682,32.685z
                     M27.144,24.801c-0.985,0.066-1.839-0.729-1.912-1.771c-0.07-1.036,0.67-1.932,1.655-1.995c0.984-0.062,1.841,0.73,1.91,1.773
                    C28.871,23.847,28.127,24.741,27.144,24.801z M26.604,16.915c-0.984,0.064-1.839-0.73-1.912-1.768
                    c-0.07-1.041,0.671-1.937,1.656-1.998c0.984-0.059,1.842,0.733,1.911,1.776C28.334,15.962,27.587,16.858,26.604,16.915z" data-elvn="fadeShortB, in, 900, 500, easeinout" class="elvn-layer"></path>
                <path id="Shape_1_" fill="#FFFFFF" stroke="#0E3C54" stroke-width="2" d="M130.465,31.193L46.982,10.53
                    c-2.293-0.565-4.6,0.938-5.155,3.361L15.043,130.365c-0.562,2.425,0.844,4.844,3.131,5.412l83.489,20.658
                    c2.286,0.566,4.593-0.939,5.148-3.362L133.6,36.599C134.16,34.179,132.754,31.757,130.465,31.193z M21.1,129.259
                    c-0.959-0.236-1.549-1.254-1.315-2.27c0.236-1.019,1.202-1.648,2.157-1.408c0.964,0.239,1.552,1.256,1.318,2.265
                    C23.025,128.865,22.062,129.496,21.1,129.259z M22.869,121.563c-0.958-0.235-1.548-1.255-1.314-2.267
                    c0.233-1.017,1.201-1.646,2.16-1.409c0.959,0.235,1.549,1.251,1.314,2.267C24.796,121.168,23.828,121.801,22.869,121.563z
                     M24.637,113.871c-0.957-0.236-1.546-1.251-1.313-2.266c0.235-1.017,1.2-1.655,2.162-1.413c0.958,0.237,1.546,1.254,1.313,2.271
                    C26.565,113.477,25.598,114.108,24.637,113.871z M26.405,106.175c-0.955-0.235-1.544-1.252-1.314-2.264
                    c0.237-1.014,1.206-1.647,2.161-1.408c0.961,0.236,1.549,1.252,1.316,2.264C28.334,105.784,27.365,106.412,26.405,106.175z
                     M28.178,98.487c-0.961-0.241-1.548-1.255-1.317-2.27c0.236-1.021,1.206-1.649,2.162-1.412c0.959,0.237,1.548,1.256,1.315,2.272
                    C30.103,98.096,29.138,98.719,28.178,98.487z M29.944,90.788c-0.956-0.239-1.546-1.252-1.312-2.264
                    c0.233-1.019,1.202-1.648,2.163-1.415c0.957,0.241,1.545,1.256,1.314,2.271C31.876,90.397,30.904,91.028,29.944,90.788z
                     M31.716,83.099c-0.96-0.236-1.547-1.256-1.313-2.267c0.23-1.019,1.199-1.646,2.156-1.414c0.963,0.235,1.551,1.257,1.318,2.268
                    C33.643,82.705,32.674,83.335,31.716,83.099z M33.482,75.404c-0.957-0.238-1.541-1.254-1.312-2.271
                    c0.234-1.014,1.2-1.646,2.159-1.407s1.55,1.254,1.316,2.271C35.41,75.014,34.443,75.642,33.482,75.404z M35.255,67.71
                    c-0.96-0.233-1.547-1.25-1.315-2.269c0.234-1.017,1.201-1.648,2.164-1.411c0.955,0.24,1.545,1.252,1.309,2.275
                    C37.178,67.316,36.215,67.949,35.255,67.71z M37.023,60.016c-0.96-0.24-1.547-1.253-1.313-2.267
                    c0.233-1.02,1.2-1.648,2.157-1.411c0.961,0.235,1.553,1.254,1.316,2.271C38.947,59.626,37.983,60.259,37.023,60.016z
                     M38.792,52.323c-0.959-0.237-1.546-1.256-1.313-2.27c0.234-1.016,1.202-1.648,2.159-1.408c0.959,0.236,1.546,1.25,1.316,2.268
                    C40.721,51.928,39.752,52.557,38.792,52.323z M40.564,44.63c-0.961-0.238-1.547-1.253-1.315-2.27
                    c0.233-1.016,1.202-1.643,2.162-1.408c0.96,0.237,1.546,1.257,1.311,2.27C42.487,44.236,41.522,44.865,40.564,44.63z
                     M42.334,36.933c-0.961-0.233-1.551-1.251-1.315-2.262c0.233-1.017,1.2-1.646,2.159-1.413c0.955,0.239,1.547,1.251,1.311,2.27
                    C44.259,36.544,43.293,37.173,42.334,36.933z M44.102,29.24c-0.961-0.235-1.545-1.25-1.312-2.269
                    c0.23-1.012,1.197-1.644,2.159-1.404c0.96,0.236,1.547,1.253,1.312,2.266C46.029,28.849,45.059,29.48,44.102,29.24z
                     M45.873,21.546c-0.961-0.237-1.547-1.251-1.316-2.267c0.234-1.014,1.201-1.646,2.161-1.405c0.959,0.236,1.546,1.251,1.312,2.271
                    C47.799,21.154,46.827,21.791,45.873,21.546z" data-elvn="expandL, in, 600, 500, easeinout" class="elvn-layer"></path>
                <g id="front-paper" transform="translate(0.000000, 10.000000)" data-elvn="stamp, in, 0, 300, backout" class="elvn-layer">
                    <path id="Shape_2_" fill="#FFFFFF" stroke="#0E3C54" stroke-width="2" d="M98.703,35.046v49.569v54.041
                        c0,4.678-3.617,8.507-8.039,8.507H8.466c-4.423,0-8.038-3.829-8.038-8.507V8.718c0-4.679,3.615-8.502,8.038-8.502h82.198
                        c4.422,0,8.039,3.823,8.039,8.502v19.83v7.175"></path>
                    <path id="Shape_3_" fill="#6BD9E3" stroke="#0E3C54" stroke-width="2" d="M86.777,80.316c0,3.258-2.641,5.899-5.9,5.899H18.254
                        c-3.258,0-5.9-2.642-5.9-5.899V25.978c0-3.261,2.643-5.905,5.9-5.905h62.623c3.26,0,5.9,2.645,5.9,5.905V80.316z"></path>
                    <path id="Shape_4_" fill="#FFFFFF" stroke="#0E3C54" stroke-width="2" stroke-linecap="round" stroke-linejoin="round" d="
                        M47.842,51.815V28.552h-0.004c-12.849,0-23.258,10.412-23.258,23.258c0,6.436,2.612,12.261,6.838,16.471l16.461-16.465h-0.037
                        V51.815z"></path>
                    <path id="Shape_5_" fill="#FFFFFF" stroke="#0E3C54" stroke-width="2" stroke-linecap="round" stroke-linejoin="round" d="
                        M33.534,71.401c4.21,4.195,10.011,6.789,16.423,6.789c12.842,0,23.255-10.408,23.258-23.252H49.999L33.534,71.401z"></path>
                    <path id="Shape_6_" fill="#FFFFFF" stroke="#0E3C54" stroke-width="2" stroke-linecap="round" stroke-linejoin="round" d="
                        M51.294,28.394v23.264h23.257v-0.006C74.551,38.81,64.138,28.399,51.294,28.394z"></path>
                    <g id="Group-3" transform="translate(22.000000, 98.000000)">
                        <path id="Shape_7_" fill="none" stroke="#0E3C54" stroke-width="2" d="M0.393,7.544h33.633"></path>
                        <path id="Shape_8_" fill="none" stroke="#0E3C54" stroke-width="2" d="M39.234,7.544h16.231"></path>
                        <path id="Shape_9_" fill="none" stroke="#0E3C54" stroke-width="2" d="M55.465,0.544H21.831"></path>
                        <path id="Shape_10_" fill="none" stroke="#0E3C54" stroke-width="2" d="M16.624,0.544H0.393"></path>
                        <path id="Shape_11_" fill="none" stroke="#0E3C54" stroke-width="2" d="M0.393,21.876h41.41"></path>
                        <path id="Shape_12_" fill="none" stroke="#0E3C54" stroke-width="2" d="M52.551,14.876h-30.72"></path>
                        <path id="Shape_13_" fill="none" stroke="#0E3C54" stroke-width="2" d="M16.624,14.876H0.393"></path>
                        <path id="Shape_14_" fill="none" stroke="#0E3C54" stroke-width="2" d="M0.393,36.208h33.633"></path>
                        <path id="Shape_15_" fill="none" stroke="#0E3C54" stroke-width="2" d="M39.234,36.208h16.231"></path>
                        <path id="Shape_16_" fill="none" stroke="#0E3C54" stroke-width="2" d="M55.465,29.208H21.831"></path>
                        <path id="Shape_17_" fill="none" stroke="#0E3C54" stroke-width="2" d="M16.624,29.208H0.393"></path>
                    </g>
                </g>
                <path id="Shape_18_" fill="#FFFFFF" stroke="#0E3C54" stroke-width="2" d="M105.162,42.046c0,1.657-1.344,3-3,3h-6.918
                    c-1.656,0-3-1.343-3-3v-8.217c0-1.657,1.344-3,3-3h6.918c1.656,0,3,1.343,3,3V42.046z" data-elvn="scaleB, in, 950, 300, easeinout" class="elvn-layer"></path>
                <path id="Shape_19_" fill="#6BD9E3" stroke="#0E3C54" stroke-width="2" d="M108.662,56.263c0,1.657-1.344,3-3,3h-6.918
                    c-1.656,0-3-1.343-3-3v-8.217c0-1.657,1.344-3,3-3h6.918c1.656,0,3,1.343,3,3V56.263z" data-elvn="scaleB, in, 800, 300, easeinout" class="elvn-layer"></path>
                <path id="Shape_20_" fill="#FFFFFF" stroke="#0E3C54" stroke-width="2" d="M105.162,70.479c0,1.657-1.344,3-3,3h-6.918
                    c-1.656,0-3-1.343-3-3v-8.217c0-1.657,1.344-3,3-3h6.918c1.656,0,3,1.343,3,3V70.479z" data-elvn="scaleB, in, 650, 300, easeinout" class="elvn-layer"></path>
                <path id="Shape_21_" fill="#FFFFFF" stroke="#0E3C54" stroke-width="2" d="M105.162,84.696c0,1.657-1.344,3-3,3h-6.918
                    c-1.656,0-3-1.343-3-3v-8.217c0-1.657,1.344-3,3-3h6.918c1.656,0,3,1.343,3,3V84.696z" data-elvn="scaleB, in, 500, 300, easeinout" class="elvn-layer"></path>
            </g>
            <g id="graph" transform="translate(12.000000, 7.000000)" data-elvn="scaleR, in, 2000, 300, easeinout" class="elvn-layer">

                    <rect id="Rectangle-path" x="51.124" y="0.929" fill="none" stroke="#0E3C54" stroke-width="2" stroke-linecap="round" stroke-linejoin="round" width="8.256" height="43.813"></rect>

                    <rect id="Rectangle-path_1_" x="39.001" y="8.652" fill="#6BD9E3" stroke="#0E3C54" stroke-width="2" width="8.254" height="36.09"></rect>

                    <rect id="Rectangle-path_2_" x="26.94" y="18.808" fill="none" stroke="#0E3C54" stroke-width="2" stroke-linecap="round" stroke-linejoin="round" width="8.256" height="25.935"></rect>

                    <rect id="Rectangle-path_3_" x="15.394" y="22.692" fill="#6BD9E3" stroke="#0E3C54" stroke-width="2" width="8.255" height="22.05"></rect>

                    <rect id="Rectangle-path_4_" x="3.271" y="14.692" fill="none" stroke="#0E3C54" stroke-width="2" stroke-linecap="round" stroke-linejoin="round" width="8.254" height="30.05"></rect>

                    <polyline id="Shape_22_" fill="none" stroke="#0E3C54" stroke-width="2" stroke-linecap="round" stroke-linejoin="round" points="
                    0.303,6.345 0.303,44.742 61.831,44.742 			"></polyline>
            </g>
            <g id="single-sheet" transform="translate(12.000000, 68.000000)" data-elvn="fadeShortT, in, 2300, 300, easeinout" class="elvn-layer">
                <path id="Shape_23_" fill="#6BD9E3" stroke="#0E3C54" stroke-width="2" d="M18.979,0.14H59.5c1.01,0,1.909,0.829,1.909,1.839
                    v75.513c0,1.012-0.899,1.843-1.909,1.843H2.405c-1.012,0-1.775-0.831-1.775-1.843V19.475L18.979,0.14z"></path>
                <path id="Shape_24_" fill="#FFFFFF" stroke="#0E3C54" stroke-width="2" stroke-linecap="round" stroke-linejoin="round" d="
                    M17.14,19.475c1.013,0,1.908-0.828,1.908-1.841V0.14L0.564,19.475H17.14z"></path>
                <path id="Shape_25_" fill="#FFFFFF" stroke="#0E3C54" stroke-width="2" stroke-linecap="round" stroke-linejoin="round" d="
                    M72.459,67.362c0,2.034-1.647,3.684-3.684,3.684h-33.15c-2.036,0-3.686-1.649-3.686-3.684V52.626c0-2.032,1.65-3.681,3.686-3.681
                    h33.15c2.037,0,3.684,1.648,3.684,3.681V67.362z"></path>
                <g id="Group" transform="translate(12.000000, 14.000000)">

                        <rect id="Rectangle-path_5_" x="0.618" y="15.902" fill="#FFFFFF" stroke="#0E3C54" stroke-width="2" stroke-linecap="round" stroke-linejoin="round" width="40.278" height="9.645"></rect>

                        <rect id="Rectangle-path_6_" x="18.796" y="0.946" fill="#FFFFFF" stroke="#0E3C54" stroke-width="2" stroke-linecap="round" stroke-linejoin="round" width="22.101" height="5.615"></rect>
                </g>
            </g>
            <g id="hzchto" transform="translate(115.000000, 0.000000)" data-elvn="scaleR, in, 1600, 300, easeinout" class="elvn-layer">
                <path id="Shape_26_" fill="#6BD9E3" stroke="#0E3C54" stroke-width="2" d="M78.432,15.025c0,2.509-2.053,4.562-4.562,4.562H5.261
                    c-2.509,0-4.562-2.053-4.562-4.562V4.652c0-2.51,2.053-4.562,4.562-4.562H73.87c2.509,0,4.562,2.052,4.562,4.562V15.025
                    L78.432,15.025z"></path>

                    <rect id="Rectangle-path_7_" x="24.953" y="7.715" fill="#FFFFFF" stroke="#0E3C54" stroke-width="2" width="46.054" height="4.248"></rect>

                    <rect id="Rectangle-path_8_" x="10.513" y="7.715" fill="#FFFFFF" stroke="#0E3C54" stroke-width="2" width="36.867" height="4.248"></rect>
                <circle id="Oval" fill="#FFFFFF" stroke="#0E3C54" stroke-width="2" cx="47.98" cy="9.839" r="3.258"></circle>
            </g>
            <g id="calendar" transform="translate(240.000000, 92.000000)" data-elvn="scaleC, in, 1000, 300, backout" class="elvn-layer">
                <path id="Shape_27_" fill="#FFFFFF" stroke="#0E3C54" stroke-width="2" d="M55.936,4.923h-9.471V2.837h-3.792v2.086H19.94V2.837
                    h-3.787v2.086H6.68c-3.141,0-5.681,2.249-5.681,5.022v36.826c0,2.777,2.54,5.024,5.681,5.024h49.256
                    c3.14,0,5.684-2.247,5.684-5.024V9.945C61.619,7.172,59.075,4.923,55.936,4.923z"></path>
                <path id="Shape_28_" fill="#6BD9E3" stroke="#0E3C54" stroke-width="2" d="M55.936,4.815h-9.471h-1.896H6.68
                    c-3.141,0-5.681,2.132-5.681,4.763v9.525c0,0.295,0.104,0.581,0.286,0.831h3.499h53.043h3.501
                    c0.184-0.25,0.291-0.536,0.291-0.831V9.578C61.619,6.947,59.075,4.815,55.936,4.815z M42.673,7.991h1.896h1.896v1.587
                    c0,0.877-0.85,1.588-1.896,1.588s-1.896-0.711-1.896-1.588V7.991z M19.939,7.991v1.587c0,0.877-0.845,1.588-1.893,1.588
                    c-1.047,0-1.895-0.711-1.895-1.588V7.991H19.939z"></path>
                <path id="Shape_29_" fill="#FFFFFF" stroke="#0E3C54" stroke-width="2" d="M20.089,10.059c0,1.279-1.037,2.316-2.315,2.316l0,0
                    c-1.278,0-2.315-1.037-2.315-2.316V2.991c0-1.279,1.037-2.316,2.315-2.316l0,0c1.278,0,2.315,1.037,2.315,2.316V10.059z"></path>
                <path id="Shape_30_" fill="#FFFFFF" stroke="#0E3C54" stroke-width="2" d="M46.844,10.059c0,1.279-1.037,2.316-2.314,2.316l0,0
                    c-1.279,0-2.316-1.037-2.316-2.316V2.991c0-1.279,1.037-2.316,2.316-2.316l0,0c1.277,0,2.314,1.037,2.314,2.316V10.059z"></path>
                <text transform="matrix(1 0 0 1 16.7725 43.5713)" fill="#0E3C54" font-family="'Helvetica'" font-size="24.7953">29</text>
            </g>
            <path id="Shape_31_" fill="none" stroke="#0E3C54" stroke-width="2" stroke-dasharray="2" d="M114.246,9.627l-6.359,0.009H96.553
                c0,0-6.379-0.521-6.379,6.38v6.499v1.808v6.499c0,6.901-6.38,6.38-6.38,6.38h-12.1" data-elvn="maskSlideR, in, 1800, 300, easeinout" class="elvn-layer"></path>
            <path id="Shape_32_" fill="none" stroke="#0E3C54" stroke-width="2" stroke-dasharray="2" d="M193.645,9.627l6.358,0.009h11.334
                c0,0,6.38-0.521,6.38,6.38v6.499v1.808v6.499c0,6.901,6.38,6.38,6.38,6.38h12.101" data-elvn="maskSlideR, in, 1300, 300, easeinout" class="elvn-layer"></path>
            <path id="Shape_33_" fill="none" stroke="#0E3C54" stroke-width="2" stroke-dasharray="2" d="M22.858,147.846l0.009,6.358v5.334
                c0,0-0.521,6.38,6.38,6.38h6.499h1.808h6.499c6.902,0,6.38,6.38,6.38,6.38v15.75" data-elvn="maskSlideT, in, 2550, 300, easeinout" class="elvn-layer"></path>
            <path id="Shape_34_" fill="none" stroke="#0E3C54" stroke-width="2" stroke-dasharray="2" d="M293.864,143.846l-0.009,6.358v5.334
                c0,0,0.521,6.38-6.38,6.38h-6.499h-1.808h-6.499c-6.902,0-6.38,6.38-6.38,6.38v15.75" data-elvn="maskSlideL, in, 900, 300, easeinout" class="elvn-layer"></path>
            <g id="print" transform="translate(238.000000, 11.000000)" data-elvn="fadeShortB, in, 1050, 300, backin" class="elvn-layer">
                <path id="Shape_35_" fill="#FFFFFF" stroke="#0E3C54" stroke-width="2" stroke-linecap="round" stroke-linejoin="round" d="
                    M56.334,14.827c2.799,0,5.089,2.287,5.089,5.088v17.387c0,2.799-2.29,5.09-5.089,5.09H5.453c-2.801,0-5.088-2.291-5.088-5.09
                    V19.915c0-2.801,2.287-5.088,5.088-5.088H56.334z"></path>
                <path id="Shape_36_" fill="#6BD9E3" stroke="#0E3C54" stroke-width="2" d="M61.443,39.828c0,1.399-1.146,2.544-2.546,2.544H2.908
                    c-1.398,0-2.543-1.145-2.543-2.544V17.353c0-1.399,1.145-2.545,2.543-2.545h55.989c1.4,0,2.546,1.146,2.546,2.545V39.828z"></path>

                    <rect id="Rectangle-path_9_" x="5.453" y="27.125" fill="#FFFFFF" stroke="#0E3C54" stroke-width="2" stroke-linecap="round" stroke-linejoin="round" width="50.881" height="15.267"></rect>

                    <rect id="Rectangle-path_10_" x="10.54" y="27.187" fill="#FFFFFF" stroke="#0E3C54" stroke-width="2" stroke-linecap="round" stroke-linejoin="round" width="40.705" height="33.434"></rect>

                    <rect id="Rectangle-path_11_" x="5.453" y="6.559" fill="#FFFFFF" stroke="#0E3C54" stroke-width="2" stroke-linecap="round" stroke-linejoin="round" width="50.881" height="8.269"></rect>

                    <rect id="Rectangle-path_12_" x="10.54" y="0.517" fill="#FFFFFF" stroke="#0E3C54" stroke-width="2" stroke-linecap="round" stroke-linejoin="round" width="40.705" height="14.311"></rect>

                    <rect id="Rectangle-path_13_" x="5.453" y="27.125" fill="#FFFFFF" stroke="#0E3C54" stroke-width="2" stroke-linecap="round" stroke-linejoin="round" width="50.881" height="7.633"></rect>

                    <rect id="Rectangle-path_14_" x="9.904" y="23.309" fill="#FFFFFF" stroke="#0E3C54" stroke-width="2" stroke-linecap="round" stroke-linejoin="round" width="41.977" height="3.816"></rect>
                <path id="Shape_37_" fill="#FFFFFF" stroke="#0E3C54" stroke-width="2" stroke-linecap="round" stroke-linejoin="round" d="
                    M5.453,19.668h9.817"></path>
            </g>
            <g id="left-hand" transform="translate(0.000000, 142.000000)" data-elvn="fadeShortT, in, 300, 300, easeinout" class="elvn-layer">
                <path id="Shape_38_" fill="#FFFFFF" stroke="#0E3C54" stroke-width="2" d="M103.555,44.528c-6.092-0.369-7.27-5.285-7.498-7.233
                    V21.476h0.197v-0.151l-0.34,0.203l9.878-15.037c0.081-0.104,0.145-0.216,0.214-0.325l0.38-0.579l-0.073-0.032
                    c0.372-0.962,0.342-2.061-0.207-3.012c-0.975-1.687-3.158-2.25-4.885-1.254c-0.625,0.359-1.098,0.877-1.406,1.467
                    c-1.033,1.219-17.467,20.611-23.386,26.657c-6.11,6.241-4.722,9.325-4.722,9.325l-2.602,1.887l15.041,26.09l3.022-1.158
                    c3.118,1.699,7.079,1.163,7.079,1.163l41.906-22.19h-32.598V44.528z"></path>
                <polyline id="Shape_39_" fill="#FFFFFF" stroke="#0E3C54" stroke-width="2" points="54.038,47.532 67.906,38.613 86.835,68.044
                    72.966,76.964 			"></polyline>
                <polygon id="Shape_40_" fill="#6BD9E3" stroke="#0E3C54" stroke-width="2" points="61.946,40.846 0.11,76.718 18.604,76.718
                    75.785,76.718 82.33,72.541 			"></polygon>
                <circle id="Oval_1_" fill="#FFFFFF" stroke="#0E3C54" stroke-width="2" cx="71.649" cy="67.045" r="1.472"></circle>
            </g>
            <g id="right-hand" transform="translate(173.000000, 130.000000)" data-elvn="fadeShortBR, in, 500, 300, easeinout" class="elvn-layer">
                <polyline id="Shape_41_" fill="#FFFFFF" stroke="#0E3C54" stroke-width="2" points="72.885,81.692 59.968,71.617 81.347,44.204
                    94.265,54.278 			"></polyline>
                <polygon id="Shape_42_" fill="#6BD9E3" stroke="#0E3C54" stroke-width="2" points="141.611,89 87.042,46.948 64.018,76.472
                    79.015,89 128.601,89 			"></polygon>
                <path id="Shape_43_" fill="#FFFFFF" stroke="#0E3C54" stroke-width="2" d="M77.301,44.227c0.4-3.503-1.574-6.948-1.574-6.948
                    L33.071,1.469l-0.025,0.029c-0.097-0.091-0.181-0.19-0.287-0.273c-1.826-1.423-4.432-1.129-5.824,0.655
                    c-1.395,1.786-1.045,4.388,0.781,5.812c0.004,0.003,0.009,0.005,0.013,0.008l17.789,16.402L20.15,5.805l-0.015,0.018
                    c-0.058-0.052-0.104-0.11-0.167-0.159c-1.6-1.248-3.889-0.992-5.111,0.576s-0.916,3.851,0.686,5.101
                    c0.007,0.005,0.014,0.008,0.021,0.013l23.845,21.129L10.966,12.421c-1.602-1.25-3.89-0.991-5.114,0.576
                    c-1.221,1.567-0.914,3.851,0.689,5.1c0.017,0.014,0.036,0.021,0.053,0.034l25.664,22.976L6.641,22.455l-0.035,0.052
                    C4.87,21.285,2.491,21.586,1.2,23.244c-1.336,1.712-1,4.202,0.749,5.566c0.112,0.087,0.233,0.148,0.352,0.223l-0.022,0.033
                    l31.228,23.559l-17.532-3.476c-0.127-0.036-0.256-0.054-0.385-0.076l-0.67-0.133l-0.002,0.079
                    c-1.023,0.018-2.023,0.456-2.694,1.315c-1.19,1.528-0.892,3.75,0.667,4.967c0.568,0.442,1.225,0.685,1.887,0.748
                    c1.562,0.513,25.499,8.383,33.266,11.568c8.029,3.294,10.35,0.864,10.35,0.864l2.709,1.69l18.398-23.593L77.301,44.227z"></path>
                <circle id="Oval_2_" fill="#FFFFFF" stroke="#0E3C54" stroke-width="2" cx="71.777" cy="76.114" r="1.473"></circle>
                <circle id="Oval_3_" fill="#FFFFFF" stroke="#0E3C54" stroke-width="2" cx="75.049" cy="71.642" r="1.473"></circle>
            </g>
        </g>
    </g>
</svg>
