<svg class="enliven" version="1.1" id="Layer_6" xmlns="http://www.w3.org/2000/svg" xmlns:xlink="http://www.w3.org/1999/xlink" x="0px" y="0px" viewBox="0 0 336 236" enable-background="new 0 0 336 236" xml:space="preserve" data-global-elvn="enableViewport, disableClick, none, startInvisible, notResponsive, 500, notLoop, 500">
    <g id="Page-1" xmlns="http://www.w3.org/2000/svg">
        <g id="m_18">
            <path id="Shape" fill="#FFFFFF" stroke="#0E3C54" stroke-width="2" stroke-dasharray="2" d="M23.232,87.827h53.787" data-elvn="expandL, in, 1000, 200, linear" class="elvn-layer"></path>
            <path id="Shape_1_" fill="#FFFFFF" stroke="#0E3C54" stroke-width="2" stroke-dasharray="2" d="M255.496,31.184h34.592" data-elvn="fadeShortL, in, 2600, 200, linear" class="elvn-layer"></path>
            <path id="Shape_2_" fill="#FFFFFF" stroke="#0E3C54" stroke-width="2" stroke-dasharray="2" d="M282.523,23.785h27.616" data-elvn="fadeShortL, in, 2700, 200, linear" class="elvn-layer"></path>
            <path id="Shape_3_" fill="#FFFFFF" stroke="#0E3C54" stroke-width="2" stroke-dasharray="2" d="M58.054,20.986h27.615" data-elvn="expandL, in, 800, 200, linear" class="elvn-layer"></path>
            <g id="graph-tl" transform="translate(23.000000, 22.000000)" data-elvn="scaleB, in, 800, 300, backout" class="elvn-layer">
                <g id="Group" transform="translate(0.000000, 18.000000)">
                    <path id="Shape_4_" fill="#FFFFFF" d="M8.524,37.122c0,1.65-1.35,3-3,3H3.149c-1.65,0-3-1.35-3-3V3.889c0-1.65,1.35-3,3-3h2.375
                        c1.65,0,3,1.35,3,3V37.122z"></path>
                    <path id="Shape_5_" fill="none" stroke="#0E3C54" stroke-width="2" d="M8.524,37.122c0,1.65-1.35,3-3,3H3.149
                        c-1.65,0-3-1.35-3-3V3.889c0-1.65,1.35-3,3-3h2.375c1.65,0,3,1.35,3,3V37.122z"></path>
                </g>
                <g id="Group_1_" transform="translate(14.000000, 0.000000)">
                    <path id="Shape_6_" fill="#03ABDA" d="M9.366,55.122c0,1.65-1.35,3-3,3H3.991c-1.65,0-3-1.35-3-3V3.962c0-1.65,1.35-3,3-3h2.375
                        c1.65,0,3,1.35,3,3V55.122z"></path>
                    <path id="Shape_7_" fill="none" stroke="#0E3C54" stroke-width="2" d="M9.366,55.122c0,1.65-1.35,3-3,3H3.991
                        c-1.65,0-3-1.35-3-3V3.962c0-1.65,1.35-3,3-3h2.375c1.65,0,3,1.35,3,3V55.122z"></path>
                </g>
                <g id="Group_2_" transform="translate(29.000000, 28.000000)">
                    <path id="Shape_8_" fill="#FFFFFF" d="M9.207,27.122c0,1.65-1.35,3-3,3H3.832c-1.65,0-3-1.35-3-3V3.743c0-1.65,1.35-3,3-3h2.375
                        c1.65,0,3,1.35,3,3V27.122z"></path>
                    <path id="Shape_9_" fill="none" stroke="#0E3C54" stroke-width="2" d="M9.207,27.122c0,1.65-1.35,3-3,3H3.832
                        c-1.65,0-3-1.35-3-3V3.743c0-1.65,1.35-3,3-3h2.375c1.65,0,3,1.35,3,3V27.122z"></path>
                </g>
                <g id="Group_3_" transform="translate(44.000000, 10.000000)">
                    <path id="Shape_10_" fill="#FFFFFF" d="M9.048,45.122c0,1.65-1.35,3-3,3H3.674c-1.65,0-3-1.35-3-3V3.092c0-1.649,1.35-3,3-3
                        h2.374c1.65,0,3,1.351,3,3V45.122z"></path>
                    <path id="Shape_11_" fill="none" stroke="#0E3C54" stroke-width="2" d="M9.048,45.122c0,1.65-1.35,3-3,3H3.674
                        c-1.65,0-3-1.35-3-3V3.092c0-1.649,1.35-3,3-3h2.374c1.65,0,3,1.351,3,3V45.122z"></path>
                </g>
            </g>
            <path id="Shape_12_" fill="#FFFFFF" stroke="#0E3C54" stroke-width="2" d="M23.12,209.41l9.579-9.584
                c4.536,2.588,10.423,1.939,14.294-1.926c4.636-4.641,4.636-12.182,0-16.82c-4.64-4.637-12.186-4.637-16.825,0
                c-3.864,3.865-4.507,9.758-1.927,14.295l-9.573,9.576c-1.231,1.234-1.231,3.23,0,4.459
                C19.896,210.629,21.889,210.629,23.12,209.41L23.12,209.41z M33.402,194.67c-2.85-2.861-2.85-7.498,0-10.355
                c2.856-2.855,7.504-2.855,10.352,0c2.855,2.857,2.855,7.494,0,10.355C40.906,197.52,36.258,197.52,33.402,194.67L33.402,194.67z" data-elvn="scaleR, in, 1600, 200, backout" class="elvn-layer"></path>
            <path id="Shape_13_" fill="#03ABDA" stroke="#0E3C54" stroke-width="2" d="M190.828,212.449
                c7.578-3.008,11.888-10.686,10.979-18.416l5.631-7.178l-8.899-1.152c-4.62-6.33-13.078-9.014-20.701-5.988
                c-9.038,3.588-13.459,13.822-9.871,22.863C171.554,211.617,181.791,216.037,190.828,212.449z" data-elvn="scaleC, in, 1100, 300, backout" class="elvn-layer"></path>
            <path id="Shape_14_" fill="none" stroke="#0E3C54" stroke-width="2" stroke-dasharray="2" d="M174.192,174.17
                c-12.374,4.912-18.426,18.924-13.514,31.301c4.912,12.377,18.928,18.426,31.3,13.514" data-elvn="scaleC, in, 1300, 200, linear" class="elvn-layer"></path>
            <path id="Shape_15_" fill="#FFFFFF" stroke="#0E3C54" stroke-width="2" d="M277.384,142.008l-2.685-5.551
                c-0.562-1.121-1.912-1.588-3.029-1.045l-4.812,2.348c-1.119,0.553-2.727,0.236-3.548-0.701l-6.078-5.354
                c-1.006-0.713-1.491-2.271-1.094-3.445l1.753-5.066c0.417-1.174-0.23-2.477-1.384-2.859l-5.829-2.011
                c-1.17-0.416-2.46,0.204-2.87,1.399l-1.759,5.034c-0.396,1.17-1.748,2.105-2.97,2.055l-8.112,0.461
                c-1.22,0.211-2.664-0.547-3.191-1.66l-2.35-4.816c-0.544-1.101-1.91-1.566-3.01-1.028l-5.529,2.702
                c-1.119,0.527-1.585,1.889-1.041,3.01l2.327,4.82c0.552,1.111,0.231,2.686-0.67,3.518l-5.371,6.084
                c-0.704,1.018-2.269,1.508-3.457,1.094l-5.05-1.732c-1.17-0.418-2.465,0.195-2.86,1.377l-2.032,5.799
                c-0.396,1.199,0.229,2.473,1.401,2.885l5.068,1.771c1.169,0.383,2.09,1.738,2.037,2.967l0.474,8.078
                c0.202,1.242-0.537,2.707-1.66,3.219l-4.834,2.346c-1.115,0.547-1.57,1.893-1.02,3.031l2.677,5.512
                c0.552,1.135,1.897,1.604,3.015,1.061l4.814-2.355c1.12-0.543,2.726-0.234,3.545,0.697l6.088,5.365
                c0.997,0.711,1.483,2.271,1.086,3.445l-1.75,5.061c-0.414,1.178,0.225,2.449,1.396,2.859l5.813,2.018
                c1.175,0.414,2.46-0.227,2.857-1.389l1.766-5.076c0.4-1.172,1.758-2.094,2.992-2.018l8.079-0.465
                c1.239-0.213,2.678,0.525,3.213,1.656l2.34,4.789c0.55,1.135,1.915,1.596,3.016,1.055l5.546-2.703
                c1.102-0.537,1.572-1.881,1.038-3.006l-2.342-4.818c-0.547-1.113-0.233-2.709,0.669-3.541l5.37-6.068
                c0.727-1.016,2.291-1.508,3.461-1.088l5.052,1.73c1.188,0.418,2.473-0.223,2.871-1.395l2.017-5.811
                c0.414-1.172-0.227-2.438-1.396-2.855l-5.073-1.771c-1.17-0.416-2.087-1.736-2.016-2.969l-0.464-8.113
                c-0.231-1.211,0.525-2.668,1.646-3.209l4.814-2.336C277.459,144.465,277.909,143.102,277.384,142.008z M257.772,162.225
                c-3.233,9.391-13.481,14.385-22.864,11.135c-9.375-3.254-14.369-13.504-11.116-22.863c3.245-9.393,13.484-14.391,22.875-11.141
                C256.031,142.619,261.039,152.857,257.772,162.225z" data-elvn="wheelC, in, 1500, 300, backout" class="elvn-layer"></path>
            <rect id="Rectangle-path_1_" x="96.755" y="34.909" fill="none" width="142.913" height="11.535"></rect>
            <path id="Shape_16_" fill="none" stroke="#0E3C54" stroke-width="2" stroke-dasharray="2" d="M233.232,211.457v-5.334
                c0,0-0.521-6.381,6.38-6.381h6.499" data-elvn="maskSlideL, in, 1700, 200, linear" class="elvn-layer"></path>
            <path id="Shape_17_" fill="none" stroke="#0E3C54" stroke-width="2" stroke-dasharray="2" d="M82.793,103.857v-5.334
                c0,0-0.522-6.38,6.38-6.38h6.499" data-elvn="maskSlideR, in, 1600, 200, linear" class="elvn-layer"></path>
            <path id="Shape_18_" fill="none" stroke="#0E3C54" stroke-width="2" stroke-dasharray="2" d="M75.831,203.721v5.334
                c0,0,0.521,6.381-6.38,6.381h-6.499" data-elvn="maskSlideR, in, 1200, 200, linear" class="elvn-layer"></path>
            <path id="Shape_19_" fill="none" stroke="#0E3C54" stroke-width="2" stroke-dasharray="2" d="M233.215,212.443v3.334
                c0,0,0.521,6.381-6.38,6.381l0,0" data-elvn="maskSlideL, in, 1600, 100, linear" class="elvn-layer"></path>
            <path id="Shape_20_" fill="none" stroke="#0E3C54" stroke-width="2" stroke-dasharray="2" d="M152.317,170.5v14.434
                c0,0,0.521,6.379-6.38,6.379h-15.5" data-elvn="maskSlideR, in, 800, 200, linear" class="elvn-layer"></path>
            <path id="Shape_21_" fill="none" stroke="#0E3C54" stroke-width="2" stroke-dasharray="2" d="M60.317,215.598H45.244
                c0,0-6.38,0.521-6.38-6.381v-6.498" data-elvn="maskSlideR, in, 1400, 200, linear" class="elvn-layer"></path>
            <path id="Shape_22_" fill="none" stroke="#0E3C54" stroke-width="2" stroke-dasharray="2" d="M225.823,222.109L225.823,222.109
                c0,0-6.38,0.521-6.38-6.379v-4.5l-0.08-0.912v-6.498c0-6.902-6.381-6.381-6.381-6.381l-10.625-0.01" data-elvn="maskSlideL, in, 1500, 200, linear" class="elvn-layer"></path>
            <circle id="Oval" fill="none" stroke="#03ABDA" stroke-width="2" cx="241.247" cy="20.856" r="2.416" data-elvn="fadeShortL, in, 2300, 200, linear" class="elvn-layer"></circle>
            <circle id="Oval_1_" fill="none" stroke="#03ABDA" stroke-width="2" cx="260.466" cy="20.856" r="2.416" data-elvn="fadeShortL, in, 2200, 200, linear" class="elvn-layer"></circle>
            <circle id="Oval_2_" fill="none" stroke="#03ABDA" stroke-width="2" cx="115.39" cy="213.695" r="2.416" data-elvn="fadeShortL, in, 2400, 200, linear" class="elvn-layer"></circle>
            <circle id="Oval_3_" fill="none" stroke="#03ABDA" stroke-width="2" cx="134.608" cy="213.695" r="2.416" data-elvn="fadeShortL, in, 2500, 200, linear" class="elvn-layer"></circle>
            <g id="graph-left" transform="translate(21.000000, 105.000000)" data-elvn="scaleB, in, 2200, 300, backout" class="elvn-layer">

                    <rect id="Rectangle-path_2_" x="0.193" y="42.994" fill="#FFFFFF" stroke="#0E3C54" stroke-width="2" width="7.908" height="14.943"></rect>

                    <rect id="Rectangle-path_3_" x="0.193" y="0.964" fill="#03ABDA" stroke="#0E3C54" stroke-width="2" width="7.908" height="31.239"></rect>

                    <rect id="Rectangle-path_4_" x="0.193" y="36.152" fill="#FFFFFF" stroke="#0E3C54" stroke-width="2" width="7.908" height="3.33"></rect>

                    <rect id="Rectangle-path_5_" x="16.464" y="32.355" fill="#FFFFFF" stroke="#0E3C54" stroke-width="2" width="7.907" height="25.582"></rect>

                    <rect id="Rectangle-path_6_" x="16.464" y="0.964" fill="#FFFFFF" stroke="#0E3C54" stroke-width="2" width="7.907" height="20.598"></rect>

                    <rect id="Rectangle-path_7_" x="16.464" y="25.514" fill="#FFFFFF" stroke="#0E3C54" stroke-width="2" width="7.907" height="3.33"></rect>
            </g>
            <g id="middle-computer" transform="translate(98.000000, 56.000000)" data-elvn="stamp, in, 0, 300, backout" class="elvn-layer">
                <path id="Shape_23_" fill="#FFFFFF" stroke="#0E3C54" stroke-width="2" d="M0.04,84.021V3.313c0-1.723,1.397-3.119,3.12-3.119
                    h132.176c1.724,0,3.12,1.396,3.12,3.119v80.708H0.04L0.04,84.021z"></path>
                <path id="Shape_24_" fill="#FFFFFF" stroke="#0E3C54" stroke-width="2" d="M0.04,84.021v9.357c0,1.725,1.397,3.121,3.12,3.121
                    h53.172l-3.648,10.924l-5.464,0.668v4.717h46.4v-4.717l-5.465-0.668l-3.648-10.924h50.83c1.724,0,3.12-1.396,3.12-3.121v-9.357
                    H0.04z"></path>
                <polygon id="Shape_25_" fill="#03ABDA" stroke="#0E3C54" stroke-width="2" points="133.049,6.281 133.049,77.936 5.447,77.936
                    5.447,6.281 			"></polygon>
                <polygon id="Shape_26_" fill="none" stroke="#0E3C54" stroke-width="2" stroke-dasharray="2" points="31.286,24.497
                    109.299,24.497 69.993,62.193 			"></polygon>
                <circle id="Oval_4_" fill="#FFFFFF" stroke="#0E3C54" stroke-width="2" cx="69.993" cy="62.193" r="7.096"></circle>
                <circle id="Oval_5_" fill="#FFFFFF" stroke="#0E3C54" stroke-width="2" cx="31.286" cy="24.497" r="7.096"></circle>
                <circle id="Oval_6_" fill="#FFFFFF" stroke="#0E3C54" stroke-width="2" cx="109.299" cy="24.497" r="7.096"></circle>
            </g>
            <g id="ipad" transform="translate(58.000000, 104.000000)" data-elvn="scaleTR, in, 500, 300, backout" class="elvn-layer">
                <path id="Shape_27_" fill="#FFFFFF" stroke="#0E3C54" stroke-width="2" d="M6.273,0.689h59.569c3.046,0,5.518,2.47,5.518,5.514
                    v86.045c0,3.047-2.471,5.516-5.518,5.516H6.273c-3.046,0-5.515-2.469-5.515-5.516V6.203C0.759,3.159,3.227,0.689,6.273,0.689z"></path>
                <path id="Shape_28_" fill="#FFFFFF" stroke="#0E3C54" stroke-width="2" d="M36.059,90.271c1.389,0,2.516,1.127,2.516,2.516
                    c0,1.387-1.126,2.514-2.516,2.514c-1.39,0-2.514-1.127-2.514-2.514C33.545,91.398,34.669,90.271,36.059,90.271z"></path>
                <polygon id="Shape_29_" fill="#03ABDA" stroke="#0E3C54" stroke-width="2" points="4.185,10.617 67.932,10.617 67.932,87.836
                    4.185,87.836 			"></polygon>

                    <rect id="Rectangle-path_8_" x="12.698" y="62.133" fill="#FFFFFF" stroke="#0E3C54" stroke-width="2" width="45.68" height="5.523"></rect>

                    <rect id="Rectangle-path_9_" x="12.698" y="72.287" fill="#FFFFFF" stroke="#0E3C54" stroke-width="2" width="45.68" height="5.523"></rect>
                <path id="Shape_30_" fill="#FFFFFF" stroke="#0E3C54" stroke-width="2" d="M53.487,36.543c0,10.432-8.461,18.895-18.896,18.895
                    c-10.434,0-18.893-8.463-18.893-18.895c0-10.438,8.459-18.893,18.893-18.893C45.026,17.65,53.487,26.105,53.487,36.543z"></path>
                <path id="Shape_31_" fill="#FFFFFF" stroke="#0E3C54" stroke-width="2" d="M34.592,24.643c-4.915,0-8.896,4.295-8.896,8.898
                    c0,2.449,1.223,3.596,3.559,7.773c2.053,3.67,3.763,7,3.763,7c0.853,1.652,2.246,1.654,3.097,0.002c0,0,1.726-3.334,3.816-7.002
                    c2.381-4.178,3.56-5.322,3.56-7.773C43.49,28.938,39.507,24.643,34.592,24.643z M34.592,38.879c-2.948,0-5.338-2.391-5.338-5.338
                    s2.39-5.338,5.338-5.338c2.949,0,5.338,2.391,5.338,5.338S37.541,38.879,34.592,38.879z"></path>
            </g>
            <g id="speech-bubble" transform="translate(221.000000, 40.000000)" data-elvn="scaleBL, in, 250, 300, backout" class="elvn-layer">
                <path id="Shape_32_" fill="#FFFFFF" stroke="#0E3C54" stroke-width="2" d="M86.657,11.277H73.631l4.053-11.105L44.897,11.277
                    H9.337c-4.91,0-8.9,2.242-8.9,5.014v38.694c0,2.769,3.99,5.012,8.9,5.012h77.32c4.919,0,8.905-2.243,8.905-5.012V16.291
                    C95.562,13.519,91.576,11.277,86.657,11.277z"></path>
                <g id="Group_4_" transform="translate(13.000000, 19.000000)">

                        <rect id="Rectangle-path_10_" x="0.5" y="0.747" fill="#FFFFFF" stroke="#0E3C54" stroke-width="2" width="50.309" height="4.088"></rect>

                        <rect id="Rectangle-path_11_" x="54.794" y="0.747" fill="#FFFFFF" stroke="#0E3C54" stroke-width="2" width="16.521" height="4.088"></rect>

                        <rect id="Rectangle-path_12_" x="0.5" y="14.657" fill="#FFFFFF" stroke="#0E3C54" stroke-width="2" width="26.482" height="4.09"></rect>

                        <rect id="Rectangle-path_13_" x="30.881" y="14.657" fill="#03ABDA" stroke="#0E3C54" stroke-width="2" width="40.434" height="4.09"></rect>

                        <rect id="Rectangle-path_14_" x="0.5" y="28.647" fill="#FFFFFF" stroke="#0E3C54" stroke-width="2" width="8.652" height="4.088"></rect>

                        <rect id="Rectangle-path_15_" x="13.523" y="28.647" fill="#FFFFFF" stroke="#0E3C54" stroke-width="2" width="42.41" height="4.088"></rect>
                </g>
            </g>
            <g id="image-rb" transform="translate(247.000000, 154.000000)" data-elvn="scaleL, in, 2000, 300, backout" class="elvn-layer">

                    <rect id="Rectangle-path_16_" x="0.139" y="0.01" fill="#FFFFFF" stroke="#0E3C54" stroke-width="2" width="63.631" height="62.893"></rect>

                    <rect id="Rectangle-path_17_" x="5.763" y="9.078" fill="#03ABDA" stroke="#0E3C54" stroke-width="2" width="52.325" height="46.5"></rect>
                <polyline id="Shape_33_" fill="#FFFFFF" stroke="#0E3C54" stroke-width="2" points="5.763,55.162 25.41,24.557 45.058,54.469
                    "></polyline>
                <polyline id="Shape_34_" fill="#FFFFFF" stroke="#0E3C54" stroke-width="2" points="27.449,55.162 42.823,34.998 58.088,55.162
                                "></polyline>
                <ellipse id="Oval_7_" fill="#FFFFFF" stroke="#0E3C54" stroke-width="2" cx="44.388" cy="21.281" rx="4.698" ry="4.707"></ellipse>
            </g>
        </g>
    </g>
</svg>
