<svg class="enliven" version="1.1" id="Layer_1" xmlns="http://www.w3.org/2000/svg" xmlns:xlink="http://www.w3.org/1999/xlink" x="0px" y="0px" viewBox="0 0 336 236" enable-background="new 0 0 336 236" xml:space="preserve" data-global-elvn="enableViewport, disableClick, none, startInvisible, notResponsive, 500, notLoop, 500">
    <g id="Page-1" xmlns="http://www.w3.org/2000/svg">
        <g id="m_34">
            <polyline id="Shape" opacity="0.2078" enable-background="new    " points="95.377,69.456 95.377,146.371 226.822,146.371
                95.377,146.371 95.377,124.05 95.377,119.085 95.377,69.456 		"></polyline>
            <polyline id="Shape_1_" opacity="0.1098" enable-background="new    " points="126.204,106.441 122.355,106.441 122.355,108.627
                123.575,108.627 126.204,106.441 		"></polyline>
            <g id="progress" transform="translate(100.000000, 194.000000)" data-elvn="scaleL, in, 1200, 300, backout" class="elvn-layer">

                    <rect id="Rectangle-path_1_" x="115.256" y="0.262" fill="#FFFFFF" stroke="#0E3C54" stroke-width="2" width="22.424" height="19.925"></rect>

                    <rect id="Rectangle-path_2_" x="0.661" y="0.326" fill="#FFFFFF" stroke="#0E3C54" stroke-width="2" width="114.595" height="19.926"></rect>

                    <rect id="progress-bar" x="5.317" y="4.054" fill="#FE804C" stroke="#0E3C54" stroke-width="2" width="104.429" height="12.471" data-elvn="maskSlideL, in, 1500, 200, linear" class="elvn-layer"></rect>
            </g>
            <g id="bubble" transform="translate(272.000000, 21.000000)" data-elvn="scaleB, in, 3800, 300, backout" class="elvn-layer">
                <path id="Shape_2_" fill="#FFFFFF" stroke="#0E3C54" stroke-width="2" d="M5.662,0.884h38.797c3.061,0,5.543,2.962,5.543,6.617
                    v20.946c0,3.658-2.482,6.617-5.543,6.617H10.584L0.121,43.183V28.447V18.189V7.501C0.121,3.846,2.604,0.884,5.662,0.884z"></path>
                <path id="Shape_3_" fill="#FE804C" stroke="#0E3C54" stroke-width="2" d="M20.117,24.229c0,1.363,0.951,1.896,2.113,1.186
                    l11.023-6.731c1.164-0.71,1.164-1.873,0-2.583L22.23,9.371c-1.162-0.71-2.113-0.178-2.113,1.187V24.229z"></path>
            </g>
            <g id="quotes" transform="translate(20.000000, 22.000000)" data-elvn="scaleB, in, 3000, 300, backout" class="elvn-layer">
                <path id="Shape_4_" fill="#FFFFFF" stroke="#0E3C54" stroke-width="2" d="M11.752,3.114L8.258,0.128
                    C3.92,3.313,0.615,8.986,0.615,15.056c0,4.875,2.734,7.562,5.853,7.562c2.829,0,5.095-2.387,5.095-5.378
                    c0-2.884-1.979-5.069-4.623-5.069c-0.472,0-1.131,0.197-1.23,0.197C6.092,9.184,8.731,5.205,11.752,3.114z"></path>
                <path id="Shape_5_" fill="#FFFFFF" stroke="#0E3C54" stroke-width="2" d="M22.044,12.171c-0.38,0-1.045,0.197-1.23,0.197
                    c0.375-3.185,3.02-7.163,6.04-9.254l-3.492-2.986c-4.338,3.185-7.641,8.858-7.641,14.928c0,4.875,2.732,7.562,5.851,7.562
                    c2.828,0,5.092-2.387,5.092-5.378C26.664,14.356,24.689,12.171,22.044,12.171z"></path>
            </g>
            <path id="Shape_6_" fill="#FE804C" stroke="#0E3C54" stroke-width="2" d="M57.854,61.274c-8.556,0-15.489,7.478-15.489,15.493
                c0,4.264,2.13,6.259,6.196,13.534c3.574,6.386,6.552,12.185,6.552,12.185c1.483,2.878,3.908,2.883,5.391,0.006
                c0,0,3.004-5.808,6.644-12.19c4.146-7.275,6.197-9.268,6.197-13.534C73.344,68.752,66.411,61.274,57.854,61.274z M57.854,86.06
                c-5.132,0-9.293-4.161-9.293-9.292c0-5.134,4.161-9.295,9.293-9.295c5.134,0,9.293,4.161,9.293,9.295
                C67.146,81.898,62.987,86.06,57.854,86.06z" data-elvn="scaleB, in, 2400, 300, backout" class="elvn-layer"></path>
            <g id="doc-2" transform="translate(19.000000, 133.000000)" data-elvn="scaleB, in, 1800, 300, backout" class="elvn-layer">
                <polygon id="Shape_7_" fill="#FFFFFF" stroke="#0E3C54" stroke-width="2" points="34.052,0.936 0.931,0.936 0.931,2.42
                    0.931,75.117 54.344,75.117 54.344,18.38 			"></polygon>

                    <polygon id="Shape_8_" fill="#FE804C" stroke="#0E3C54" stroke-width="2" stroke-linecap="round" stroke-linejoin="round" points="
                    33.927,18.38 54.221,18.38 33.927,0.936 			"></polygon>

                    <rect id="Rectangle-path_3_" x="8.527" y="15.042" fill="#FFFFFF" stroke="#0E3C54" stroke-width="2" width="6.208" height="53.003"></rect>

                    <rect id="Rectangle-path_4_" x="19.529" y="34.524" fill="#FFFFFF" stroke="#0E3C54" stroke-width="2" width="6.208" height="33.521"></rect>

                    <rect id="Rectangle-path_5_" x="30.531" y="43.821" fill="#FFFFFF" stroke="#0E3C54" stroke-width="2" width="6.208" height="24.224"></rect>

                    <rect id="Rectangle-path_6_" x="41.534" y="28.442" fill="#FFFFFF" stroke="#0E3C54" stroke-width="2" width="6.208" height="39.603"></rect>
            </g>
            <g id="Group-2" transform="translate(95.000000, 60.000000)" data-elvn="stamp, in, 0, 300, backout" class="elvn-layer">

                <rect id="Rectangle-path_121_" x="6" y="6" fill="#FFFFFF" width="135" height="83"></rect>
                <polyline id="Shape_9_" fill="#0E3C54" points="43.356,71.129 18.972,71.129 18.972,73.315 43.356,73.315 43.356,71.129 			"></polyline>
                <polyline id="Shape_10_" fill="#0E3C54" points="43.356,75.578 18.972,75.578 18.972,77.759 43.356,77.759 43.356,75.578 			"></polyline>
                <polyline id="Shape_11_" fill="#0E3C54" points="43.356,80.467 18.972,80.467 18.972,82.647 43.356,82.647 43.356,80.467 			"></polyline>
                <path id="Shape_12_" fill="#FE804C" stroke="#0E3C54" stroke-width="2" d="M107.207,14.741c-10.029,0-18.154,8.124-18.154,18.154
                    c0,10.034,8.125,18.158,18.154,18.158c10.027,0,18.158-8.124,18.158-18.158C125.365,22.865,117.234,14.741,107.207,14.741"></path>
                <path id="Shape_13_" fill="#FE804C" stroke="#0E3C54" stroke-width="2" d="M30.919,55.206c-3.353,0-6.066,2.722-6.066,6.067
                    c0,3.343,2.713,6.056,6.066,6.056c3.341,0,6.056-2.713,6.056-6.056C36.976,57.928,34.261,55.206,30.919,55.206"></path>
                <polyline id="Shape_14_" fill="#0E3C54" points="78.072,71.129 53.688,71.129 53.688,73.315 78.072,73.315 78.072,71.129 			"></polyline>
                <polyline id="Shape_15_" fill="#0E3C54" points="78.072,75.578 53.688,75.578 53.688,77.759 78.072,77.759 78.072,75.578 			"></polyline>
                <polyline id="Shape_16_" fill="#0E3C54" points="78.072,80.467 53.688,80.467 53.688,82.647 78.072,82.647 78.072,80.467 			"></polyline>
                <path id="Shape_17_" fill="#FE804C" stroke="#0E3C54" stroke-width="2" d="M65.636,55.206c-3.353,0-6.066,2.722-6.066,6.067
                    c0,3.343,2.713,6.056,6.066,6.056c3.341,0,6.056-2.713,6.056-6.056C71.691,57.928,68.977,55.206,65.636,55.206"></path>
                <path id="Shape_18_" fill="#FE804C" stroke="#0E3C54" stroke-width="2" d="M141.156,5.275v83.819H5.996V5.275H141.156
                    L141.156,5.275z M141.156,0.17H5.996c-2.821,0-5.106,2.285-5.106,5.105v83.819c0,2.82,2.286,5.106,5.106,5.106h135.161
                    c2.82,0,5.105-2.286,5.105-5.106V5.275C146.262,2.455,143.977,0.17,141.156,0.17z"></path>

                    <rect id="Rectangle-path_7_" x="59.35" y="94.904" fill="#FFFFFF" stroke="#0E3C54" stroke-width="2" width="28.955" height="18.131"></rect>
                <path id="Shape_19_" fill="#FFFFFF" stroke="#0E3C54" stroke-width="2" d="M44.737,111.033c0,0-0.103-1.145,2.079-1.145
                    c5.671,0,54.09,0.045,54.09,0.045s2.076-0.108,2.076,1.147c0,0.78,0,2.277,0,2.277s-0.049,1.164-2.432,1.164
                    c-8.15,0-53.734,0.021-53.734,0.021s-2.079,0.05-2.079-1.151C44.737,112.307,44.737,111.033,44.737,111.033z"></path>


                    <rect id="Rectangle-path_8_" x="16.042" y="14.666" fill="#FFFFFF" stroke="#0E3C54" stroke-width="2" width="63.458" height="6.955"></rect>

                    <rect id="Rectangle-path_9_" x="16.042" y="27.218" fill="#FFFFFF" stroke="#0E3C54" stroke-width="2" width="63.458" height="6.955"></rect>

                    <rect id="Rectangle-path_10_" x="16.042" y="39.77" fill="#FFFFFF" stroke="#0E3C54" stroke-width="2" width="63.458" height="6.955"></rect>

                    <rect id="Rectangle-path_11_" x="87.02" y="60.222" fill="#FFFFFF" stroke="#0E3C54" stroke-width="2" width="44.957" height="6.955"></rect>

                    <rect id="Rectangle-path_12_" x="87.02" y="72.773" fill="#FFFFFF" stroke="#0E3C54" stroke-width="2" width="44.957" height="6.955"></rect>

            </g>
            <g id="doc" transform="translate(219.000000, 81.000000)" data-elvn="scaleTL, in, 300, 300, backout" class="elvn-layer">
                <polygon id="Shape_20_" fill="#FFFFFF" stroke="#34525C" stroke-width="2" points="72.375,11.978 72.375,101.753 0.355,101.753
                    0.355,0.067 59.938,0.067 59.938,11.978 			"></polygon>

                    <polygon id="Shape_21_" fill="#FE804C" stroke="#0E3C54" stroke-width="2" stroke-linecap="round" stroke-linejoin="round" points="
                    60.877,0.067 60.877,11.978 73.312,11.978 			"></polygon>
                <g id="Group" transform="translate(7.000000, 15.000000)">

                        <rect id="Rectangle-path_13_" x="0.857" y="16.184" fill="#FFFFFF" stroke="#34525C" stroke-width="2" width="54.074" height="9.83"></rect>

                        <rect id="Rectangle-path_14_" x="0.857" y="30.584" fill="#FFFFFF" stroke="#34525C" stroke-width="2" width="54.074" height="5.719"></rect>

                        <rect id="Rectangle-path_15_" x="0.857" y="40.753" fill="#FFFFFF" stroke="#34525C" stroke-width="2" width="43.881" height="5.723"></rect>

                        <rect id="Rectangle-path_16_" x="0.857" y="0.935" fill="#FFFFFF" stroke="#34525C" stroke-width="2" width="32.451" height="5.725"></rect>

                        <rect id="Rectangle-path_17_" x="0.857" y="54.426" fill="#FFFFFF" stroke="#34525C" stroke-width="2" width="54.074" height="5.72"></rect>

                        <rect id="Rectangle-path_18_" x="0.857" y="64.596" fill="#FFFFFF" stroke="#34525C" stroke-width="2" width="41.777" height="5.723"></rect>
                </g>
            </g>
            <g id="search" transform="translate(238.000000, 130.000000)" data-elvn="scaleBR, in, 600, 300, backout" class="elvn-layer">
                <path id="Shape_22_" fill="#FFFFFF" stroke="#34525C" stroke-width="2" d="M33.205,46.011c-2.912,1.294-6.123,2.029-9.51,2.029
                    c-0.275,0-0.545-0.011-0.818-0.021"></path>
                <path id="Shape_23_" fill="#FFFFFF" stroke="#34525C" stroke-width="2" d="M47.211,23.694c0.008,0.27,0.02,0.54,0.02,0.812
                    c0,3.393-0.738,6.604-2.039,9.515"></path>
                <path id="Shape_24_" fill="#FE804C" stroke="#0E3C54" stroke-width="2" d="M24.51,0.993c-0.271-0.011-0.543-0.021-0.814-0.021
                    c-13.002,0-23.537,10.534-23.537,23.536c0,0.271,0.01,0.541,0.018,0.812c0.42,12.347,10.352,22.279,22.701,22.7
                    c0.273,0.01,0.543,0.021,0.818,0.021c3.387,0,6.598-0.735,9.51-2.029c0.359-0.16,0.717-0.325,1.066-0.502l0.369-0.279
                    l1.148-1.148L46.18,54.474l-1.67,1.668l19.561,20.303c1.256,1.362,3.348,1.405,4.664,0.097l6.984-6.988
                    c1.305-1.307,1.264-3.403-0.098-4.655L55.295,45.318l-1.654,1.657L43.33,36.666l1.357-1.568c0.178-0.354,0.344-0.711,0.504-1.073
                    c1.301-2.911,2.039-6.122,2.039-9.515c0-0.272-0.012-0.543-0.02-0.812C46.793,11.342,36.857,1.413,24.51,0.993z M38.051,24.507
                    c0,7.928-6.432,14.355-14.357,14.356c-7.932,0-14.355-6.431-14.355-14.356c0-7.928,6.426-14.357,14.355-14.357
                    C31.621,10.149,38.053,16.577,38.051,24.507z"></path>
                <path id="Shape_25_" fill="#FFFFFF" stroke="#34525C" stroke-width="2" d="M40.662,24.507c0.002-9.372-7.6-16.969-16.969-16.969
                    c-9.371,0-16.967,7.599-16.967,16.969c0,9.367,7.596,16.967,16.967,16.966C33.062,41.472,40.662,33.876,40.662,24.507z"></path>
                <path id="Shape_26_" fill="#FFFFFF" stroke="#34525C" stroke-width="2" d="M16.613,31.603c-0.734,0.738-1.93,0.736-2.668,0
                    c-2.383-2.385-5.4-8.847,0.254-16.238c0.629-0.827,1.818-0.988,2.645-0.354c0.828,0.633,0.986,1.816,0.354,2.644
                    c-5.082,6.646-0.768,11.094-0.584,11.28C17.35,29.671,17.35,30.866,16.613,31.603z"></path>
            </g>
            <path id="Shape_27_" fill="none" stroke="#0E3C54" stroke-width="2" stroke-dasharray="2" d="M98.568,207.141h-5.334
                c0,0-6.38,0.521-6.38-6.38v-6.499l0.009-1.304v-5.334c0,0-0.522-6.38,6.38-6.38h21.784h4.692h6.499c6.902,0,6.38-6.38,6.38-6.38
                v-19.698" data-elvn="maskSlideT, in, 900, 300, linear" class="elvn-layer"></path>
            <path id="Shape_28_" fill="none" stroke="#0E3C54" stroke-width="2" stroke-dasharray="2" d="M70.541,89.317h5.334
                c0,0,6.38-0.522,6.38,6.38v6.499l-0.009,0.455v5.334c0,0,0.522,6.38-6.38,6.38h-5.589c0,0-27.912,0-35.532,0
                c-6.902,0-6.38,6.38-6.38,6.38v13.19" data-elvn="maskSlideB, in, 2100, 200, linear" class="elvn-layer"></path>
            <path id="Shape_29_" fill="none" stroke="#0E3C54" stroke-width="2" stroke-dasharray="2" d="M24.298,44.618v10.14l0.009,0.455
                v5.334c0,0-0.521,6.38,6.38,6.38h14.051" data-elvn="maskSlideB, in, 2700, 200, linear" class="elvn-layer"></path>
            <path id="Shape_30_" fill="none" stroke="#0E3C54" stroke-width="2" stroke-dasharray="2" d="M293.602,56.831l0.008,0.455v5.334
                c0,0-0.521,6.38,6.381,6.38h5.588c0,0-2.088,0,5.531,0c6.902,0,6.381,6.38,6.381,6.38v73.196l0.025,6.123v5.334
                c0,0,0.523,6.38-6.379,6.38h-17.473" data-elvn="maskSlideB, in, 3300, 400, linear" class="elvn-layer"></path>
            <g id="rect-tl" transform="translate(62.000000, 11.000000)" data-elvn="fadeShortL, in, 3300, 300, backout" class="elvn-layer">
                <rect id="Rectangle-path_19_" x="5.147" y="4.803" fill="#FE804C" width="10.147" height="10.147"></rect>

                    <rect id="Rectangle-path_20_" x="0.147" y="0.803" fill="none" stroke="#0E3C54" stroke-width="2" width="10.147" height="10.147"></rect>
            </g>
            <g id="rect-br" transform="translate(254.000000, 207.000000)" data-elvn="fadeShortL, in, 1800, 300, backout" class="elvn-layer">
                <rect id="Rectangle-path_21_" x="6.619" y="5.678" fill="#FE804C" width="20.148" height="10.147"></rect>

                    <rect id="Rectangle-path_22_" x="0.619" y="0.678" fill="none" stroke="#0E3C54" stroke-width="2" width="20.148" height="10.147"></rect>
            </g>
            <circle id="Oval" fill="#FFFFFF" stroke="#FE5D4C" stroke-width="2" cx="305.562" cy="114.066" r="2.416" data-elvn="fadeShortL, in, 3500, 200, linear" class="elvn-layer"></circle>
            <circle id="Oval_1_" fill="#FFFFFF" stroke="#FE5D4C" stroke-width="2" cx="305.562" cy="133.285" r="2.416" data-elvn="fadeShortL, in, 3400, 200, linear" class="elvn-layer"></circle>
            <circle id="Oval_2_" fill="#FFFFFF" stroke="#FE5D4C" stroke-width="2" cx="19.931" cy="83.368" r="2.416" data-elvn="fadeShortL, in, 2600, 200, backout" class="elvn-layer"></circle>
            <circle id="Oval_3_" fill="#FFFFFF" stroke="#FE5D4C" stroke-width="2" cx="19.931" cy="102.587" r="2.416" data-elvn="fadeShortL, in, 2500, 200, backout" class="elvn-layer"></circle>
            <circle id="Oval_4_" fill="#FFFFFF" stroke="#FE5D4C" stroke-width="2" cx="245.975" cy="15.803" r="2.416" data-elvn="fadeShortL, in, 4000, 200, linear" class="elvn-layer"></circle>
            <circle id="Oval_5_" fill="#FFFFFF" stroke="#FE5D4C" stroke-width="2" cx="265.193" cy="15.803" r="2.416" data-elvn="fadeShortL, in, 4100, 200, linear" class="elvn-layer"></circle>
            <circle id="Oval_6_" fill="#FFFFFF" stroke="#FE5D4C" stroke-width="2" cx="48.245" cy="222.825" r="2.416" data-elvn="fadeShortL, in, 1800, 200, backout" class="elvn-layer"></circle>
            <circle id="Oval_7_" fill="#FFFFFF" stroke="#FE5D4C" stroke-width="2" cx="67.463" cy="222.825" r="2.416" data-elvn="fadeShortL, in, 1900, 200, backout" class="elvn-layer"></circle>
            <circle id="Oval_8_" fill="#FFFFFF" stroke="#FE5D4C" stroke-width="2" cx="168.27" cy="184.285" r="2.416" data-elvn="fadeShortL, in, 1200, 200, backout" class="elvn-layer"></circle>
            <circle id="Oval_9_" fill="#FFFFFF" stroke="#FE5D4C" stroke-width="2" cx="187.488" cy="184.285" r="2.416" data-elvn="fadeShortL, in, 1300, 200, backout" class="elvn-layer"></circle>
            <circle id="Oval_10_" fill="#FFFFFF" stroke="#FE5D4C" stroke-width="2" cx="82.255" cy="133.936" r="2.416" data-elvn="fadeShortL, in, 200, 200, backout" class="elvn-layer"></circle>
            <circle id="Oval_11_" fill="#FFFFFF" stroke="#FE5D4C" stroke-width="2" cx="254.619" cy="63.091" r="2.416" data-elvn="fadeShortL, in, 600, 200, backout" class="elvn-layer"></circle>
            <circle id="Oval_12_" fill="#FFFFFF" stroke="#FE5D4C" stroke-width="2" cx="309.73" cy="217.825" r="2.416" data-elvn="fadeShortL, in, 1000, 200, backout" class="elvn-layer"></circle>
        </g>
    </g>
</svg>