<svg class="enliven" version="1.1" id="Layer_3" xmlns="http://www.w3.org/2000/svg" xmlns:xlink="http://www.w3.org/1999/xlink" x="0px" y="0px" viewBox="0 0 297 212" enable-background="new 0 0 297 212" xml:space="preserve" data-global-elvn="enableViewport, disableClick, none, startInvisible, notResponsive, 500, notLoop, 500">

    <g id="Page-1" xmlns="http://www.w3.org/2000/svg">
        <g id="m_33">
            <rect id="Rectangle-path" x="124.088" y="205.188" fill="#34525C" width="15.757" height="2.061" data-elvn="fadeShortL, in, 1200, 300, backout" class="elvn-layer"></rect>
            <rect id="Rectangle-path_1_" x="116.21" y="209.817" fill="#34525C" width="50.626" height="2.061" data-elvn="fadeShortL, in, 1400, 300, backout" class="elvn-layer"></rect>
            <rect id="Rectangle-path_2_" x="175.268" y="5.613" fill="#34525C" width="15.756" height="2.061" data-elvn="fadeShortL, in, 1700, 300, backout" class="elvn-layer"></rect>
            <rect id="Rectangle-path_3_" x="148.277" y="0.983" fill="#34525C" width="50.625" height="2.061" data-elvn="fadeShortL, in, 1600, 300, backout" class="elvn-layer"></rect>
            <rect id="Rectangle-path_4_" x="0.356" y="9.958" fill="#34525C" width="20.578" height="2.061" data-elvn="fadeShortL, in, 1000, 300, backout" class="elvn-layer"></rect>
            <rect id="Rectangle-path_5_" x="9.409" y="4.328" fill="#34525C" width="21.44" height="2.061" data-elvn="fadeShortL, in, 1200, 300, backout" class="elvn-layer"></rect>
            <path id="Shape" fill="#6BD9E3" stroke="#0E3C54" stroke-width="2" d="M64.856,28.766c1.057-1.766,1.701-3.801,1.701-6.005
                c0-6.481-5.254-11.736-11.734-11.736c-5.386,0-9.876,3.649-11.256,8.596c-1.603-1.674-3.849-2.729-6.347-2.729
                c-4.859,0-8.802,3.942-8.802,8.803c0,1.053,0.218,2.056,0.556,2.989c-0.183-0.017-0.366-0.056-0.556-0.056
                c-3.24,0-5.867,4.097-5.867,7.334c0,3.243,2.626,7.334,5.867,7.334h35.205c3.24,0,5.868-4.091,5.868-7.334
                C69.491,33.148,67.503,29.333,64.856,28.766z" data-elvn="fadeShortL, in, 800, 300, backout" class="elvn-layer"></path>
            <g id="play" transform="translate(233.000000, 37.000000)" data-elvn="fadeShortL, in, 1900, 300, backout" class="elvn-layer">

                    <rect id="Rectangle-path_6_" x="0.756" y="0.322" fill="#6BD9E3" stroke="#0E3C54" stroke-width="2" width="20.928" height="21.906"></rect>

                    <rect id="Rectangle-path_7_" x="21.684" y="0.322" fill="#FFFFFF" stroke="#0E3C54" stroke-width="2" width="40.49" height="21.906"></rect>
                <path id="Shape_1_" fill="#FFFFFF" stroke="#0E3C54" stroke-width="2" d="M6.537,16.053c0,0.952,0.666,1.323,1.477,0.825
                    l7.705-4.7c0.812-0.501,0.812-1.309,0-1.806L8.014,5.668C7.203,5.17,6.537,5.546,6.537,6.496V16.053z"></path>
                <text transform="matrix(1 0 0 1 27.3232 15.6411)" fill="#0E3C54" font-family="'Helvetica'" font-size="11.9389">PLAY</text>
            </g>
            <!--<circle id="Oval" fill="#FFFFFF" stroke="#34525C" stroke-width="2" cx="209.777" cy="84.064" r="2.686"></circle>-->
            <g id="left" transform="translate(5.000000, 63.000000)" data-elvn="scaleR, in, 300, 300, backout" class="elvn-layer">

                    <rect id="Rectangle-path_8_" x="0.722" y="0.808" fill="#FFFFFF" stroke="#34525C" stroke-width="2" width="97.194" height="102.55"></rect>
                <rect id="Rectangle-path_9_" x="1.714" y="1.831" fill="#E6E6E6" width="95.207" height="14.135"></rect>
                <circle id="Oval_1_" fill="#FFFFFF" stroke="#34525C" stroke-width="2" cx="9.594" cy="8.877" r="2.685"></circle>
                <circle id="Oval_2_" fill="#FFFFFF" stroke="#34525C" stroke-width="2" cx="19.716" cy="8.877" r="2.685"></circle>
                <circle id="Oval_3_" fill="#FFFFFF" stroke="#34525C" stroke-width="2" cx="29.839" cy="8.877" r="2.685"></circle>

                    <rect id="Rectangle-path_10_" x="14.778" y="31.503" fill="#FFFFFF" stroke="#0E3C54" stroke-width="2" width="68.746" height="7.687"></rect>

                    <rect id="Rectangle-path_11_" x="14.778" y="56.519" fill="#FFFFFF" stroke="#0E3C54" stroke-width="2" width="68.746" height="7.697"></rect>

                    <rect id="Rectangle-path_12_" x="14.778" y="81.536" fill="#FFFFFF" stroke="#0E3C54" stroke-width="2" width="68.746" height="7.697"></rect>

                    <rect id="Rectangle-path_13_" x="14.778" y="31.503" fill="#6BD9E3" stroke="#0E3C54" stroke-width="2" width="34.373" height="7.687"></rect>

                    <rect id="Rectangle-path_14_" x="14.778" y="56.519" fill="#6BD9E3" stroke="#0E3C54" stroke-width="2" width="48.389" height="7.697"></rect>

                    <rect id="Rectangle-path_15_" x="14.778" y="81.536" fill="#6BD9E3" stroke="#0E3C54" stroke-width="2" width="57.019" height="7.697"></rect>
            </g>
            <g id="right" transform="translate(200.000000, 75.000000)" data-elvn="scaleL, in, 600, 300, backout" class="elvn-layer">

                    <rect id="Rectangle-path_16_" x="0.906" y="0.995" fill="#FFFFFF" stroke="#34525C" stroke-width="2" width="94.193" height="132.565"></rect>
                <rect id="Rectangle-path_17_" x="1.898" y="2.017" fill="#E6E6E6" width="92.205" height="14.135"></rect>
                <circle id="Oval_4_" fill="#FFFFFF" stroke="#34525C" stroke-width="2" cx="19.899" cy="9.064" r="2.685"></circle>
                <circle id="Oval_5_" fill="#FFFFFF" stroke="#34525C" stroke-width="2" cx="30.022" cy="9.064" r="2.685"></circle>
                <g id="Group" transform="translate(25.000000, 25.000000)">
                    <path id="Shape_2_" fill="#6BD9E3" stroke="#0E3C54" stroke-width="2" d="M18.803,30.933h8.4c2.861,0,6.795,1.697,8.754,3.777
                        l3.508,3.734c3.65-3.979,5.898-9.268,5.898-15.094c0-12.352-10.01-22.361-22.363-22.361c-12.348,0-22.359,10.01-22.359,22.361
                        c0,5.828,2.246,11.117,5.896,15.094l3.514-3.734C12.004,32.63,15.945,30.933,18.803,30.933z"></path>
                    <path id="Shape_3_" fill="#FFFFFF" stroke="#0E3C54" stroke-width="2" d="M39.465,38.444l-3.508-3.734
                        c-1.959-2.08-5.893-3.777-8.754-3.777h-8.4c-2.857,0-6.799,1.697-8.752,3.777l-3.514,3.734
                        c4.088,4.457,9.941,7.268,16.463,7.268C29.525,45.712,35.379,42.901,39.465,38.444z"></path>
                    <path id="Shape_4_" fill="#FFFFFF" stroke="#0E3C54" stroke-width="2" d="M15.123,25.21c0.309,3.145,3.146,5.723,6.322,5.723
                        h3.113c3.168,0,6.006-2.578,6.324-5.723l0.799-8.221c0.301-3.143-1.5-6.592-4.01-7.65c-2.502-1.055-6.658-1.055-9.229,0
                        c-2.574,1.059-4.43,4.508-4.125,7.65L15.123,25.21z"></path>
                </g>
                <g id="Group_1_" transform="translate(15.000000, 80.000000)">

                        <rect id="Rectangle-path_18_" x="0.15" y="30.376" fill="#6BD9E3" stroke="#0E3C54" stroke-width="2" width="66.354" height="7.148"></rect>

                        <rect id="Rectangle-path_19_" x="0.15" y="40.851" fill="#FFFFFF" stroke="#0E3C54" stroke-width="2" width="66.354" height="4.162"></rect>

                        <rect id="Rectangle-path_20_" x="0.15" y="11.884" fill="#FFFFFF" stroke="#0E3C54" stroke-width="2" width="66.354" height="4.162"></rect>

                        <rect id="Rectangle-path_21_" x="0.15" y="19.284" fill="#FFFFFF" stroke="#0E3C54" stroke-width="2" width="61.072" height="4.164"></rect>

                        <rect id="Rectangle-path_22_" x="0.15" y="0.476" fill="#6BD9E3" stroke="#0E3C54" stroke-width="2" width="66.354" height="4.164"></rect>
                </g>
            </g>
            <g id="middle" transform="translate(87.000000, 19.000000)" data-elvn="stamp, in, 0, 300, backout" class="elvn-layer">

                    <rect id="Rectangle-path_23_" x="0.531" y="0.735" fill="#FFFFFF" stroke="#34525C" stroke-width="2" width="127.195" height="175.151"></rect>
                <rect id="Rectangle-path_24_" x="1.523" y="1.757" fill="#E6E6E6" width="125.209" height="14.135"></rect>
                <circle id="Oval_6_" fill="#FFFFFF" stroke="#34525C" stroke-width="2" cx="9.403" cy="8.804" r="2.685"></circle>
                <circle id="Oval_7_" fill="#FFFFFF" stroke="#34525C" stroke-width="2" cx="19.525" cy="8.804" r="2.685"></circle>
                <circle id="Oval_8_" fill="#FFFFFF" stroke="#34525C" stroke-width="2" cx="29.648" cy="8.804" r="2.685"></circle>

                    <rect id="Rectangle-path_25_" x="6.718" y="32.145" fill="#6BD9E3" stroke="#0E3C54" stroke-width="2" width="115.265" height="30.753"></rect>
                <g id="Group_2_" transform="translate(7.000000, 70.000000)">

                        <rect id="Rectangle-path_26_" x="0.681" y="0.764" fill="#FFFFFF" stroke="#34525C" stroke-width="2" width="46.579" height="46.579"></rect>
                    <path id="Shape_5_" fill="#FFFFFF" stroke="#34525C" stroke-width="2" d="M0.681,0.764l46.578,46.579"></path>
                    <path id="Shape_6_" fill="#FFFFFF" stroke="#34525C" stroke-width="2" d="M0.681,47.343l46.58-46.579"></path>
                </g>
                <g id="Group_3_" transform="translate(73.000000, 70.000000)">

                        <rect id="Rectangle-path_27_" x="0.605" y="0.764" fill="#FFFFFF" stroke="#34525C" stroke-width="2" width="46.58" height="46.579"></rect>
                    <path id="Shape_7_" fill="#FFFFFF" stroke="#34525C" stroke-width="2" d="M0.605,0.764l46.581,46.579"></path>
                    <path id="Shape_8_" fill="#FFFFFF" stroke="#34525C" stroke-width="2" d="M0.605,47.343L47.186,0.764"></path>
                </g>
                <rect id="Rectangle-path_28_" x="64.35" y="42.451" fill="#34525C" width="49.139" height="2.061"></rect>
                <rect id="Rectangle-path_29_" x="64.35" y="47.081" fill="#34525C" width="36.244" height="2.061"></rect>
                <rect id="Rectangle-path_30_" x="16.841" y="124.368" fill="#34525C" width="67.64" height="2.061"></rect>
                <rect id="Rectangle-path_31_" x="16.841" y="128.997" fill="#34525C" width="49.888" height="2.061"></rect>

                    <rect id="Rectangle-path_32_" x="7.333" y="19.892" fill="#FFFFFF" stroke="#34525C" stroke-width="2" width="114.649" height="7.569"></rect>
                <rect id="Rectangle-path_33_" x="97.732" y="22.646" fill="#34525C" width="20.707" height="2.061"></rect>
                <text transform="matrix(1 0 0 1 23.9653 166.377)" fill="#0E3C54" font-family="'Helvetica'" font-size="13.4789">ONLINE DATA</text>

                    <rect id="Rectangle-path_34_" x="16.841" y="138.476" fill="#FFFFFF" stroke="#0E3C54" stroke-width="2" width="96.796" height="4.164"></rect>

                    <rect id="Rectangle-path_35_" x="15.916" y="138.476" fill="#6BD9E3" stroke="#0E3C54" stroke-width="2" width="66.555" height="4.164"></rect>
                <path id="Shape_9_" fill="#FFFFFF" stroke="#0E3C54" stroke-width="2" d="M84.688,140.563c0,2.672-2.18,4.838-4.852,4.838
                    c-2.678,0-4.854-2.166-4.854-4.838c0-2.686,2.176-4.852,4.854-4.852C82.508,135.712,84.688,137.878,84.688,140.563z"></path>
            </g>
        </g>
    </g>
</svg>
