<svg class="phone-enliven" version="1.1" id="Layer_8" xmlns="http://www.w3.org/2000/svg" xmlns:xlink="http://www.w3.org/1999/xlink" x="0px" y="0px" viewBox="0 0 300 208" enable-background="new 0 0 300 208" xml:space="preserve" data-global-elvn="enableViewport, disableClick, none, startInvisible, notResponsive, 500, notLoop, 500">
    <g id="Page-1" xmlns="http://www.w3.org/2000/svg">
        <g id="m_30" transform="translate(1.000000, 1.000000)">
            <g id="Group" transform="translate(240.000000, 92.000000)" data-elvn="scaleC, in, 2400, 300, backout" class="elvn-layer">
                <path id="Shape" fill="#6BD9E3" stroke="#0E3C54" stroke-width="2" d="M57.455,4.021c0-2.19-1.797-3.98-3.994-3.98H3.996
                    c-2.198,0-3.994,1.79-3.994,3.98v7.692h57.453V4.021L57.455,4.021z"></path>
                <path id="Shape_1_" fill="#FFFFFF" stroke="#0E3C54" stroke-width="2" d="M0.002,11.714v97.716c0,2.189,1.796,3.98,3.994,3.98
                    h49.465c2.197,0,3.994-1.791,3.994-3.98V11.714H0.002z"></path>
            </g>
            <g id="Group_1_" transform="translate(250.000000, 162.000000)" data-elvn="scaleC, in, 2400, 300, backout" class="elvn-layer">

                    <rect id="Rectangle-path" x="0.012" y="0.979" fill="#FFFFFF" stroke="#0E3C54" stroke-width="2" width="37.957" height="3.465"></rect>

                    <rect id="Rectangle-path_1_" x="0.012" y="12.76" fill="#FFFFFF" stroke="#0E3C54" stroke-width="2" width="37.957" height="3.465"></rect>
            </g>
            <path id="Shape_2_" fill="#FFFFFF" stroke="#0E3C54" stroke-width="2" d="M200.504,146.957c0.82-1.371,1.32-2.951,1.32-4.662
                c0-5.029-4.078-9.107-9.107-9.107c-4.182,0-7.666,2.83-8.737,6.67c-1.244-1.299-2.987-2.117-4.926-2.117
                c-3.772,0-6.832,3.061-6.832,6.832c0,0.816,0.169,1.596,0.431,2.32c-0.142-0.012-0.284-0.043-0.431-0.043
                c-2.515,0-4.554,3.18-4.554,5.693c0,2.516,2.039,5.691,4.554,5.691h27.325c2.516,0,4.555-3.176,4.555-5.691
                C204.102,150.357,202.559,147.396,200.504,146.957z" data-elvn="scaleC, in, 1800, 300, backout" class="elvn-layer"></path>
            <path id="Shape_3_" fill="#FFFFFF" stroke="#0E3C54" stroke-width="2" d="M269.365,145.404c-2.348,0-4.777-1.311-7.287-3.922
                l-3.91,3.922c1.482,1.557,3.088,2.805,4.817,3.742c1.263,0.684,2.793,1.127,4.59,1.326v2.928h3.87v-3.049
                c1.906-0.385,3.369-0.957,4.383-1.707c1.019-0.754,1.848-1.771,2.495-3.059c0.645-1.289,0.967-2.691,0.967-4.203
                c0-1.518-0.301-2.887-0.906-4.109c-0.603-1.217-1.471-2.262-2.595-3.137c-1.125-0.869-3.211-1.922-6.259-3.156
                c-1.714-0.686-2.854-1.326-3.418-1.932c-0.575-0.59-0.864-1.188-0.864-1.789c0-0.709,0.326-1.338,0.979-1.881
                c0.651-0.543,1.499-0.818,2.543-0.818c1.771,0,3.562,0.916,5.372,2.738l3.977-3.785c-1.265-1.244-2.36-2.129-3.287-2.654
                c-0.926-0.523-2.053-0.939-3.386-1.246v-3.27h-3.87v3.014c-2.307,0.102-4.214,0.877-5.723,2.322
                c-1.51,1.439-2.266,3.176-2.266,5.197c0,1.221,0.284,2.371,0.854,3.449c0.57,1.082,1.432,2.053,2.583,2.916
                c1.153,0.865,3.364,2.037,6.631,3.512c1.606,0.721,2.689,1.436,3.254,2.135c0.547,0.695,0.822,1.506,0.822,2.434
                c0,1.1-0.431,2.053-1.288,2.863C271.585,145,270.561,145.404,269.365,145.404z" data-elvn="scaleC, in, 2400, 300, backout" class="elvn-layer"></path>
            <g id="browser-middle" transform="translate(72.000000, 10.000000)" data-elvn="stamp, in, 0, 300, backout" class="elvn-layer">
                <g id="Group_2_">
                    <path id="Shape_4_" fill="#6BD9E3" stroke="#0E3C54" stroke-width="2" d="M153.464,4.045c0-2.19-1.798-3.98-3.995-3.98H4
                        c-2.198,0-3.994,1.79-3.994,3.98v7.692h153.458V4.045z"></path>
                    <path id="Shape_5_" fill="#FFFFFF" stroke="#0E3C54" stroke-width="2" d="M0.006,11.737v97.716c0,2.189,1.795,3.98,3.994,3.98
                        h145.469c2.197,0,3.995-1.791,3.995-3.98V11.737H0.006z"></path>
                </g>

                    <rect id="Rectangle-path_2_" x="0.006" y="11.737" fill="#FFFFFF" stroke="#0E3C54" stroke-width="2" width="153.458" height="12.153"></rect>
                <g id="Group_3_" transform="translate(121.000000, 2.000000)">
                    <ellipse id="Oval" fill="#FFFFFF" stroke="#0E3C54" stroke-width="2" cx="23.788" cy="3.987" rx="3.249" ry="3.237"></ellipse>
                    <ellipse id="Oval_1_" fill="#FFFFFF" stroke="#0E3C54" stroke-width="2" cx="13.818" cy="3.901" rx="3.248" ry="3.236"></ellipse>
                    <ellipse id="Oval_2_" fill="#FFFFFF" stroke="#0E3C54" stroke-width="2" cx="3.986" cy="3.901" rx="3.249" ry="3.236"></ellipse>
                </g>
                <polygon id="Shape_6_" fill="#FFFFFF" stroke="#0E3C54" stroke-width="2" points="38.087,11.737 4.989,11.737 6.323,5.329
                    36.756,5.329 			"></polygon>
                <polygon id="Shape_7_" fill="#FFFFFF" stroke="#0E3C54" stroke-width="2" points="71.188,11.737 38.087,11.737 39.421,5.329
                    69.855,5.329 			"></polygon>
                <polygon id="Shape_8_" fill="#FFFFFF" stroke="#0E3C54" stroke-width="2" points="104.287,11.737 71.188,11.737 72.521,5.329
                    102.955,5.329 			"></polygon>

                    <rect id="Rectangle-path_3_" x="22.925" y="14.729" fill="#FFFFFF" stroke="#0E3C54" stroke-width="2" width="125.112" height="6.174"></rect>
                <path id="Shape_9_" fill="#6BD9E3" stroke="#0E3C54" stroke-width="2" d="M130.419,44.161
                    c-5.054-9.133-16.552-12.437-25.685-7.384c-9.132,5.052-12.438,16.554-7.384,25.684c5.055,9.137,16.554,12.44,25.687,7.389
                    C132.168,64.794,135.475,53.295,130.419,44.161z"></path>
                <path id="Shape_10_" fill="#FFFFFF" stroke="#0E3C54" stroke-width="2" d="M126.344,44.984l-3.938-3.18
                    c-0.414-0.334-1.025-0.271-1.361,0.146l-10.748,13.312l-4.209-3.826c-0.396-0.363-1.01-0.33-1.369,0.065l-3.402,3.741
                    c-0.356,0.396-0.329,1.012,0.066,1.372l8.996,8.179c0.396,0.357,0.991,0.312,1.327-0.104l3.172-3.955
                    c0.007-0.009,0.007-0.017,0.012-0.026l11.599-14.36C126.826,45.932,126.758,45.318,126.344,44.984z"></path>
                <path id="Shape_11_" fill="#FFFFFF" stroke="#0E3C54" stroke-width="2" d="M142.289,100.178c0,1.602-1.298,2.898-2.899,2.898
                    H88.381c-1.602,0-2.9-1.297-2.9-2.898v-13.53c0-1.601,1.299-2.899,2.9-2.899h51.009c1.602,0,2.899,1.299,2.899,2.899V100.178z"></path>
                <path id="BUY" d="M105.479,92.665c0.49,0,0.871-0.068,1.143-0.204c0.427-0.214,0.641-0.598,0.641-1.154
                    c0-0.56-0.227-0.937-0.682-1.131c-0.257-0.109-0.637-0.163-1.143-0.163h-2.069v2.652H105.479z M105.869,96.617
                    c0.711,0,1.218-0.206,1.522-0.618c0.19-0.26,0.286-0.575,0.286-0.944c0-0.622-0.278-1.045-0.834-1.271
                    c-0.295-0.12-0.686-0.181-1.172-0.181h-2.303v3.014H105.869z M102.232,89.045h3.678c1.003,0,1.716,0.299,2.139,0.898
                    c0.249,0.354,0.373,0.762,0.373,1.224c0,0.54-0.154,0.983-0.461,1.329c-0.159,0.183-0.389,0.35-0.688,0.501
                    c0.439,0.167,0.768,0.356,0.985,0.565c0.385,0.373,0.577,0.888,0.577,1.545c0,0.552-0.173,1.051-0.519,1.498
                    c-0.517,0.668-1.339,1.003-2.466,1.003h-3.62V89.045z M111.483,89.045v5.293c0,0.622,0.117,1.139,0.35,1.551
                    c0.346,0.622,0.929,0.933,1.749,0.933c0.983,0,1.652-0.336,2.005-1.009c0.19-0.365,0.286-0.857,0.286-1.475v-5.293h1.178v4.809
                    c0,1.053-0.142,1.864-0.426,2.431c-0.521,1.034-1.504,1.551-2.95,1.551s-2.427-0.517-2.944-1.551
                    c-0.284-0.567-0.426-1.378-0.426-2.431v-4.809H111.483z M118.181,89.045h1.352l2.46,4.116l2.46-4.116h1.358l-3.235,5.113v3.451
                    h-1.16v-3.451L118.181,89.045z"></path>
            </g>
            <g id="shop" transform="translate(240.000000, 52.000000)" data-elvn="scaleB, in, 3000, 300, backout" class="elvn-layer">
                <path id="Shape_12_" fill="#FFFFFF" stroke="#0E3C54" stroke-width="2" d="M57.133,17.048c0,1.602-1.298,2.899-2.899,2.899H3.225
                    c-1.602,0-2.9-1.298-2.9-2.899V3.518c0-1.601,1.299-2.899,2.9-2.899h51.009c1.602,0,2.899,1.299,2.899,2.899V17.048z"></path>
                <path id="SHOP" d="M14.519,11.885c0.027,0.486,0.142,0.88,0.344,1.183c0.385,0.567,1.063,0.851,2.035,0.851
                    c0.435,0,0.832-0.062,1.189-0.187c0.692-0.241,1.038-0.672,1.038-1.294c0-0.466-0.146-0.799-0.437-0.997
                    c-0.295-0.194-0.758-0.363-1.387-0.507l-1.16-0.262c-0.758-0.171-1.294-0.359-1.609-0.565c-0.544-0.358-0.816-0.892-0.816-1.603
                    c0-0.77,0.266-1.401,0.799-1.895c0.532-0.494,1.286-0.74,2.262-0.74c0.898,0,1.66,0.217,2.288,0.65
                    c0.628,0.433,0.941,1.126,0.941,2.078h-1.09c-0.058-0.459-0.183-0.81-0.373-1.055c-0.354-0.447-0.954-0.67-1.801-0.67
                    c-0.684,0-1.176,0.144-1.475,0.431s-0.449,0.622-0.449,1.003c0,0.42,0.175,0.727,0.525,0.921c0.229,0.124,0.748,0.28,1.556,0.466
                    l1.201,0.274c0.579,0.132,1.026,0.313,1.341,0.542c0.544,0.4,0.816,0.981,0.816,1.743c0,0.948-0.345,1.626-1.035,2.035
                    c-0.69,0.408-1.491,0.612-2.405,0.612c-1.065,0-1.898-0.272-2.501-0.816c-0.602-0.54-0.898-1.273-0.886-2.198H14.519z
                     M21.753,6.085h1.172v3.539h4.454V6.085h1.172v8.564h-1.172v-4.005h-4.454v4.005h-1.172V6.085z M37.4,7.309
                    c0.567,0.758,0.851,1.727,0.851,2.909c0,1.279-0.325,2.342-0.974,3.189c-0.762,0.995-1.848,1.492-3.259,1.492
                    c-1.317,0-2.353-0.435-3.107-1.306c-0.672-0.839-1.009-1.9-1.009-3.183c0-1.158,0.288-2.149,0.863-2.973
                    c0.738-1.057,1.83-1.586,3.276-1.586C35.554,5.852,36.673,6.337,37.4,7.309z M36.377,12.763c0.457-0.733,0.685-1.575,0.685-2.527
                    c0-1.007-0.263-1.817-0.79-2.431s-1.247-0.921-2.16-0.921c-0.886,0-1.609,0.304-2.169,0.912c-0.56,0.608-0.839,1.505-0.839,2.69
                    c0,0.948,0.24,1.748,0.72,2.399c0.48,0.651,1.258,0.976,2.335,0.976C35.181,13.861,35.92,13.495,36.377,12.763z M39.743,6.085
                    h3.853c0.762,0,1.376,0.215,1.842,0.644c0.466,0.429,0.7,1.033,0.7,1.81c0,0.668-0.208,1.25-0.624,1.746
                    c-0.416,0.496-1.055,0.743-1.918,0.743h-2.693v3.62h-1.16V6.085z M44.267,7.262c-0.257-0.12-0.608-0.181-1.055-0.181h-2.308
                    v2.967h2.308c0.521,0,0.943-0.111,1.268-0.332c0.325-0.222,0.487-0.612,0.487-1.172C44.967,7.915,44.733,7.488,44.267,7.262z"></path>
            </g>
            <g id="cloud" transform="translate(0.000000, 186.000000)" data-elvn="scaleT, in, 800, 300, backout" class="elvn-layer">
                <path id="Shape_13_" fill="#FFFFFF" stroke="#0E3C54" stroke-width="2" d="M56.826,16.992c0,1.602-1.298,2.898-2.899,2.898H2.917
                    c-1.602,0-2.899-1.297-2.899-2.898V3.461c0-1.6,1.298-2.898,2.899-2.898h51.009c1.602,0,2.899,1.299,2.899,2.898L56.826,16.992
                    L56.826,16.992z"></path>
                <path id="CLOUD" d="M16.586,6.653c0.599,0.571,0.931,1.22,0.997,1.947h-1.131c-0.128-0.552-0.384-0.989-0.767-1.312
                    c-0.383-0.323-0.92-0.484-1.612-0.484c-0.843,0-1.524,0.296-2.043,0.889c-0.519,0.593-0.778,1.501-0.778,2.725
                    c0,1.003,0.234,1.816,0.702,2.44c0.468,0.624,1.167,0.936,2.096,0.936c0.855,0,1.506-0.328,1.953-0.985
                    c0.237-0.346,0.414-0.801,0.53-1.364h1.131c-0.101,0.902-0.435,1.658-1.003,2.268c-0.68,0.735-1.597,1.102-2.752,1.102
                    c-0.995,0-1.83-0.301-2.507-0.904c-0.89-0.797-1.335-2.027-1.335-3.69c0-1.263,0.334-2.299,1.003-3.107
                    c0.723-0.878,1.72-1.317,2.991-1.317C15.147,5.796,15.988,6.082,16.586,6.653z M19.076,6.029h1.16v7.543h4.337v1.02h-5.497V6.029
                    z M32.769,7.253c0.567,0.758,0.851,1.727,0.851,2.909c0,1.279-0.325,2.342-0.974,3.189c-0.762,0.995-1.848,1.492-3.259,1.492
                    c-1.317,0-2.353-0.435-3.107-1.306c-0.672-0.839-1.009-1.9-1.009-3.183c0-1.158,0.288-2.149,0.863-2.973
                    c0.738-1.057,1.83-1.586,3.276-1.586C30.923,5.796,32.043,6.282,32.769,7.253z M31.746,12.707
                    c0.457-0.733,0.685-1.575,0.685-2.527c0-1.007-0.263-1.817-0.79-2.431s-1.247-0.921-2.16-0.921c-0.886,0-1.609,0.304-2.169,0.912
                    s-0.839,1.505-0.839,2.69c0,0.948,0.24,1.748,0.72,2.399c0.48,0.651,1.258,0.976,2.335,0.976
                    C30.55,13.806,31.29,13.44,31.746,12.707z M36.261,6.029v5.293c0,0.622,0.117,1.139,0.35,1.551
                    c0.346,0.622,0.929,0.933,1.749,0.933c0.983,0,1.652-0.336,2.005-1.009c0.19-0.365,0.286-0.857,0.286-1.475V6.029h1.178v4.809
                    c0,1.053-0.142,1.864-0.426,2.431c-0.521,1.034-1.504,1.551-2.95,1.551s-2.427-0.517-2.944-1.551
                    c-0.284-0.567-0.426-1.378-0.426-2.431V6.029H36.261z M46.912,13.602c0.393,0,0.715-0.041,0.968-0.122
                    c0.451-0.152,0.82-0.443,1.108-0.874c0.229-0.346,0.394-0.789,0.496-1.329c0.058-0.323,0.087-0.622,0.087-0.898
                    c0-1.061-0.211-1.885-0.633-2.472c-0.422-0.587-1.101-0.88-2.037-0.88h-2.058v6.576H46.912z M43.676,6.029h3.469
                    c1.178,0,2.091,0.418,2.74,1.253c0.579,0.754,0.869,1.72,0.869,2.897c0,0.909-0.171,1.731-0.513,2.466
                    c-0.602,1.298-1.638,1.947-3.107,1.947h-3.457V6.029z"></path>
            </g>
            <g id="www" transform="translate(0.000000, 2.000000)" data-elvn="scaleB, in, 1200, 200, linear" class="elvn-layer">
                <path id="Shape_14_" fill="#FFFFFF" stroke="#0E3C54" stroke-width="2" d="M56.826,16.501c0,1.602-1.298,2.899-2.899,2.899H2.917
                    c-1.602,0-2.899-1.298-2.899-2.899V2.971c0-1.601,1.298-2.899,2.899-2.899h51.009c1.602,0,2.899,1.299,2.899,2.899L56.826,16.501
                    L56.826,16.501z"></path>
                <path id="WWW" d="M15.019,5.538l1.615,6.966l1.935-6.966h1.259l1.935,6.966l1.615-6.966h1.271l-2.25,8.564h-1.218l-1.976-7.1
                    l-1.988,7.1h-1.218L13.76,5.538H15.019z M26.288,5.538l1.615,6.966l1.935-6.966h1.259l1.935,6.966l1.615-6.966h1.271l-2.25,8.564
                    H32.45l-1.976-7.1l-1.988,7.1h-1.218l-2.239-8.564H26.288z M37.556,5.538l1.615,6.966l1.935-6.966h1.259l1.935,6.966l1.615-6.966
                    h1.271l-2.25,8.564h-1.218l-1.976-7.1l-1.988,7.1h-1.218l-2.239-8.564H37.556z"></path>
            </g>
            <path id="Shape_15_" fill="none" stroke="#0E3C54" stroke-width="2" stroke-dasharray="2" d="M54.914,155.729l-0.009,6.357v5.334
                c0,0,0.521,6.381-6.38,6.381h-6.499h-1.808h-6.499c-6.902,0-6.38,6.379-6.38,6.379v5.334" data-elvn="maskSlideT, in, 600, 200, linear" class="elvn-layer"></path>
            <path id="Shape_16_" fill="none" stroke="#0E3C54" stroke-width="2" stroke-dasharray="2" d="M201.385,145.02l11.412,0.01h5.334
                c0,0,6.38-0.521,6.38,6.379v6.5v1.807v6.5c0,6.902,6.38,6.379,6.38,6.379h9.111" data-elvn="maskSlideL, in, 2100, 200, linear" class="elvn-layer"></path>
            <path id="Shape_17_" fill="none" stroke="#0E3C54" stroke-width="2" stroke-dasharray="2" d="M14.307,20.864l0.009,6.358v5.334
                c0,0-0.521,6.38,6.38,6.38h6.499h1.808h6.499c6.902,0,6.38,6.38,6.38,6.38v15.75" data-elvn="maskSlideB, in, 1000, 200, linear" class="elvn-layer"></path>
            <g id="bag" transform="translate(242.000000, 0.000000)" data-elvn="scaleB, in, 3200, 300, backout" class="elvn-layer">
                <path id="Shape_18_" fill="#6BD9E3" stroke="#0E3C54" stroke-width="2" d="M47.006,43.741c0,0.772-0.627,1.399-1.398,1.399H7.853
                    c-0.772,0-1.399-0.627-1.399-1.399L2.958,25.388c0-0.773,0.625-1.399,1.397-1.399h44.748c0.773,0,1.398,0.626,1.398,1.399
                    L47.006,43.741z"></path>
                <path id="Shape_19_" fill="#FFFFFF" stroke="#0E3C54" stroke-width="2" d="M53.37,23.874c0,0.905-0.733,1.64-1.64,1.64H1.727
                    c-0.905,0-1.64-0.734-1.64-1.64v-2.255c0-0.904,0.734-1.639,1.64-1.639H51.73c0.906,0,1.64,0.734,1.64,1.639V23.874z"></path>
                <g id="Group_4_" transform="translate(8.000000, 28.000000)">
                    <path id="Shape_20_" fill="#FFFFFF" d="M5.469,1.743C5.317,0.826,4.281,0.068,3.164,0.068H2.135
                        c-1.118,0-1.856,0.758-1.651,1.675l2.521,11.263c0.153,0.686,1.04,1.232,1.981,1.232h0.869c0.943,0,1.615-0.547,1.5-1.232
                        L5.469,1.743z M13.867,0.068h-1.029c-1.117,0-1.945,0.758-1.848,1.675l1.185,11.263c0.073,0.686,0.895,1.232,1.839,1.232h0.867
                        c0.941,0,1.68-0.547,1.646-1.232L15.974,1.743C15.928,0.826,14.984,0.068,13.867,0.068z M24.57,0.068h-1.029
                        c-1.117,0-2.035,0.758-2.047,1.675l-0.148,11.263c-0.01,0.686,0.748,1.232,1.691,1.232h0.868c0.942,0,1.745-0.547,1.792-1.232
                        l0.781-11.263C26.543,0.826,25.689,0.068,24.57,0.068z M35.273,0.068h-1.029c-1.117,0-2.123,0.758-2.244,1.675l-1.482,11.263
                        c-0.092,0.686,0.602,1.232,1.545,1.232h0.867c0.943,0,1.809-0.547,1.938-1.232l2.116-11.263
                        C37.156,0.826,36.393,0.068,35.273,0.068z"></path>
                    <path id="Shape_21_" fill="none" stroke="#0E3C54" stroke-width="2" d="M5.469,1.743C5.317,0.826,4.281,0.068,3.164,0.068H2.135
                        c-1.118,0-1.856,0.758-1.651,1.675l2.521,11.263c0.153,0.686,1.04,1.232,1.981,1.232h0.869c0.943,0,1.615-0.547,1.5-1.232
                        L5.469,1.743z M13.867,0.068h-1.029c-1.117,0-1.945,0.758-1.848,1.675l1.185,11.263c0.073,0.686,0.895,1.232,1.839,1.232h0.867
                        c0.941,0,1.68-0.547,1.646-1.232L15.974,1.743C15.928,0.826,14.984,0.068,13.867,0.068z M24.57,0.068h-1.029
                        c-1.117,0-2.035,0.758-2.047,1.675l-0.148,11.263c-0.01,0.686,0.748,1.232,1.691,1.232h0.868c0.942,0,1.745-0.547,1.792-1.232
                        l0.781-11.263C26.543,0.826,25.689,0.068,24.57,0.068z M35.273,0.068h-1.029c-1.117,0-2.123,0.758-2.244,1.675l-1.482,11.263
                        c-0.092,0.686,0.602,1.232,1.545,1.232h0.867c0.943,0,1.809-0.547,1.938-1.232l2.116-11.263
                        C37.156,0.826,36.393,0.068,35.273,0.068z"></path>
                </g>
                <path id="Shape_22_" fill="#FFFFFF" stroke="#0E3C54" stroke-width="2" d="M10.209,22.576c-0.561,0.562-1.471,0.562-2.031,0
                    L7.16,21.559c-0.561-0.561-0.561-1.471,0-2.031L25.793,0.896c0.561-0.562,1.469-0.562,2.032,0l1.017,1.016
                    c0.561,0.562,0.561,1.472,0,2.032L10.209,22.576z"></path>
                <path id="Shape_23_" fill="#FFFFFF" stroke="#0E3C54" stroke-width="2" d="M46.298,19.528L32.227,5.457l-3.199,2.896
                    l14.221,14.223c0.562,0.562,1.473,0.562,2.033,0l1.017-1.017C46.859,20.999,46.859,20.089,46.298,19.528z"></path>
            </g>
            <g id="browser" transform="translate(0.000000, 61.000000)" data-elvn="fadeShortR, in, 300, 300, backout" class="elvn-layer">
                <g id="Group_5_">
                    <path id="Shape_24_" fill="#6BD9E3" stroke="#0E3C54" stroke-width="2" d="M133.475,4.047c0-2.19-1.799-3.98-3.995-3.98H4.011
                        c-2.198,0-3.994,1.79-3.994,3.98v7.692h133.457V4.047H133.475z"></path>
                    <path id="Shape_25_" fill="#FFFFFF" stroke="#0E3C54" stroke-width="2" d="M0.018,11.739v77.714c0,2.189,1.795,3.98,3.994,3.98
                        H129.48c2.196,0,3.995-1.791,3.995-3.98V11.739H0.018z"></path>
                </g>

                    <rect id="Rectangle-path_4_" x="0.018" y="11.739" fill="#FFFFFF" stroke="#0E3C54" stroke-width="2" width="133.457" height="12.153"></rect>
                <g id="Group_6_" transform="translate(101.000000, 2.000000)">
                    <ellipse id="Oval_3_" fill="#FFFFFF" stroke="#0E3C54" stroke-width="2" cx="23.798" cy="3.989" rx="3.249" ry="3.237"></ellipse>
                    <ellipse id="Oval_4_" fill="#FFFFFF" stroke="#0E3C54" stroke-width="2" cx="13.829" cy="3.903" rx="3.249" ry="3.236"></ellipse>
                    <ellipse id="Oval_5_" fill="#FFFFFF" stroke="#0E3C54" stroke-width="2" cx="3.996" cy="3.903" rx="3.249" ry="3.236"></ellipse>
                </g>
                <polygon id="Shape_26_" fill="#FFFFFF" stroke="#0E3C54" stroke-width="2" points="38.099,11.739 5,11.739 6.334,5.331
                    36.767,5.331 			"></polygon>
                <polygon id="Shape_27_" fill="#FFFFFF" stroke="#0E3C54" stroke-width="2" points="71.2,11.739 38.099,11.739 39.432,5.331
                    69.867,5.331 			"></polygon>

                    <rect id="Rectangle-path_5_" x="22.937" y="14.731" fill="#FFFFFF" stroke="#0E3C54" stroke-width="2" width="105.11" height="6.174"></rect>

                    <rect id="Rectangle-path_6_" x="40.057" y="33.524" fill="#FFFFFF" stroke="#0E3C54" stroke-width="2" width="53.379" height="7.591"></rect>

                    <rect id="Rectangle-path_7_" x="40.057" y="45.05" fill="#FFFFFF" stroke="#0E3C54" stroke-width="2" width="53.379" height="7.587"></rect>

                    <rect id="Rectangle-path_8_" x="55.282" y="76.02" fill="#FFFFFF" stroke="#0E3C54" stroke-width="2" width="38.154" height="5.08"></rect>

                    <rect id="Rectangle-path_9_" x="40.057" y="56.355" fill="#FFFFFF" stroke="#0E3C54" stroke-width="2" width="53.379" height="15.645"></rect>
                <path id="_x24_19" d="M15.482,48.398c0.132-0.233,0.198-0.503,0.198-0.81c0-0.486-0.179-0.855-0.536-1.108
                    c-0.206-0.148-0.552-0.288-1.038-0.42v3.066C14.771,49.096,15.229,48.853,15.482,48.398z M12.512,44.405
                    c0.255,0.218,0.598,0.369,1.029,0.455v-2.74c-0.509,0.019-0.872,0.175-1.087,0.466c-0.216,0.291-0.324,0.597-0.324,0.915
                    C12.13,43.886,12.257,44.188,12.512,44.405z M11.731,41.974c0.433-0.474,1.041-0.715,1.822-0.723v-0.775h0.554v0.764
                    c0.773,0.054,1.367,0.283,1.781,0.685c0.414,0.402,0.631,0.934,0.65,1.594h-1.02c-0.027-0.295-0.107-0.55-0.239-0.764
                    c-0.245-0.393-0.635-0.598-1.172-0.618v2.833c0.902,0.253,1.514,0.49,1.836,0.711c0.525,0.365,0.787,0.906,0.787,1.621
                    c0,1.034-0.336,1.768-1.009,2.204c-0.373,0.241-0.911,0.4-1.615,0.478v1.131h-0.554v-1.131c-1.131-0.074-1.898-0.474-2.303-1.201
                    c-0.222-0.393-0.332-0.923-0.332-1.591h1.032c0.031,0.532,0.115,0.921,0.251,1.166c0.241,0.439,0.688,0.686,1.341,0.74v-3.177
                    c-0.839-0.159-1.459-0.426-1.86-0.799c-0.4-0.373-0.6-0.89-0.6-1.551C11.081,42.981,11.297,42.448,11.731,41.974z M18.327,43.822
                    v-0.804c0.758-0.074,1.286-0.197,1.586-0.37c0.299-0.173,0.523-0.582,0.67-1.227h0.828v8.313h-1.119v-5.911H18.327z
                     M25.41,47.716c0.031,0.579,0.255,0.979,0.67,1.201c0.214,0.117,0.455,0.175,0.723,0.175c0.501,0,0.929-0.209,1.282-0.627
                    s0.604-1.266,0.752-2.545c-0.233,0.369-0.522,0.629-0.866,0.778c-0.344,0.15-0.714,0.224-1.111,0.224
                    c-0.804,0-1.441-0.251-1.909-0.752s-0.702-1.146-0.702-1.935c0-0.758,0.231-1.424,0.694-2c0.462-0.575,1.145-0.863,2.046-0.863
                    c1.216,0,2.056,0.548,2.518,1.644c0.257,0.602,0.385,1.356,0.385,2.262c0,1.022-0.154,1.928-0.461,2.717
                    c-0.509,1.314-1.372,1.97-2.588,1.97c-0.816,0-1.436-0.214-1.86-0.641c-0.424-0.428-0.635-0.964-0.635-1.609H25.41z
                     M28.141,45.592c0.344-0.274,0.516-0.753,0.516-1.437c0-0.614-0.154-1.072-0.463-1.373c-0.309-0.301-0.702-0.452-1.18-0.452
                    c-0.513,0-0.92,0.172-1.221,0.516c-0.301,0.344-0.452,0.804-0.452,1.379c0,0.544,0.132,0.976,0.396,1.297
                    c0.264,0.321,0.686,0.481,1.265,0.481C27.417,46.002,27.797,45.866,28.141,45.592z"></path>
                <path id="_x24_39" d="M108.749,73.093c0.132-0.233,0.198-0.503,0.198-0.81c0-0.486-0.179-0.855-0.536-1.108
                    c-0.206-0.148-0.552-0.288-1.038-0.42v3.066C108.038,73.79,108.497,73.547,108.749,73.093z M105.779,69.1
                    c0.255,0.218,0.598,0.369,1.029,0.455v-2.74c-0.509,0.019-0.872,0.175-1.087,0.466c-0.216,0.291-0.324,0.597-0.324,0.915
                    C105.397,68.581,105.524,68.882,105.779,69.1z M104.998,66.669c0.433-0.474,1.041-0.715,1.822-0.723V65.17h0.554v0.764
                    c0.773,0.054,1.367,0.283,1.781,0.685c0.414,0.402,0.631,0.934,0.65,1.594h-1.02c-0.027-0.295-0.107-0.55-0.239-0.764
                    c-0.245-0.393-0.635-0.598-1.172-0.618v2.833c0.902,0.253,1.514,0.49,1.836,0.711c0.525,0.365,0.787,0.906,0.787,1.621
                    c0,1.034-0.336,1.768-1.009,2.204c-0.373,0.241-0.911,0.4-1.615,0.478v1.131h-0.554v-1.131c-1.131-0.074-1.898-0.474-2.303-1.201
                    c-0.222-0.393-0.332-0.923-0.332-1.591h1.032c0.031,0.532,0.115,0.921,0.251,1.166c0.241,0.439,0.688,0.686,1.341,0.74v-3.177
                    c-0.839-0.159-1.459-0.426-1.86-0.799c-0.4-0.373-0.6-0.89-0.6-1.551C104.348,67.675,104.564,67.143,104.998,66.669z
                     M111.404,73.842c-0.445-0.542-0.667-1.202-0.667-1.979h1.096c0.047,0.54,0.148,0.933,0.303,1.178
                    c0.272,0.439,0.764,0.659,1.475,0.659c0.552,0,0.995-0.148,1.329-0.443c0.334-0.295,0.501-0.676,0.501-1.143
                    c0-0.575-0.176-0.977-0.528-1.207c-0.352-0.229-0.84-0.344-1.466-0.344c-0.07,0-0.141,0.001-0.213,0.003
                    s-0.145,0.005-0.219,0.009v-0.927c0.109,0.012,0.2,0.019,0.274,0.023c0.074,0.004,0.154,0.006,0.239,0.006
                    c0.393,0,0.715-0.062,0.968-0.187c0.443-0.218,0.665-0.606,0.665-1.166c0-0.416-0.148-0.736-0.443-0.962
                    c-0.295-0.225-0.639-0.338-1.032-0.338c-0.7,0-1.183,0.233-1.452,0.7c-0.148,0.257-0.231,0.622-0.251,1.096h-1.038
                    c0-0.622,0.124-1.15,0.373-1.586c0.428-0.777,1.18-1.166,2.256-1.166c0.851,0,1.51,0.189,1.976,0.568
                    c0.466,0.379,0.7,0.928,0.7,1.647c0,0.513-0.138,0.929-0.414,1.248c-0.171,0.198-0.393,0.354-0.665,0.466
                    c0.439,0.12,0.782,0.353,1.029,0.697c0.247,0.344,0.37,0.765,0.37,1.262c0,0.797-0.262,1.446-0.787,1.947
                    s-1.269,0.752-2.233,0.752C112.566,74.655,111.849,74.384,111.404,73.842z M118.677,72.411c0.031,0.579,0.255,0.979,0.67,1.201
                    c0.214,0.117,0.455,0.175,0.723,0.175c0.501,0,0.929-0.209,1.283-0.627c0.354-0.418,0.604-1.266,0.752-2.545
                    c-0.233,0.369-0.522,0.629-0.866,0.778c-0.344,0.15-0.714,0.224-1.111,0.224c-0.804,0-1.441-0.251-1.909-0.752
                    s-0.702-1.146-0.702-1.935c0-0.758,0.231-1.424,0.694-2c0.462-0.575,1.145-0.863,2.046-0.863c1.216,0,2.056,0.548,2.518,1.644
                    c0.257,0.602,0.385,1.356,0.385,2.262c0,1.022-0.154,1.928-0.461,2.717c-0.509,1.314-1.372,1.97-2.588,1.97
                    c-0.816,0-1.436-0.214-1.86-0.641c-0.424-0.427-0.635-0.964-0.635-1.609H118.677z M121.408,70.286
                    c0.344-0.274,0.516-0.753,0.516-1.437c0-0.614-0.154-1.072-0.463-1.373c-0.309-0.301-0.702-0.452-1.18-0.452
                    c-0.513,0-0.92,0.172-1.221,0.516c-0.301,0.344-0.452,0.803-0.452,1.379c0,0.544,0.132,0.976,0.396,1.297
                    c0.264,0.321,0.686,0.481,1.265,0.481C120.684,70.697,121.064,70.56,121.408,70.286z"></path>
                <polygon id="Shape_28_" fill="#6BD9E3" stroke="#0E3C54" stroke-width="2" points="113.647,55.98 123.484,44.211 118.307,44.211
                    118.307,34.845 109.639,34.845 109.639,44.211 103.812,44.211 			"></polygon>
                <polygon id="Shape_29_" fill="#6BD9E3" stroke="#0E3C54" stroke-width="2" points="21.55,59.98 11.713,71.75 16.891,71.75
                    16.891,81.117 25.559,81.117 25.559,71.75 31.386,71.75 			"></polygon>
            </g>
            <path id="Shape_30_" fill="none" stroke="#0E3C54" stroke-width="2" stroke-dasharray="2" d="M268.729,73.719v18.322" data-elvn="maskSlideB, in, 2700, 200, linear" class="elvn-layer"></path>
            <path id="Shape_31_" fill="none" stroke="#0E3C54" stroke-width="2" stroke-dasharray="2" d="M172.222,144.572h-38.465" data-elvn="maskSlideL, in, 1400, 200, linear" class="elvn-layer"></path>
        </g>
    </g>
</svg>