<svg class="phone-enliven" version="1.1" id="Layer_7" xmlns="http://www.w3.org/2000/svg" xmlns:xlink="http://www.w3.org/1999/xlink" x="0px" y="0px" viewBox="0 0 337 236" enable-background="new 0 0 337 236" xml:space="preserve" data-global-elvn="enableViewport, disableClick, none, startInvisible, notResponsive, 500, notLoop, 500">
    <g id="Page-1" xmlns="http://www.w3.org/2000/svg">
        <g id="m_27">
            <path id="Shape" fill="#F8D383" stroke="#0E3C54" stroke-width="2" stroke-linecap="round" stroke-linejoin="round" d="
                M138.249,119.997c1.444,0,2.614-1.184,2.614-2.624v-7.15c0-1.445-1.17-2.63-2.614-2.63h-6.241c-1.446,0-2.955-1.136-3.361-2.514
                l-3.59-8.719c-0.697-1.263-0.431-3.137,0.594-4.156l4.401-4.401c1.021-1.021,1.021-2.688,0-3.704l-5.067-5.065
                c-1.014-1.021-2.678-1.021-3.701,0l-4.4,4.403c-1.026,1.022-2.892,1.293-4.155,0.595l-8.721-3.584
                c-1.383-0.416-2.52-1.929-2.52-3.371v-6.238c0-1.448-1.175-2.624-2.621-2.624h-7.154c-1.444,0-2.628,1.176-2.628,2.624v6.238
                c0,1.442-1.122,2.955-2.502,3.371l-8.725,3.584c-1.27,0.698-3.125,0.428-4.152-0.595l-4.4-4.4c-1.022-1.023-2.696-1.023-3.71,0
                l-5.066,5.062c-1.021,1.016-1.021,2.684,0,3.704l4.399,4.401c1.026,1.02,1.293,2.894,0.603,4.156l-3.588,8.719
                c-0.417,1.378-1.935,2.514-3.37,2.514H52.34c-1.444,0-2.631,1.185-2.631,2.63v7.15c0,1.44,1.187,2.624,2.631,2.624h6.234
                c1.435,0,2.954,1.13,3.37,2.514l3.588,8.719c0.69,1.262,0.423,3.131-0.595,4.146l-4.407,4.407c-1.021,1.018-1.021,2.69,0,3.709
                l5.06,5.063c1.021,1.02,2.695,1.02,3.717,0l4.4-4.407c1.027-1.016,2.882-1.283,4.152-0.591l8.725,3.59
                c1.38,0.404,2.502,1.923,2.502,3.363v6.242c0,1.44,1.184,2.626,2.628,2.626h7.154c1.446,0,2.621-1.186,2.621-2.626v-6.242
                c0-1.44,1.137-2.959,2.52-3.363l8.721-3.59c1.264-0.692,3.129-0.425,4.155,0.591l4.4,4.407c1.023,1.022,2.688,1.022,3.701,0
                l5.067-5.063c1.021-1.019,1.021-2.691,0-3.709l-4.401-4.407c-1.024-1.016-1.291-2.888-0.594-4.146l3.59-8.719
                c0.406-1.384,1.915-2.514,3.361-2.514H138.249z M95.294,134.715c-11.553,0-20.924-9.368-20.924-20.923
                c0-11.551,9.371-20.914,20.924-20.914c11.55,0,20.913,9.363,20.913,20.914C116.207,125.347,106.845,134.715,95.294,134.715z" data-elvn="wheelC, in, 1300, 300, backout" class="elvn-layer"></path>
            <path id="speech-tl-1" fill="#F8D383" stroke="#0E3C54" stroke-width="2" stroke-linecap="round" stroke-linejoin="round" d="
                M56.876,17.568H25.649c-2.915,0-5.278,2.363-5.278,5.278v20.178c0,2.915,2.363,5.278,5.278,5.278h2.182v7.775
                c0,0,0.768,2.494,2.688-0.386c1.119-1.679,3.245-4.948,4.827-7.39h21.532c2.914,0,5.277-2.363,5.277-5.278V22.847
                C62.154,19.932,59.791,17.568,56.876,17.568z" data-elvn="scaleBR, in, 1500, 300, backout" class="elvn-layer"></path>
            <path id="Shape_1_" fill="#FFFFFF" stroke="#0E3C54" stroke-width="2" d="M309.656,17.111h-36.32
                c-3.391,0-6.139,2.749-6.139,6.138v23.47c0,3.39,2.748,6.139,6.139,6.139h25.043c1.84,2.84,4.312,6.644,5.613,8.595
                c2.233,3.35,3.127,0.449,3.127,0.449v-9.044h2.537c3.39,0,6.138-2.749,6.138-6.139v-23.47
                C315.794,19.86,313.046,17.111,309.656,17.111z" data-elvn="scaleB, in, 2200, 300, backout" class="elvn-layer"></path>
            <g id="speech-tl-2" transform="translate(41.000000, 28.000000)" data-elvn="scaleBL, in, 1800, 300, backout" class="elvn-layer">
                <path id="Shape_2_" fill="#FFFFFF" stroke="#0E3C54" stroke-width="2" d="M36.767,0.547H5.54c-2.915,0-5.277,2.363-5.277,5.277
                    v20.179c0,2.914,2.363,5.277,5.277,5.277h21.531c1.582,2.441,3.708,5.712,4.827,7.39c1.92,2.88,2.688,0.387,2.688,0.387V31.28
                    h2.182c2.915,0,5.277-2.363,5.277-5.277V5.824C42.044,2.91,39.682,0.547,36.767,0.547z"></path>
                <circle id="Oval" fill="#FFFFFF" stroke="#0E3C54" stroke-width="2" cx="10.391" cy="15.914" r="3.312"></circle>
                <circle id="Oval_1_" fill="#FFFFFF" stroke="#0E3C54" stroke-width="2" cx="21.154" cy="15.914" r="3.312"></circle>
                <circle id="Oval_2_" fill="#FFFFFF" stroke="#0E3C54" stroke-width="2" cx="31.916" cy="15.914" r="3.311"></circle>
            </g>
            <g id="calculator" transform="translate(274.000000, 168.000000)" data-elvn="scaleC, in, 2400, 300, backout" class="elvn-layer">
                <g id="Body_32_" transform="translate(0.000000, 16.000000)">
                    <path id="Shape_3_" fill="#FFFFFF" d="M0.311,0.954v28.751c0,1.671,1.356,3.028,3.027,3.028h36.317
                        c1.671,0,3.026-1.357,3.026-3.028V0.954H0.311z"></path>
                    <path id="Shape_4_" fill="none" stroke="#0E3C54" stroke-width="2" d="M0.311,0.954v28.751c0,1.671,1.356,3.028,3.027,3.028
                        h36.317c1.671,0,3.026-1.357,3.026-3.028V0.954H0.311z"></path>
                </g>
                <g id="Body_30_">
                    <path id="Shape_5_" fill="#F8D383" d="M39.655,0.311H3.338c-1.671,0-3.027,1.354-3.027,3.025v13.618h42.371V3.336
                        C42.682,1.664,41.326,0.311,39.655,0.311z"></path>
                    <path id="Shape_6_" fill="none" stroke="#0E3C54" stroke-width="2" stroke-linecap="round" stroke-linejoin="round" d="
                        M39.655,0.311H3.338c-1.671,0-3.027,1.354-3.027,3.025v13.618h42.371V3.336C42.682,1.664,41.326,0.311,39.655,0.311z"></path>
                </g>
                <g id="Display_4_" transform="translate(4.000000, 4.000000)">
                    <path id="Shape_7_" fill="#FFFFFF" d="M32.629,0.849H2.364c-0.836,0-1.514,0.678-1.514,1.515v6.053
                        c0,0.836,0.678,1.513,1.514,1.513h30.265c0.834,0,1.512-0.677,1.512-1.513V2.364C34.141,1.526,33.463,0.849,32.629,0.849z"></path>
                    <path id="Shape_8_" fill="none" stroke="#0E3C54" stroke-width="2" d="M32.629,0.849H2.364c-0.836,0-1.514,0.678-1.514,1.515
                        v6.053c0,0.836,0.678,1.513,1.514,1.513h30.265c0.834,0,1.512-0.677,1.512-1.513V2.364C34.141,1.526,33.463,0.849,32.629,0.849z
                        "></path>
                </g>
                <g id="Keypad" transform="translate(4.000000, 19.000000)">
                    <path id="Shape_9_" fill="#FFFFFF" d="M5.391,0.98H2.365c-0.836,0-1.514,0.68-1.514,1.516v3.023
                        c0,0.837,0.678,1.516,1.514,1.516h3.026c0.834,0,1.513-0.679,1.513-1.516V2.496C6.903,1.66,6.225,0.98,5.391,0.98z
                         M5.391,10.061H2.365c-0.836,0-1.514,0.679-1.514,1.512V14.6c0,0.837,0.678,1.516,1.514,1.516h3.026
                        c0.834,0,1.513-0.679,1.513-1.516v-3.027C6.903,10.739,6.225,10.061,5.391,10.061z M5.391,19.141H2.365
                        c-0.836,0-1.514,0.677-1.514,1.513v3.025c0,0.837,0.678,1.514,1.514,1.514h3.026c0.834,0,1.513-0.677,1.513-1.514v-3.025
                        C6.903,19.817,6.225,19.141,5.391,19.141z M14.471,0.98h-3.027c-0.836,0-1.513,0.68-1.513,1.516v3.023
                        c0,0.837,0.677,1.516,1.513,1.516h3.027c0.834,0,1.512-0.679,1.512-1.516V2.496C15.982,1.66,15.305,0.98,14.471,0.98z
                         M14.471,10.061h-3.027c-0.836,0-1.513,0.679-1.513,1.512V14.6c0,0.837,0.677,1.516,1.513,1.516h3.027
                        c0.834,0,1.512-0.679,1.512-1.516v-3.027C15.982,10.739,15.305,10.061,14.471,10.061z M14.471,19.141h-3.027
                        c-0.836,0-1.513,0.677-1.513,1.513v3.025c0,0.837,0.677,1.514,1.513,1.514h3.027c0.834,0,1.512-0.677,1.512-1.514v-3.025
                        C15.982,19.817,15.305,19.141,14.471,19.141z M23.549,0.98h-3.026c-0.835,0-1.514,0.68-1.514,1.516v3.023
                        c0,0.837,0.679,1.516,1.514,1.516h3.026c0.835,0,1.514-0.679,1.514-1.516V2.496C25.062,1.66,24.384,0.98,23.549,0.98z
                         M23.549,10.061h-3.026c-0.835,0-1.514,0.679-1.514,1.512V14.6c0,0.837,0.679,1.516,1.514,1.516h3.026
                        c0.835,0,1.514-0.679,1.514-1.516v-3.027C25.062,10.739,24.384,10.061,23.549,10.061z M23.549,19.141h-3.026
                        c-0.835,0-1.514,0.677-1.514,1.513v3.025c0,0.837,0.679,1.514,1.514,1.514h3.026c0.835,0,1.514-0.677,1.514-1.514v-3.025
                        C25.062,19.817,24.384,19.141,23.549,19.141z M32.629,0.98h-3.027c-0.836,0-1.513,0.68-1.513,1.516v3.023
                        c0,0.837,0.677,1.516,1.513,1.516h3.027c0.834,0,1.512-0.679,1.512-1.516V2.496C34.141,1.66,33.463,0.98,32.629,0.98z"></path>
                    <path id="Shape_10_" fill="none" stroke="#0E3C54" stroke-width="2" d="M5.391,0.98H2.365c-0.836,0-1.514,0.68-1.514,1.516
                        v3.023c0,0.837,0.678,1.516,1.514,1.516h3.026c0.834,0,1.513-0.679,1.513-1.516V2.496C6.903,1.66,6.225,0.98,5.391,0.98z
                         M5.391,10.061H2.365c-0.836,0-1.514,0.679-1.514,1.512V14.6c0,0.837,0.678,1.516,1.514,1.516h3.026
                        c0.834,0,1.513-0.679,1.513-1.516v-3.027C6.903,10.739,6.225,10.061,5.391,10.061z M5.391,19.141H2.365
                        c-0.836,0-1.514,0.677-1.514,1.513v3.025c0,0.837,0.678,1.514,1.514,1.514h3.026c0.834,0,1.513-0.677,1.513-1.514v-3.025
                        C6.903,19.817,6.225,19.141,5.391,19.141z M14.471,0.98h-3.027c-0.836,0-1.513,0.68-1.513,1.516v3.023
                        c0,0.837,0.677,1.516,1.513,1.516h3.027c0.834,0,1.512-0.679,1.512-1.516V2.496C15.982,1.66,15.305,0.98,14.471,0.98z
                         M14.471,10.061h-3.027c-0.836,0-1.513,0.679-1.513,1.512V14.6c0,0.837,0.677,1.516,1.513,1.516h3.027
                        c0.834,0,1.512-0.679,1.512-1.516v-3.027C15.982,10.739,15.305,10.061,14.471,10.061z M14.471,19.141h-3.027
                        c-0.836,0-1.513,0.677-1.513,1.513v3.025c0,0.837,0.677,1.514,1.513,1.514h3.027c0.834,0,1.512-0.677,1.512-1.514v-3.025
                        C15.982,19.817,15.305,19.141,14.471,19.141z M23.549,0.98h-3.026c-0.835,0-1.514,0.68-1.514,1.516v3.023
                        c0,0.837,0.679,1.516,1.514,1.516h3.026c0.835,0,1.514-0.679,1.514-1.516V2.496C25.062,1.66,24.384,0.98,23.549,0.98z
                         M23.549,10.061h-3.026c-0.835,0-1.514,0.679-1.514,1.512V14.6c0,0.837,0.679,1.516,1.514,1.516h3.026
                        c0.835,0,1.514-0.679,1.514-1.516v-3.027C25.062,10.739,24.384,10.061,23.549,10.061z M23.549,19.141h-3.026
                        c-0.835,0-1.514,0.677-1.514,1.513v3.025c0,0.837,0.679,1.514,1.514,1.514h3.026c0.835,0,1.514-0.677,1.514-1.514v-3.025
                        C25.062,19.817,24.384,19.141,23.549,19.141z M32.629,0.98h-3.027c-0.836,0-1.513,0.68-1.513,1.516v3.023
                        c0,0.837,0.677,1.516,1.513,1.516h3.027c0.834,0,1.512-0.679,1.512-1.516V2.496C34.141,1.66,33.463,0.98,32.629,0.98z"></path>
                </g>
                <g id="Key" transform="translate(32.000000, 29.000000)">
                    <path id="Shape_11_" fill="#F8D383" d="M4.629,0.061H1.602c-0.836,0-1.513,0.679-1.513,1.512v12.106
                        c0,0.837,0.677,1.514,1.513,1.514h3.027c0.834,0,1.512-0.677,1.512-1.514V1.573C6.141,0.739,5.463,0.061,4.629,0.061z"></path>
                    <path id="Shape_12_" fill="none" stroke="#0E3C54" stroke-width="2" stroke-linecap="round" stroke-linejoin="round" d="
                        M4.629,0.061H1.602c-0.836,0-1.513,0.679-1.513,1.512v12.106c0,0.837,0.677,1.514,1.513,1.514h3.027
                        c0.834,0,1.512-0.677,1.512-1.514V1.573C6.141,0.739,5.463,0.061,4.629,0.061z"></path>
                </g>
            </g>
            <g id="wrench" transform="translate(152.000000, 60.000000)" data-elvn="scaleC, in, 1500, 300, backout" class="elvn-layer">
                <path id="Shape_13_" fill="#FFFFFF" stroke="#0E3C54" stroke-width="2" d="M20.233,0.352c-11.028,0-19.97,8.941-19.97,19.97
                    c0,6.157,2.791,11.66,7.173,15.323l3.178-6.634c-3.896-3.907-5.126-9.982-2.606-15.242c2.162-4.516,6.525-7.259,11.188-7.577
                    l-5.545,11.582l11.874,5.687l5.546-11.581c2.675,3.832,3.273,8.95,1.111,13.465c-2.52,5.262-8.023,8.111-13.51,7.525
                    l-3.262,6.811c1.547,0.385,3.156,0.611,4.823,0.611c11.029,0,19.97-8.941,19.97-19.97S31.263,0.352,20.233,0.352z"></path>
                <path id="Shape_14_" fill="#F8D383" stroke="#0E3C54" stroke-width="2" stroke-linecap="round" stroke-linejoin="round" d="
                    M32.182,25.344c2.162-4.515,1.563-9.633-1.111-13.465L25.525,23.46l-11.874-5.687l5.545-11.582
                    c-4.662,0.318-9.025,3.062-11.188,7.577c-2.52,5.26-1.289,11.335,2.606,15.242l-3.178,6.634c2.28,1.907,4.997,3.295,7.974,4.035
                    l3.262-6.811C24.158,33.455,29.662,30.605,32.182,25.344z"></path>
            </g>
            <rect id="Rectangle-path_1_" x="98.479" y="34.156" fill="none" width="142.913" height="18.823"></rect>
            <path id="Shape_15_" fill="none" stroke="#0E3C54" stroke-width="2" stroke-dasharray="2" d="M153.25,74.112h-7.178
                c-6.902,0-6.381,6.38-6.381,6.38v5.334l-0.018,1.013v5.334c0,0,0.521,6.38-6.38,6.38h-7.011" data-elvn="maskSlideL, in, 1300, 200, linear" class="elvn-layer"></path>
            <path id="Shape_16_" fill="none" stroke="#0E3C54" stroke-width="2" stroke-dasharray="2" d="M187.54,92.665v7.179
                c0,6.901,6.38,6.38,6.38,6.38h5.334l1.013,0.018h5.334c0,0,6.38-0.521,6.38,6.381v7.01" data-elvn="maskSlideL, in, 1700, 200, linear" class="elvn-layer"></path>
            <path id="Shape_17_" fill="none" stroke="#0E3C54" stroke-width="2" stroke-dasharray="2" d="M101.515,173.986h-16.01
                c-6.901,0-6.38,6.38-6.38,6.38v5.334l-0.018,1.013v5.334c0,0,0.521,6.38-6.38,6.38h-16.01" data-elvn="maskSlideR, in, 300, 300, linear" class="elvn-layer"></path>
            <path id="Shape_18_" fill="none" stroke="#0E3C54" stroke-width="2" stroke-dasharray="2" d="M288.126,53.952v18.5
                c0,6.901,6.38,6.38,6.38,6.38h5.334l3.418,0.071h5.334c0,0,6.381-0.521,6.381,6.38v6.499l-0.01,2.652v5.334
                c0,0,0.521,6.38-6.38,6.38H278.5" data-elvn="maskStairsB, in, 2000, 300, linear" class="elvn-layer"></path>
            <path id="Shape_19_" fill="none" stroke="#0E3C54" stroke-width="2" stroke-dasharray="2" d="M47.705,59.953v18.5
                c0,6.901-6.38,6.38-6.38,6.38h-5.334l-3.418,0.071h-5.334c0,0-6.38-0.521-6.38,6.38v6.499l0.009,22.654v5.334
                c0,0-0.521,6.38,6.38,6.38h37.46" data-elvn="maskStairsB, in, 1300, 400, linear" class="elvn-layer"></path>
            <circle id="Oval_3_" fill="none" stroke="#F8D383" stroke-width="2" cx="119.344" cy="63.673" r="2.416" data-elvn="fadeShortL, in, 800, 200, linear" class="elvn-layer"></circle>
            <circle id="Oval_4_" fill="none" stroke="#F8D383" stroke-width="2" cx="137.351" cy="63.673" r="2.416" data-elvn="fadeShortL, in, 1000, 200, linear" class="elvn-layer"></circle>
            <circle id="Oval_5_" fill="none" stroke="#F8D383" stroke-width="2" cx="228.996" cy="17.899" r="2.416" data-elvn="fadeShortL, in, 2800, 200, linear" class="elvn-layer"></circle>
            <circle id="Oval_6_" fill="none" stroke="#F8D383" stroke-width="2" cx="247.004" cy="17.899" r="2.416" data-elvn="fadeShortL, in, 3000, 200, linear" class="elvn-layer"></circle>
            <circle id="Oval_7_" fill="none" stroke="#F8D383" stroke-width="2" cx="45.551" cy="216.733" r="2.416" data-elvn="fadeShortL, in, 1600, 200, linear" class="elvn-layer"></circle>
            <circle id="Oval_8_" fill="none" stroke="#F8D383" stroke-width="2" cx="63.558" cy="216.733" r="2.416" data-elvn="fadeShortL, in, 1800, 200, linear" class="elvn-layer"></circle>
            <circle id="Oval_9_" fill="none" stroke="#F8D383" stroke-width="2" cx="22.787" cy="153.965" r="2.416" data-elvn="fadeShortL, in, 2400, 200, linear" class="elvn-layer"></circle>
            <circle id="Oval_10_" fill="none" stroke="#F8D383" stroke-width="2" cx="40.794" cy="153.965" r="2.416" data-elvn="fadeShortL, in, 2600, 200, linear" class="elvn-layer"></circle>
            <circle id="Oval_11_" fill="none" stroke="#F8D383" stroke-width="2" cx="320.203" cy="118.68" r="2.416" data-elvn="fadeShortL, in, 2000, 200, linear" class="elvn-layer"></circle>
            <circle id="Oval_12_" fill="none" stroke="#F8D383" stroke-width="2" cx="320.203" cy="136.687" r="2.416" data-elvn="fadeShortL, in, 2200, 200, linear" class="elvn-layer"></circle>
            <circle id="Oval_13_" fill="none" stroke="#F8D383" stroke-width="2" cx="90.613" cy="15.49" r="2.416" data-elvn="fadeShortL, in, 400, 200, linear" class="elvn-layer"></circle>
            <circle id="Oval_14_" fill="none" stroke="#F8D383" stroke-width="2" cx="257.445" cy="173.661" r="2.416" data-elvn="fadeShortL, in, 3200, 200, linear" class="elvn-layer"></circle>
            <circle id="Oval_15_" fill="none" stroke="#F8D383" stroke-width="2" cx="257.445" cy="191.668" r="2.416" data-elvn="fadeShortL, in, 3400, 200, linear" class="elvn-layer"></circle>
            <g id="macbook" transform="translate(83.000000, 118.000000)" data-elvn="stamp, in, 0, 300, backout" class="elvn-layer">
                <path id="Shape_20_" fill="#FFFFFF" stroke="#0E3C54" stroke-width="2" d="M154.819,89.534V5.818
                    c0-2.591-2.911-5.284-5.502-5.284H23.549c-2.592,0-5.729,2.693-5.729,5.284v83.716H154.819z M25.819,9.534h121v74h-121V9.534z"></path>
                <g id="Group" transform="translate(0.000000, 91.000000)">
                    <path id="Shape_21_" fill="#FFFFFF" d="M161.08,0.534c-2.75,0-5.473,0-6.05,0s-3.3,0-6.05,0H24.252c-2.75,0-7.25,0-10,0h-2.171
                        c-2.75,0-6.941,0-9.314,0s-3.066,1.624-1.541,3.912L2.32,5.73c1.525,2.289,5.023,3.804,7.773,3.804h152.712
                        c2.75,0,6.248-1.64,7.773-3.927l1.095-1.277c1.525-2.288,0.523-3.796-2.227-3.796H161.08L161.08,0.534z"></path>
                    <path id="Shape_22_" fill="none" stroke="#0E3C54" stroke-width="2" d="M161.08,0.534c-2.75,0-5.473,0-6.05,0s-3.3,0-6.05,0
                        H24.252c-2.75,0-7.25,0-10,0h-2.171c-2.75,0-6.941,0-9.314,0s-3.066,1.624-1.541,3.912L2.32,5.73
                        c1.525,2.289,5.023,3.804,7.773,3.804h152.712c2.75,0,6.248-1.64,7.773-3.927l1.095-1.277c1.525-2.288,0.523-3.796-2.227-3.796
                        H161.08L161.08,0.534z"></path>
                </g>

                    <rect id="Rectangle-path_2_" x="26.123" y="10.235" fill="#F8D383" stroke="#0E3C54" stroke-width="2" stroke-linecap="round" stroke-linejoin="round" width="120.651" height="74.161"></rect>
                <path id="Shape_23_" fill="#FFFFFF" stroke="#0E3C54" stroke-width="2" d="M48.65,50.17c-2.965,0-5.367-2.615-5.367-5.836
                    c0-3.227,2.402-5.842,5.367-5.842c0.634,0,1.238,0.128,1.804,0.348c-0.088-0.478-0.136-0.968-0.136-1.478
                    c0-4.072,3.036-7.375,6.781-7.375c1.241,0,2.4,0.368,3.4,1.001c0.035-4.841,4.943-8.604,8.689-8.604
                    c3.744,0,8.461,3.763,8.498,8.604c1.002-0.633,2.16-1.001,3.4-1.001c3.744,0,6.781,3.303,6.781,7.375c0,0.51-0.049,1-0.139,1.478
                    c0.565-0.22,1.173-0.348,1.807-0.348c2.963,0,5.366,2.615,5.366,5.842c0,3.221-2.403,5.836-5.366,5.836H48.65L48.65,50.17z"></path>
                <path id="Shape_24_" fill="#FFFFFF" stroke="#0E3C54" stroke-width="2" d="M68.742,56.127c0.877,0,1.713,0.175,2.493,0.478
                    c-0.124-0.661-0.189-1.341-0.189-2.041c0-5.623,4.192-10.183,9.364-10.183c1.713,0,3.312,0.508,4.693,1.381
                    c0.048-6.683,6.826-11.878,11.995-11.878c5.171,0,11.687,5.195,11.735,11.878c1.382-0.873,2.98-1.381,4.694-1.381
                    c5.17,0,9.362,4.56,9.362,10.183c0,0.7-0.066,1.38-0.189,2.041c0.78-0.303,1.617-0.478,2.494-0.478
                    c4.092,0,7.408,3.609,7.408,8.06c0,4.451-3.316,8.061-7.408,8.061H95.228V60.883h5.757L89.268,49.236L77.553,60.883h6.404v11.365
                    H68.74c-4.094,0-7.41-3.609-7.41-8.061C61.332,59.736,64.648,56.127,68.742,56.127z"></path>
            </g>
            <g id="table-tr" transform="translate(207.000000, 61.000000)" data-elvn="scaleBL, in, 800, 300, backout" class="elvn-layer">
                <polygon id="Shape_25_" fill="#FFFFFF" stroke="#0E3C54" stroke-width="2" points="65.725,76.98 65.725,76.98 4.98,76.98
                    4.98,76.98 4.98,5.432 4.98,5.432 65.725,5.432 65.725,5.432 			"></polygon>
                <path id="Shape_26_" fill="#FFFFFF" stroke="#0E3C54" stroke-width="2" d="M61.267,81.215H9.807c-4.967,0-9.007-4.04-9.007-9.004
                    V9.596c0-4.965,4.04-9.006,9.007-9.006h51.46c4.968,0,9.009,4.041,9.009,9.006v62.615C70.275,77.175,66.234,81.215,61.267,81.215
                    z M9.807,5.736c-2.128,0-3.861,1.731-3.861,3.859V72.21c0,2.127,1.733,3.86,3.861,3.86h51.46c2.126,0,3.862-1.733,3.862-3.86
                    V9.596c0-2.128-1.736-3.859-3.862-3.859L9.807,5.736L9.807,5.736z"></path>

                    <rect id="Rectangle-path_3_" x="16.777" y="18.175" fill="#FFFFFF" stroke="#0E3C54" stroke-width="2" width="8.578" height="9.435"></rect>

                    <rect id="Rectangle-path_4_" x="30.819" y="21.068" fill="#FFFFFF" stroke="#0E3C54" stroke-width="2" width="23.479" height="6.541"></rect>

                    <rect id="Rectangle-path_5_" x="16.777" y="31.467" fill="#FFFFFF" stroke="#0E3C54" stroke-width="2" width="8.578" height="9.435"></rect>

                    <rect id="Rectangle-path_6_" x="30.819" y="34.36" fill="#FFFFFF" stroke="#0E3C54" stroke-width="2" width="23.479" height="6.541"></rect>

                    <rect id="Rectangle-path_7_" x="16.777" y="44.757" fill="#FFFFFF" stroke="#0E3C54" stroke-width="2" width="8.578" height="9.437"></rect>

                    <rect id="Rectangle-path_8_" x="30.819" y="47.656" fill="#FFFFFF" stroke="#0E3C54" stroke-width="2" width="23.479" height="6.537"></rect>
            </g>
            <g id="square-rm" transform="translate(253.000000, 119.000000)" data-elvn="scaleTL, in, 1000, 300, backout" class="elvn-layer">
                <path id="Shape_27_" fill="#F8D383" stroke="#0E3C54" stroke-width="2" stroke-linecap="round" stroke-linejoin="round" d="
                    M34.676,27.721c0,3.551-2.879,6.431-6.433,6.431H9.588c-3.553,0-6.432-2.88-6.432-6.431V9.065c0-3.554,2.879-6.433,6.432-6.433
                    h18.655c3.554,0,6.433,2.879,6.433,6.433V27.721L34.676,27.721z"></path>
                <path id="Shape_28_" fill="#FFFFFF" stroke="#0E3C54" stroke-width="2" d="M28.243,36.724H9.588c-4.965,0-9.005-4.04-9.005-9.003
                    V9.065c0-4.967,4.04-9.005,9.005-9.005h18.655c4.965,0,9.007,4.038,9.007,9.005v18.656C37.25,32.684,33.208,36.724,28.243,36.724
                    z M9.588,5.203c-2.126,0-3.861,1.733-3.861,3.861V27.72c0,2.127,1.735,3.858,3.861,3.858h18.655c2.126,0,3.86-1.731,3.86-3.858
                    V9.064c0-2.128-1.734-3.861-3.86-3.861H9.588L9.588,5.203z"></path>
            </g>
            <g id="square-bl" transform="translate(20.000000, 169.000000)" data-elvn="scaleR, in, 600, 300, backout" class="elvn-layer">
                <path id="Shape_29_" fill="#F8D383" stroke="#0E3C54" stroke-width="2" stroke-linecap="round" stroke-linejoin="round" d="
                    M34.554,28.044c0,3.551-2.878,6.431-6.432,6.431H9.467c-3.553,0-6.433-2.88-6.433-6.431V9.388c0-3.554,2.879-6.433,6.433-6.433
                    h18.655c3.554,0,6.432,2.879,6.432,6.433V28.044z"></path>
                <path id="Shape_30_" fill="#FFFFFF" stroke="#0E3C54" stroke-width="2" d="M28.122,37.047H9.467c-4.966,0-9.005-4.04-9.005-9.003
                    V9.388c0-4.967,4.04-9.005,9.005-9.005h18.655c4.965,0,9.006,4.038,9.006,9.005v18.656
                    C37.128,33.007,33.087,37.047,28.122,37.047z M9.467,5.526c-2.126,0-3.861,1.733-3.861,3.861v18.656
                    c0,2.127,1.735,3.858,3.861,3.858h18.655c2.126,0,3.86-1.731,3.86-3.858V9.387c0-2.128-1.734-3.861-3.86-3.861H9.467z"></path>
            </g>
        </g>
    </g>
</svg>